<svg viewBox="0 0 192 80" fill="none" xmlns="http://www.w3.org/2000/svg">
  <path d="M102.79 3.83496V44.9682L53.4829 69.5287V20.6476L102.79 3.83496Z" fill="#E0E4EC"/>
  <path fill-rule="evenodd" clip-rule="evenodd" d="M102.914 3.66181C102.97 3.70176 103.003 3.76619 103.003 3.83484V44.9681C103.003 45.0488 102.958 45.1226 102.885 45.1586L53.5781 69.719C53.5122 69.7518 53.4339 69.7482 53.3713 69.7094C53.3086 69.6707 53.2705 69.6022 53.2705 69.5285V20.6474C53.2705 20.5564 53.3284 20.4754 53.4146 20.4461L102.722 3.63346C102.787 3.6113 102.858 3.62186 102.914 3.66181ZM53.696 20.7997V69.1849L102.578 44.8364V4.13218L53.696 20.7997Z" fill="#6E7E92"/>
  <path d="M102.8 3.83008L138.532 7.18323L93.5857 25.4294L53.4829 20.6476L102.8 3.83008Z" fill="#E0E4EC"/>
  <path fill-rule="evenodd" clip-rule="evenodd" d="M102.732 3.62857C102.761 3.61887 102.791 3.61531 102.821 3.61812L138.552 6.97127C138.65 6.98043 138.728 7.05513 138.743 7.15215C138.757 7.24916 138.703 7.34336 138.612 7.38025L93.6661 25.6265C93.6328 25.64 93.5966 25.6448 93.5609 25.6406L53.4581 20.8588C53.3595 20.847 53.2821 20.7686 53.2717 20.6698C53.2613 20.571 53.3206 20.4782 53.4146 20.4461L102.732 3.62857ZM102.826 4.04605L54.4373 20.547L93.5568 25.2116L137.645 7.31357L102.826 4.04605Z" fill="#6E7E92"/>
  <path d="M138.532 49.8596L102.79 44.9678L53.4253 69.5904L63.4567 71.2291L67.5698 69.1504L83.65 71.9864V74.5566L93.5511 76.1451L138.532 49.8596Z" fill="#E0E4EC"/>
  <path fill-rule="evenodd" clip-rule="evenodd" d="M102.695 44.7773C102.734 44.7582 102.777 44.751 102.819 44.7568L138.561 49.6487C138.651 49.661 138.723 49.7289 138.741 49.8179C138.758 49.9069 138.718 49.9974 138.639 50.0432L93.6588 76.3287C93.6163 76.3536 93.5664 76.3629 93.5178 76.3551L83.6167 74.7665C83.5135 74.75 83.4376 74.6609 83.4376 74.5564V72.1648L67.603 69.3721L63.5531 71.4189C63.5129 71.4392 63.4673 71.4462 63.4228 71.439L53.3914 69.8003C53.3003 69.7854 53.2291 69.7135 53.2153 69.6222C53.2015 69.5309 53.2481 69.4411 53.3307 69.3999L102.695 44.7773ZM102.827 45.1874L54.1103 69.4866L63.423 71.0078L67.4742 68.9604C67.5153 68.9397 67.5619 68.9328 67.6071 68.9408L83.6873 71.7768C83.789 71.7947 83.8632 71.8831 83.8632 71.9863V74.3751L93.5099 75.9228L137.893 49.9867L102.827 45.1874Z" fill="#6E7E92"/>
  <path d="M138.532 49.8812V7.18262L93.5859 25.4289L93.5859 76.1722L138.532 49.8812Z" fill="#E0E4EC"/>
  <path fill-rule="evenodd" clip-rule="evenodd" d="M138.651 7.006C138.709 7.04554 138.745 7.1117 138.745 7.18249V49.8811C138.745 49.9567 138.705 50.0266 138.639 50.0647L93.6932 76.3557C93.6274 76.3942 93.5461 76.3946 93.48 76.3566C93.4138 76.3187 93.3731 76.2483 93.3731 76.1721L93.373 25.4288C93.373 25.3422 93.4255 25.2643 93.5058 25.2317L138.452 6.98535C138.517 6.95872 138.592 6.96646 138.651 7.006ZM93.7986 25.5721L93.7986 75.8011L138.319 49.7591V7.4985L93.7986 25.5721Z" fill="#6E7E92"/>
  <path d="M136.619 48.9681V10.6611L96.0073 27.5753V72.2741L136.619 48.9681Z" fill="#E0E4EC"/>
  <path fill-rule="evenodd" clip-rule="evenodd" d="M136.737 10.484C136.796 10.5234 136.831 10.5899 136.831 10.661V48.968C136.831 49.0442 136.791 49.1146 136.725 49.1525L96.1131 72.4585C96.0473 72.4963 95.9663 72.4961 95.9006 72.4581C95.8349 72.42 95.7944 72.3499 95.7944 72.2739V27.5752C95.7944 27.4893 95.8461 27.4118 95.9254 27.3788L136.537 10.4646C136.603 10.4372 136.678 10.4445 136.737 10.484ZM96.22 27.7171V71.9065L136.406 48.8448V10.9801L96.22 27.7171Z" fill="#6E7E92"/>
  <path d="M137.436 48.9712V10.0234L135.302 10.9072L133.168 11.791L130.456 12.9142L127.344 14.203L123.564 15.7681L119.696 17.3699L115.828 18.9718L111.338 20.8315L106.536 22.82L101.567 24.8776L95.9095 27.2206V72.667L101.567 69.4386L106.536 66.6035L111.338 63.8635L115.828 61.3011L119.696 59.0939L123.564 56.8867L127.344 54.7302L130.456 52.9543L133.168 51.4067L135.302 50.189L137.436 48.9712Z" fill="#E0E4EC"/>
  <path fill-rule="evenodd" clip-rule="evenodd" d="M137.563 9.83432C137.627 9.87648 137.665 9.94743 137.665 10.0234V48.9712C137.665 49.0526 137.621 49.1278 137.55 49.1683L96.0232 72.8641C95.9525 72.9045 95.8655 72.9043 95.7949 72.8636C95.7244 72.823 95.6809 72.7481 95.6809 72.667V27.2206C95.6809 27.1288 95.7364 27.046 95.8216 27.0107L137.348 9.81361C137.419 9.7844 137.499 9.79217 137.563 9.83432ZM135.531 11.0587V49.7965L137.208 48.8396V10.3643L135.531 11.0587ZM135.074 50.0573V11.2481L133.397 11.9425V51.0142L135.074 50.0573ZM132.939 51.2751V12.1318L130.684 13.0657V52.5618L132.939 51.2751ZM130.227 52.8227V13.255L127.572 14.3545V54.3377L130.227 52.8227ZM127.115 54.5986V14.5439L123.793 15.9196V56.4942L127.115 54.5986ZM123.336 56.7551V16.1089L119.925 17.5215V58.7014L123.336 56.7551ZM119.468 58.9623V17.7108L116.057 19.1233V60.9086L119.468 58.9623ZM115.6 61.1695V19.3127L111.566 20.983V63.471L115.6 61.1695ZM111.109 63.7319V21.1723L106.764 22.9715V66.211L111.109 63.7319ZM106.307 66.4718V23.1608L101.796 25.0291V69.0461L106.307 66.4718ZM101.339 69.3069V25.2184L96.1381 27.3721V72.2745L101.339 69.3069Z" fill="#6E7E92"/>
  <path d="M53.5854 69.6119L63.6111 71.252L67.6099 69.1557L83.6625 71.9617V74.5322L93.6883 76.1723V25.5113L53.5854 20.7295L53.5854 69.6119Z" fill="#E0E4EC"/>
  <path fill-rule="evenodd" clip-rule="evenodd" d="M53.4441 20.5703C53.4895 20.5299 53.5501 20.5109 53.6105 20.5181L93.7133 25.2999C93.8203 25.3127 93.9009 25.4034 93.9009 25.5112V76.1722C93.9009 76.2347 93.8735 76.2939 93.8259 76.3344C93.7783 76.3748 93.7154 76.3923 93.6538 76.3822L83.6281 74.7421C83.5252 74.7253 83.4497 74.6364 83.4497 74.5321V72.1404L67.6444 69.3777L63.7098 71.4403C63.6689 71.4618 63.6222 71.4693 63.5767 71.4619L53.551 69.8218C53.4481 69.8049 53.3726 69.716 53.3726 69.6118V20.7294C53.3726 20.6686 53.3986 20.6106 53.4441 20.5703ZM53.7981 20.969V69.431L63.5752 71.0304L67.511 68.9672C67.5526 68.9454 67.6002 68.9379 67.6464 68.946L83.6991 71.752C83.8009 71.7698 83.8752 71.8582 83.8752 71.9616V74.3513L93.4754 75.9218V25.7001L53.7981 20.969Z" fill="#6E7E92"/>
  <path d="M53.4532 69.5196L63.614 71.2752V68.5415L53.4531 66.8369L53.4532 69.5196Z" fill="#E0E4EC"/>
  <path fill-rule="evenodd" clip-rule="evenodd" d="M53.3156 66.6744C53.3633 66.6339 53.4265 66.6166 53.4882 66.627L63.6491 68.3316C63.7516 68.3488 63.8266 68.4375 63.8266 68.5414V71.2751C63.8266 71.3378 63.7989 71.3974 63.7509 71.4378C63.7029 71.4782 63.6395 71.4954 63.5776 71.4847L53.4168 69.7292C53.3148 69.7115 53.2403 69.623 53.2403 69.5195L53.2402 66.8368C53.2402 66.7742 53.2678 66.7148 53.3156 66.6744ZM53.6658 67.0882L53.6658 69.3403L63.4011 71.0224V68.7215L53.6658 67.0882Z" fill="#6E7E92"/>
  <path d="M55.9175 59.0558L91.0504 64.578V49.7509L55.9175 44.707L55.9175 59.0558Z" fill="#E0E4EC"/>
  <path fill-rule="evenodd" clip-rule="evenodd" d="M55.778 44.5461C55.8246 44.5057 55.8865 44.4875 55.9476 44.4963L91.0805 49.5401C91.1852 49.5552 91.263 49.6449 91.263 49.7507V64.5778C91.263 64.64 91.2358 64.6991 91.1885 64.7395C91.1413 64.78 91.0787 64.7977 91.0172 64.788L55.8844 59.2659C55.7809 59.2496 55.7046 59.1605 55.7046 59.0557L55.7046 44.7069C55.7046 44.6452 55.7314 44.5865 55.778 44.5461ZM56.1301 44.9524L56.1302 58.8738L90.8375 64.329V49.9351L56.1301 44.9524Z" fill="#6E7E92"/>
  <path fill-rule="evenodd" clip-rule="evenodd" d="M55.4965 53.5537C55.5314 53.3213 55.7482 53.1612 55.9806 53.1962L91.1134 58.4792C91.3458 58.5141 91.5059 58.7308 91.471 58.9632C91.436 59.1957 91.2193 59.3557 90.9869 59.3208L55.854 54.0378C55.6216 54.0029 55.4615 53.7861 55.4965 53.5537Z" fill="#6E7E92"/>
  <path fill-rule="evenodd" clip-rule="evenodd" d="M93.5566 28.8008L53.4604 24.0662L53.5104 23.6436L93.6065 28.3782L93.5566 28.8008Z" fill="#6E7E92"/>
  <path fill-rule="evenodd" clip-rule="evenodd" d="M93.5509 73.8804L53.459 67.0063L53.5309 66.5869L93.6228 73.4609L93.5509 73.8804Z" fill="#6E7E92"/>
  <path d="M80.9193 14.9229L104.356 17.3143L92.181 22.0973L67.9619 19.3145L80.9193 14.9229Z" fill="#E0E4EC"/>
  <path fill-rule="evenodd" clip-rule="evenodd" d="M80.8509 14.7212C80.8798 14.7114 80.9105 14.708 80.9408 14.7111L104.377 17.1025C104.475 17.1125 104.553 17.188 104.566 17.2853C104.58 17.3826 104.525 17.4763 104.433 17.5122L92.2586 22.2952C92.2262 22.3079 92.1912 22.3125 92.1566 22.3085L67.9375 19.5257C67.8386 19.5143 67.7608 19.4359 67.7502 19.3369C67.7397 19.2379 67.7992 19.1448 67.8935 19.1128L80.8509 14.7212ZM80.9437 15.1391L68.9287 19.2113L92.1524 21.8797L103.462 17.4368L80.9437 15.1391Z" fill="#6E7E92"/>
  <path d="M99.7469 8.27051L122.14 10.5315L110.052 15.2275L86.9634 12.7926L99.7469 8.27051Z" fill="#E0E4EC"/>
  <path fill-rule="evenodd" clip-rule="evenodd" d="M99.6758 8.0698C99.7054 8.05933 99.7369 8.05554 99.7681 8.05869L122.161 10.3197C122.259 10.3296 122.337 10.4053 122.35 10.5028C122.364 10.6003 122.308 10.6941 122.217 10.7297L110.129 15.4257C110.097 15.438 110.063 15.4425 110.03 15.439L86.9409 13.004C86.8421 12.9936 86.7636 12.9161 86.752 12.8174C86.7403 12.7186 86.7986 12.625 86.8923 12.5918L99.6758 8.0698ZM99.7728 8.48686L87.9206 12.6795L110.023 15.0104L121.236 10.6541L99.7728 8.48686Z" fill="#6E7E92"/>
</svg>
