<svg viewBox="0 0 192 80" fill="none" xmlns="http://www.w3.org/2000/svg">
  <path d="M144 49.7V47.4831L107.987 42.5625L59.725 66.1109L52.5714 69.6014L52.5714 72.2809L59.725 73.4502L63.7917 71.3553L82.1563 74.4921V77.3718L93.3134 79.1517L144 49.7Z" fill="#E0E4EC"/>
  <path fill-rule="evenodd" clip-rule="evenodd" d="M107.886 42.3586C107.927 42.3386 107.973 42.3313 108.018 42.3374L144.031 47.258C144.144 47.2735 144.229 47.3696 144.229 47.4832V49.7001C144.229 49.7809 144.186 49.8556 144.115 49.8963L93.4288 79.348C93.3831 79.3746 93.3295 79.3845 93.2773 79.3762L82.1202 77.5963C82.0093 77.5786 81.9278 77.4835 81.9278 77.3719V74.6837L63.8288 71.5923L59.8302 73.6521C59.7865 73.6746 59.7366 73.6825 59.688 73.6745L52.5344 72.5053C52.4239 72.4872 52.3429 72.3923 52.3429 72.281V69.6015C52.3429 69.5148 52.3925 69.4356 52.4708 69.3974L107.886 42.3586ZM108.025 42.7972L59.9536 66.2527V73.0765L63.6867 71.1536C63.7309 71.1308 63.7814 71.123 63.8305 71.1314L82.1951 74.2682C82.3048 74.2869 82.3849 74.3815 82.3849 74.4922V77.1782L93.2688 78.9145L143.771 49.5697V47.6814L108.025 42.7972ZM59.4965 73.1826V66.4757L52.8 69.7431V72.088L59.4965 73.1826Z" fill="#6E7E92"/>
  <path d="M107.938 42.5625L144 46.0702V47.4832L93.3523 76.3733L52.5714 69.5527V68.1885L93.3523 49.3134L107.938 42.5625Z" fill="#E0E4EC"/>
  <path fill-rule="evenodd" clip-rule="evenodd" d="M107.842 42.3566C107.879 42.3394 107.92 42.3325 107.96 42.3364L144.022 45.8442C144.139 45.8555 144.229 45.9534 144.229 46.0703V47.4833C144.229 47.5647 144.185 47.6399 144.114 47.6804L93.4661 76.5705C93.4202 76.5967 93.3666 76.6063 93.3144 76.5975L52.5336 69.7769C52.4235 69.7585 52.3429 69.6637 52.3429 69.5528V68.1886C52.3429 68.1003 52.3944 68.0199 52.475 67.9826L107.842 42.3566ZM107.978 42.7948L93.5809 49.4584V75.981L143.771 47.3516V46.2765L107.978 42.7948ZM93.1238 76.1047V49.67L52.8 68.3335V69.3605L93.1238 76.1047Z" fill="#6E7E92"/>
  <path d="M107.938 41.1985L144 46.1191L93.3523 75.0093L52.5714 68.1886L107.938 41.1985Z" fill="#E0E4EC"/>
  <path fill-rule="evenodd" clip-rule="evenodd" d="M107.838 40.9944C107.878 40.9745 107.924 40.9672 107.969 40.9733L144.031 45.894C144.128 45.9072 144.206 45.9802 144.224 46.0757C144.243 46.1712 144.199 46.2679 144.114 46.3163L93.4661 75.2064C93.4202 75.2326 93.3666 75.2421 93.3144 75.2334L52.5336 68.4128C52.4357 68.3964 52.3596 68.3191 52.3453 68.2214C52.331 68.1237 52.3817 68.028 52.4709 67.9846L107.838 40.9944ZM107.976 41.4331L53.3101 68.0817L93.3096 74.7717L143.305 46.2537L107.976 41.4331Z" fill="#6E7E92"/>
  <path d="M107.938 41.1985L112.446 41.8136L116.954 42.4287L121.461 43.0437L125.969 43.6588L130.477 44.2739L134.985 44.889L139.492 45.5041L144 46.1191L93.3523 75.0093L88.2547 74.1567L83.1571 73.3041L78.0595 72.4515L72.9619 71.599L67.8642 70.7464L62.7666 69.8938L57.669 69.0412L52.5714 68.1886L107.938 41.1985Z" fill="#E0E4EC"/>
  <path fill-rule="evenodd" clip-rule="evenodd" d="M107.838 40.9944C107.878 40.9745 107.924 40.9672 107.969 40.9733L144.031 45.894C144.128 45.9072 144.206 45.9802 144.224 46.0757C144.243 46.1712 144.199 46.2679 144.114 46.3163L93.4661 75.2064C93.4202 75.2326 93.3666 75.2421 93.3144 75.2334L52.5336 68.4128C52.4357 68.3964 52.3596 68.3191 52.3453 68.2214C52.331 68.1237 52.3817 68.028 52.4709 67.9846L107.838 40.9944ZM107.976 41.4331L53.3101 68.0817L57.6335 68.8048L111.683 41.9388L107.976 41.4331ZM112.485 42.0483L58.3985 68.9327L62.7302 69.6572L116.201 42.5553L112.485 42.0483ZM116.994 42.6635L63.487 69.7838L67.8268 70.5096L120.718 43.1717L116.994 42.6635ZM121.502 43.2787L68.5756 70.6349L72.9234 71.362L125.236 43.7881L121.502 43.2787ZM126.011 43.8939L73.6643 71.486L78.02 72.2145L129.753 44.4045L126.011 43.8939ZM130.52 44.5091L78.7531 72.3371L83.1165 73.0669L134.271 45.0209L130.52 44.5091ZM135.029 45.1244L83.842 73.1882L88.2131 73.9193L138.788 45.6373L135.029 45.1244ZM139.537 45.7396L88.9309 74.0393L93.3096 74.7717L143.305 46.2537L139.537 45.7396Z" fill="#6E7E92"/>
  <path d="M107.938 70.186L101.275 74.0348V72.3296L107.938 68.5295V70.186Z" fill="#E0E4EC"/>
  <path fill-rule="evenodd" clip-rule="evenodd" d="M108.053 68.3329C108.123 68.3735 108.167 68.4484 108.167 68.5295V70.186C108.167 70.2669 108.123 70.3418 108.053 70.3825L101.389 74.2313C101.319 74.2721 101.231 74.2723 101.161 74.2317C101.09 74.1912 101.046 74.116 101.046 74.0347V72.3296C101.046 72.2482 101.09 72.1729 101.161 72.1324L107.824 68.3324C107.895 68.292 107.982 68.2922 108.053 68.3329ZM101.503 72.4612V73.6399L107.71 70.0551V68.9219L101.503 72.4612Z" fill="#6E7E92"/>
  <path d="M138.218 51.3319V52.5986L133.123 55.5418V54.2378L138.218 51.3319Z" fill="#E0E4EC"/>
  <path fill-rule="evenodd" clip-rule="evenodd" d="M138.333 51.1352C138.403 51.1759 138.447 51.2508 138.447 51.3319V52.5986C138.447 52.6796 138.404 52.7544 138.333 52.7951L133.237 55.7383C133.167 55.7791 133.079 55.7793 133.009 55.7387C132.938 55.6982 132.894 55.6231 132.894 55.5418V54.2378C132.894 54.1564 132.938 54.0812 133.009 54.0407L138.105 51.1347C138.175 51.0944 138.262 51.0946 138.333 51.1352ZM133.351 54.3695V55.1469L137.99 52.4678V51.7242L133.351 54.3695Z" fill="#6E7E92"/>
  <path d="M56.0012 22.5391L96.4728 27.4596V74.5706L93.337 76.3245L90.9361 29.7981L52.5714 23.7083L56.0012 22.5391Z" fill="#E0E4EC"/>
  <path fill-rule="evenodd" clip-rule="evenodd" d="M55.9271 22.3241C55.9599 22.3129 55.9947 22.3093 56.029 22.3134L96.5006 27.234C96.6153 27.248 96.7014 27.3448 96.7014 27.4596V74.5706C96.7014 74.6527 96.6569 74.7284 96.5849 74.7687L93.4491 76.5226C93.3802 76.5611 93.2961 76.5615 93.2268 76.5235C93.1575 76.4856 93.1128 76.4147 93.1088 76.3361L90.7174 29.9935L52.5354 23.9327C52.4318 23.9163 52.3528 23.8318 52.3437 23.7278C52.3347 23.6238 52.3981 23.5271 52.4973 23.4933L55.9271 22.3241ZM91.1727 29.9452L93.5464 75.9466L96.2443 74.4377V27.8031L91.1727 29.9452ZM95.598 27.5822L56.0257 22.771L53.513 23.6276L90.9073 29.5634L95.598 27.5822Z" fill="#6E7E92"/>
  <path d="M57.6671 70.3321L59.529 69.1629V64.632L57.6671 64.291V70.3321Z" fill="#E0E4EC"/>
  <path fill-rule="evenodd" clip-rule="evenodd" d="M57.5208 64.1165C57.573 64.0733 57.6417 64.0554 57.7085 64.0676L59.5704 64.4086C59.6788 64.4285 59.7575 64.5225 59.7575 64.6321V69.163C59.7575 69.241 59.7173 69.3135 59.651 69.3551L57.7891 70.5244C57.7187 70.5686 57.6297 70.5713 57.5567 70.5313C57.4838 70.4913 57.4385 70.4151 57.4385 70.3322V64.2911C57.4385 64.2236 57.4686 64.1596 57.5208 64.1165ZM57.8956 64.5641V69.9199L59.3004 69.0377V64.8214L57.8956 64.5641Z" fill="#6E7E92"/>
  <path fill-rule="evenodd" clip-rule="evenodd" d="M57.7161 70.4133L52.5714 69.5525V23.7083L93.337 28.775V76.3732L88.2903 75.5288V69.2116L57.7161 64.3886V70.4133Z" fill="#E0E4EC"/>
  <path fill-rule="evenodd" clip-rule="evenodd" d="M52.4202 23.5378C52.4693 23.4947 52.5348 23.4746 52.5998 23.4827L93.3654 28.5495C93.4798 28.5637 93.5656 28.6604 93.5656 28.775V76.3731C93.5656 76.44 93.536 76.5035 93.4847 76.5467C93.4333 76.5899 93.3654 76.6084 93.2991 76.5973L88.2524 75.7529C88.1424 75.7345 88.0618 75.6397 88.0618 75.5288V69.4057L57.9447 64.6547V70.4133C57.9447 70.4802 57.9151 70.5436 57.8638 70.5868C57.8124 70.63 57.7446 70.6485 57.6782 70.6374L52.5335 69.7766C52.4235 69.7582 52.3429 69.6635 52.3429 69.5525V23.7082C52.3429 23.643 52.371 23.581 52.4202 23.5378ZM52.8 23.9657V69.3603L57.4876 70.1446V64.3885C57.4876 64.322 57.5169 64.2589 57.5677 64.2157C57.6186 64.1725 57.6859 64.1536 57.752 64.1641L88.3262 68.9871C88.4372 69.0047 88.5189 69.0998 88.5189 69.2116V75.3365L93.1085 76.1044V28.9756L52.8 23.9657Z" fill="#6E7E92"/>
  <path d="M54.3843 60.1989L54.1884 25.0728L58.788 25.6635L63.3876 26.2542L68.1097 26.8606L72.5868 27.4356L77.1864 28.0263L81.786 28.617L86.3856 29.2078L90.9852 29.7985V65.9965L86.4101 65.2718L81.835 64.5471L77.2599 63.8224L72.6848 63.0977L68.1097 62.373L63.5345 61.6483L58.9594 60.9236L54.3843 60.1989Z" fill="#E0E4EC"/>
  <path fill-rule="evenodd" clip-rule="evenodd" d="M54.0369 24.9025C54.0863 24.859 54.1522 24.8389 54.2176 24.8473L91.0144 29.573C91.1284 29.5877 91.2137 29.6842 91.2137 29.7984V65.9964C91.2137 66.063 91.1844 66.1261 91.1335 66.1693C91.0826 66.2125 91.0152 66.2313 90.9491 66.2209L54.3483 60.4234C54.2378 60.4059 54.1563 60.3114 54.1557 60.2002L53.9597 25.074C53.9594 25.0084 53.9875 24.9459 54.0369 24.9025ZM54.4183 25.3314L54.6118 60.0048L58.7295 60.6571L58.5603 25.8634L54.4183 25.3314ZM59.0177 25.9221L59.187 60.7295L63.3048 61.3818L63.1597 26.4541L59.0177 25.9221ZM63.6171 26.5128L63.7622 61.4542L67.881 62.1066V27.0604L63.6171 26.5128ZM68.3382 27.1191V62.1791L72.4554 62.8312L72.3587 27.6355L68.3382 27.1191ZM72.816 27.6942L72.9127 62.9037L77.0307 63.5559L76.9581 28.2262L72.816 27.6942ZM77.4154 28.2849L77.488 63.6284L81.606 64.2807L81.5576 28.8169L77.4154 28.2849ZM82.0148 28.8756L82.0632 64.3531L86.1812 65.0054L86.1571 29.4076L82.0148 28.8756ZM86.6142 29.4663L86.6384 65.0778L90.7565 65.7301V29.9983L86.6142 29.4663Z" fill="#6E7E92"/>
  <path d="M108.379 3.63635L144 7.19282V46.119L140.815 47.9216L137.826 41.978L112.397 39.9318V41.8318L108.918 43.537L106.566 41.978L106.436 39.6395L104.508 5.04919L108.379 3.63635Z" fill="#E0E4EC"/>
  <path fill-rule="evenodd" clip-rule="evenodd" d="M108.3 3.42298C108.333 3.41113 108.368 3.40676 108.402 3.41019L144.023 6.96666C144.14 6.97832 144.229 7.07607 144.229 7.19279V46.119C144.229 46.2007 144.184 46.2761 144.113 46.3165L140.928 48.1191C140.874 48.15 140.809 48.1572 140.749 48.1391C140.689 48.121 140.639 48.0791 140.611 48.0233L137.68 42.1941L112.625 40.1782V41.8318C112.625 41.9183 112.576 41.9974 112.498 42.0356L109.019 43.7408C108.946 43.7766 108.859 43.771 108.791 43.726L106.439 42.167C106.38 42.1274 106.342 42.062 106.338 41.9905L104.28 5.06175C104.275 4.96195 104.335 4.87026 104.43 4.83582L108.3 3.42298ZM112.168 40.1481L106.678 39.8789L106.788 41.8519L108.935 43.2751L112.168 41.6904V40.1481ZM106.653 39.4225L112.408 39.7048L112.415 39.7052L137.845 41.7514C137.925 41.7578 137.995 41.8052 138.031 41.8763L140.912 47.6054L143.771 45.9869V7.54776L139.098 9.68899L138.907 9.27616L143.142 7.33557L108.409 3.86769L104.746 5.20456L106.653 39.4225Z" fill="#6E7E92"/>
  <path fill-rule="evenodd" clip-rule="evenodd" d="M108.967 43.4763L104.508 42.8549V5.04919L140.864 8.7031V47.9216L136.259 47.2798V43.7805L108.967 40.2727V43.4763Z" fill="#E0E4EC"/>
  <path fill-rule="evenodd" clip-rule="evenodd" d="M104.355 4.8807C104.403 4.83761 104.467 4.81671 104.531 4.82317L140.887 8.47708C141.004 8.48881 141.093 8.58653 141.093 8.7032V47.9218C141.093 47.9875 141.064 48.0501 141.014 48.0933C140.964 48.1364 140.898 48.156 140.832 48.1468L136.227 47.5049C136.114 47.4892 136.03 47.3932 136.03 47.2799V43.9804L109.196 40.5314V43.4764C109.196 43.5422 109.167 43.6047 109.117 43.6479C109.067 43.6911 109.001 43.7106 108.935 43.7015L104.477 43.0801C104.364 43.0644 104.28 42.9683 104.28 42.855V5.0493C104.28 4.98504 104.307 4.92379 104.355 4.8807ZM104.737 5.3007V42.6574L108.738 43.215V40.2729C108.738 40.2075 108.767 40.1453 108.816 40.1022C108.866 40.059 108.931 40.0391 108.996 40.0475L136.288 43.5552C136.402 43.5698 136.487 43.6663 136.487 43.7806V47.0822L140.636 47.6604V8.90866L104.737 5.3007Z" fill="#6E7E92"/>
  <path d="M106.566 35.6445V6.16968L110.621 6.58988L114.675 7.01008L118.73 7.43027L122.784 7.85047L126.839 8.27067L130.893 8.69087L134.948 9.11107L139.002 9.53127V40.4189L134.948 39.8221L130.893 39.2253L126.839 38.6285L122.784 38.0317L118.73 37.4349L114.675 36.8381L110.621 36.2413L106.566 35.6445Z" fill="#E0E4EC"/>
  <path fill-rule="evenodd" clip-rule="evenodd" d="M106.413 6.00083C106.461 5.95773 106.526 5.93693 106.59 5.94361L139.026 9.3052C139.143 9.31727 139.231 9.41485 139.231 9.53125V40.4189C139.231 40.485 139.202 40.5478 139.152 40.591C139.101 40.6341 139.035 40.6534 138.969 40.6437L106.533 35.8693C106.421 35.8528 106.338 35.7571 106.338 35.6445V6.16966C106.338 6.10528 106.365 6.04392 106.413 6.00083ZM106.795 6.42185V35.4484L110.392 35.9779V6.79467L106.795 6.42185ZM110.849 6.84205V36.0452L114.447 36.5747V7.21487L110.849 6.84205ZM114.904 7.26225V36.642L118.501 37.1715V7.63507L114.904 7.26225ZM118.958 7.68245V37.2388L122.556 37.7683V8.05527L118.958 7.68245ZM123.013 8.10264V37.8356L126.61 38.3651V8.47547L123.013 8.10264ZM127.067 8.52284V38.4324L130.665 38.9619V8.89566L127.067 8.52284ZM131.122 8.94304V39.0292L134.719 39.5587V9.31586L131.122 8.94304ZM135.176 9.36324V39.626L138.774 40.1555V9.73606L135.176 9.36324Z" fill="#6E7E92"/>
</svg>
