<svg viewBox="0 0 192 80" fill="none" xmlns="http://www.w3.org/2000/svg">
  <path d="M137.712 48.1904V46.1476L104.716 41.6134L53.9427 66.5288L53.9427 68.9979L60.4971 70.0753L64.2232 68.1449L81.0493 71.0354V73.689L91.2718 75.3291L137.712 48.1904Z" fill="#E0E4EC"/>
  <path fill-rule="evenodd" clip-rule="evenodd" d="M104.615 41.4096C104.656 41.3895 104.702 41.382 104.748 41.3882L137.744 45.9224C137.857 45.9379 137.941 46.034 137.941 46.1475V48.1903C137.941 48.2709 137.898 48.3454 137.828 48.3863L91.3877 75.525C91.3418 75.5518 91.288 75.5619 91.2354 75.5534L81.013 73.9133C80.9022 73.8955 80.8208 73.8005 80.8208 73.6889V71.2268L64.2604 68.3819L60.6027 70.2769C60.5588 70.2996 60.5087 70.3076 60.4598 70.2995L53.9055 69.2221C53.7952 69.204 53.7142 69.1091 53.7142 68.9979V66.5288C53.7142 66.4423 53.7636 66.3633 53.8416 66.325L104.615 41.4096ZM104.755 41.8481L54.1714 66.6701V68.8051L60.4592 69.8387L64.1176 67.9434C64.162 67.9204 64.2128 67.9125 64.2621 67.921L81.0883 70.8114C81.1979 70.8303 81.278 70.9248 81.278 71.0354V73.4954L91.227 75.0916L137.484 48.0603V46.3456L104.755 41.8481Z" fill="#6E7E92"/>
  <path d="M104.671 41.6134L137.712 44.8457V46.1476L91.3074 72.7689L53.9427 66.4839V65.2269L91.3074 47.8342L104.671 41.6134Z" fill="#E0E4EC"/>
  <path fill-rule="evenodd" clip-rule="evenodd" d="M104.575 41.4075C104.612 41.3902 104.653 41.3832 104.694 41.3872L137.735 44.6195C137.852 44.6309 137.941 44.7287 137.941 44.8456V46.1476C137.941 46.2288 137.897 46.3039 137.827 46.3445L91.4217 72.9658C91.3757 72.9922 91.3218 73.0018 91.2694 72.993L53.9047 66.708C53.7947 66.6895 53.7142 66.5948 53.7142 66.4839V65.2269C53.7142 65.1387 53.7656 65.0585 53.8459 65.0211L104.575 41.4075ZM104.712 41.8457L91.5361 47.9787V72.3754L137.484 46.0163V45.0517L104.712 41.8457ZM91.0789 72.4999V48.1915L54.1714 65.3714V66.2918L91.0789 72.4999Z" fill="#6E7E92"/>
  <path d="M104.671 40.3563L137.712 44.8905L91.3074 71.5118L53.9427 65.2268L104.671 40.3563Z" fill="#E0E4EC"/>
  <path fill-rule="evenodd" clip-rule="evenodd" d="M104.57 40.1526C104.611 40.1325 104.657 40.1251 104.703 40.1313L137.744 44.6655C137.84 44.6788 137.918 44.7517 137.937 44.847C137.956 44.9423 137.911 45.039 137.827 45.0875L91.4217 71.7088C91.3757 71.7352 91.3218 71.7449 91.2694 71.736L53.9047 65.451C53.8069 65.4346 53.731 65.3574 53.7167 65.2598C53.7023 65.1623 53.7528 65.0667 53.8417 65.0231L104.57 40.1526ZM104.71 40.5911L54.6777 65.12L91.2645 71.2742L137.021 45.0251L104.71 40.5911Z" fill="#6E7E92"/>
  <path d="M104.671 67.0675L98.566 70.614V69.0428L104.671 65.5411V67.0675Z" fill="#E0E4EC"/>
  <path fill-rule="evenodd" clip-rule="evenodd" d="M104.786 65.3443C104.856 65.3849 104.9 65.4599 104.9 65.5411V67.0675C104.9 67.1482 104.857 67.223 104.787 67.2637L98.6813 70.8102C98.6106 70.8513 98.5232 70.8516 98.4522 70.8111C98.3812 70.7706 98.3374 70.6954 98.3374 70.614V69.0427C98.3374 68.9615 98.381 68.8865 98.4518 68.8459L104.557 65.3442C104.628 65.3037 104.715 65.3037 104.786 65.3443ZM98.7945 69.174V70.218L104.443 66.937V65.9346L98.7945 69.174Z" fill="#6E7E92"/>
  <path d="M104.671 40.3563L108.802 40.9231L112.932 41.4899L117.062 42.0567L121.192 42.6234L125.322 43.1902L129.452 43.757L133.582 44.3238L137.712 44.8905L91.3074 71.5118L86.6368 70.7262L81.9663 69.9406L77.2957 69.1549L72.6251 68.3693L67.9545 67.5837L63.2839 66.7981L58.6133 66.0125L53.9427 65.2268L104.671 40.3563Z" fill="#E0E4EC"/>
  <path fill-rule="evenodd" clip-rule="evenodd" d="M104.57 40.1526C104.611 40.1325 104.657 40.1251 104.703 40.1313L137.744 44.6655C137.84 44.6788 137.918 44.7517 137.937 44.847C137.956 44.9423 137.911 45.039 137.827 45.0875L91.4217 71.7088C91.3757 71.7352 91.3218 71.7449 91.2694 71.736L53.9047 65.451C53.8069 65.4346 53.731 65.3574 53.7167 65.2598C53.7023 65.1623 53.7528 65.0667 53.8417 65.0231L104.57 40.1526ZM104.71 40.5911L54.6777 65.12L58.5777 65.7761L108.042 41.0484L104.71 40.5911ZM108.841 41.158L59.3391 65.9041L63.2473 66.5615L112.182 41.6166L108.841 41.158ZM112.972 41.7249L64.0007 66.6882L67.9168 67.347L116.322 42.1847L112.972 41.7249ZM117.103 42.2918L68.6623 67.4724L72.5864 68.1324L120.462 42.7528L117.103 42.2918ZM121.234 42.8587L73.3241 68.2565L77.256 68.9179L124.602 43.3209L121.234 42.8587ZM125.365 43.4257L77.9859 69.0406L81.9255 69.7033L128.742 43.889L125.365 43.4257ZM129.496 43.9926L82.6478 69.8248L86.595 70.4888L132.881 44.4571L129.496 43.9926ZM133.628 44.5595L87.3098 70.609L91.2645 71.2742L137.021 45.0251L133.628 44.5595Z" fill="#6E7E92"/>
  <path d="M132.415 49.6941V50.8613L127.746 53.5733V52.3718L132.415 49.6941Z" fill="#E0E4EC"/>
  <path fill-rule="evenodd" clip-rule="evenodd" d="M132.53 49.4973C132.6 49.5379 132.644 49.6129 132.644 49.6941V50.8613C132.644 50.9421 132.601 51.0168 132.531 51.0575L127.862 53.7696C127.791 53.8106 127.704 53.811 127.633 53.7704C127.562 53.7299 127.518 53.6547 127.518 53.5733V52.3718C127.518 52.2906 127.561 52.2155 127.632 52.1749L132.301 49.4972C132.372 49.4566 132.459 49.4567 132.53 49.4973ZM127.975 52.5031V53.1773L132.187 50.7308V50.0875L127.975 52.5031Z" fill="#6E7E92"/>
  <path d="M64.2231 37.3939L99.9128 40.4017L100.227 42.2423L93.8523 69.3126L75.1096 66.2599L56.3669 63.2072L55.9629 61.4564L64.2231 37.3939Z" fill="#E0E4EC"/>
  <path fill-rule="evenodd" clip-rule="evenodd" d="M64.0069 37.3205C64.0408 37.2217 64.1379 37.1586 64.2425 37.1674L99.9321 40.1752C100.036 40.184 100.121 40.2615 100.138 40.3637L100.452 42.2043C100.458 42.2341 100.457 42.2647 100.45 42.2941L94.0749 69.3644C94.0475 69.4808 93.934 69.5561 93.8154 69.5368L56.33 63.4314C56.2384 63.4165 56.165 63.348 56.1442 63.258L55.7402 61.5072C55.7307 61.466 55.7329 61.4229 55.7466 61.3829L64.0069 37.3205ZM64.3818 37.6354L56.2003 61.4685L56.5554 63.0075L93.6785 69.0539L99.994 42.2351L99.7171 40.6133L64.3818 37.6354Z" fill="#6E7E92"/>
  <path d="M63.864 35.4186L99.8679 40.4017L93.4932 67.4719L56.0078 61.3665L63.864 35.4186Z" fill="#E0E4EC"/>
  <path fill-rule="evenodd" clip-rule="evenodd" d="M63.6451 35.3532C63.6776 35.2459 63.7839 35.1781 63.8955 35.1936L99.8993 40.1767C99.963 40.1855 100.02 40.2205 100.056 40.2732C100.093 40.3259 100.105 40.3914 100.09 40.4536L93.7156 67.5238C93.6882 67.6403 93.5748 67.7156 93.4561 67.6963L55.9708 61.5909C55.9059 61.5803 55.8487 61.5425 55.8138 61.487C55.779 61.4315 55.7699 61.3638 55.7889 61.3011L63.6451 35.3532ZM64.0264 35.6706L56.3017 61.1842L93.3192 67.2134L99.5882 40.5925L64.0264 35.6706Z" fill="#6E7E92"/>
  <path d="M65.1659 37.4838L73.3476 38.6061L81.5293 39.7284L89.7109 40.8507L97.8926 41.973L91.877 65.407L83.4709 64.0714L75.0647 62.7359L66.6586 61.4003L58.2524 60.0648L65.1659 37.4838Z" fill="#E0E4EC"/>
  <path fill-rule="evenodd" clip-rule="evenodd" d="M64.9472 37.4176C64.9799 37.3107 65.0858 37.2434 65.1971 37.2586L97.9238 41.7479C97.9883 41.7567 98.0459 41.7925 98.0823 41.8462C98.1186 41.8999 98.1301 41.9665 98.114 42.0292L92.0984 65.4632C92.0692 65.577 91.9576 65.6499 91.8409 65.6314L58.2163 60.2892C58.1511 60.2788 58.0935 60.2409 58.0585 60.1852C58.0235 60.1295 58.0145 60.0614 58.0337 59.9986L64.9472 37.4176ZM65.3277 37.7354L58.5474 59.8815L66.4956 61.1443L73.0539 38.7952L65.3277 37.7354ZM73.5117 38.858L66.9505 61.2165L74.8994 62.4794L81.2386 39.918L73.5117 38.858ZM81.6957 39.9806L75.3538 62.5516L83.3032 63.8146L89.4232 41.0407L81.6957 39.9806ZM89.8796 41.1033L83.757 63.8867L91.7071 65.1498L97.6078 42.1634L89.8796 41.1033Z" fill="#6E7E92"/>
  <path d="M53.9427 66.4841L53.9876 62.4886L57.0852 62.9369V67.0078L53.9427 66.4841Z" fill="#E0E4EC"/>
  <path fill-rule="evenodd" clip-rule="evenodd" d="M53.8391 62.3159C53.8892 62.2733 53.9554 62.2543 54.0206 62.2637L57.1182 62.712C57.2305 62.7282 57.3139 62.824 57.3139 62.9369V67.0078C57.3139 67.0746 57.2843 67.1381 57.2329 67.1813C57.1816 67.2244 57.1138 67.243 57.0475 67.2319L53.905 66.7082C53.7939 66.6897 53.713 66.5935 53.7142 66.4815L53.7591 62.4861C53.7599 62.4205 53.789 62.3585 53.8391 62.3159ZM54.2133 62.7509L54.1735 66.2921L56.8567 66.7392V63.1335L54.2133 62.7509Z" fill="#6E7E92"/>
  <path d="M59.2849 65.7213V61.905L57.0852 62.9375V66.9783L59.2849 65.7213Z" fill="#E0E4EC"/>
  <path fill-rule="evenodd" clip-rule="evenodd" d="M59.4074 61.713C59.4735 61.7547 59.5136 61.8272 59.5136 61.905V65.7212C59.5136 65.8026 59.4698 65.8777 59.3989 65.9183L57.1992 67.1753C57.1284 67.2157 57.0414 67.2156 56.9708 67.1749C56.9002 67.1343 56.8567 67.0593 56.8567 66.9782V62.9375C56.8567 62.8496 56.9077 62.7695 56.9877 62.732L59.1874 61.6995C59.2582 61.6662 59.3412 61.6714 59.4074 61.713ZM57.3138 63.0816V66.5855L59.0564 65.5897V62.2636L57.3138 63.0816Z" fill="#6E7E92"/>
  <path d="M59.285 61.905L56.1874 61.4111L53.9877 62.4886L57.175 62.9824L59.285 61.905Z" fill="#E0E4EC"/>
  <path fill-rule="evenodd" clip-rule="evenodd" d="M56.0865 61.2072C56.129 61.1864 56.1769 61.1792 56.2237 61.1867L59.3212 61.6805C59.4188 61.6961 59.4953 61.7722 59.5108 61.8692C59.5263 61.9663 59.4774 62.0622 59.3895 62.1071L57.2795 63.1845C57.2365 63.2065 57.1877 63.2143 57.1399 63.2069L53.9525 62.7131C53.854 62.6978 53.7768 62.6208 53.7618 62.5228C53.7467 62.4249 53.7973 62.3285 53.8867 62.2847L56.0865 61.2072ZM56.2232 61.647L54.7375 62.3747L57.1368 62.7464L58.5602 62.0196L56.2232 61.647Z" fill="#6E7E92"/>
  <path d="M57.8035 65.766L89.2732 70.9736L90.1711 66.9333L59.2849 61.9053L57.8035 65.766Z" fill="#E0E4EC"/>
  <path fill-rule="evenodd" clip-rule="evenodd" d="M59.0714 61.8243C59.1101 61.7234 59.2148 61.6635 59.3219 61.681L90.208 66.709C90.27 66.719 90.3251 66.7541 90.3603 66.8058C90.3956 66.8575 90.4079 66.9213 90.3943 66.9823L89.4964 71.0226C89.4702 71.1407 89.3557 71.2176 89.2357 71.1978L57.766 65.9902C57.6984 65.979 57.6394 65.9382 57.6052 65.8791C57.5711 65.82 57.5655 65.7487 57.59 65.685L59.0714 61.8243ZM59.4321 62.1595L58.1167 65.5875L89.0969 70.714L89.8958 67.1187L59.4321 62.1595Z" fill="#6E7E92"/>
  <path d="M88.1511 72.2304L88.1511 68.0105L91.2936 68.5043V72.7242L88.1511 72.2304Z" fill="#E0E4EC"/>
  <path fill-rule="evenodd" clip-rule="evenodd" d="M88.0026 67.8377C88.0534 67.7945 88.1207 67.7756 88.1867 67.786L91.3292 68.2798C91.4403 68.2973 91.5221 68.3925 91.5221 68.5043V72.7242C91.5221 72.7907 91.4928 72.8538 91.442 72.897C91.3912 72.9402 91.3239 72.9591 91.2579 72.9487L88.1154 72.4549C88.0043 72.4374 87.9225 72.3422 87.9225 72.2304V68.0105C87.9225 67.944 87.9518 67.8809 88.0026 67.8377ZM88.3796 68.2765V72.0362L91.065 72.4582V68.6985L88.3796 68.2765Z" fill="#6E7E92"/>
  <path d="M93.4932 71.5121V67.382L91.2935 68.5492V72.7691L93.4932 71.5121Z" fill="#E0E4EC"/>
  <path fill-rule="evenodd" clip-rule="evenodd" d="M93.6108 67.187C93.6797 67.2281 93.7218 67.3021 93.7218 67.3819V71.5121C93.7218 71.5934 93.6781 71.6686 93.6071 71.7091L91.4074 72.9661C91.3367 73.0065 91.2496 73.0064 91.179 72.9658C91.1084 72.9251 91.0649 72.8502 91.0649 72.769V68.5491C91.0649 68.4652 91.1114 68.3881 91.1859 68.3486L93.3856 67.1814C93.4565 67.1438 93.542 67.146 93.6108 67.187ZM91.5221 68.6855V72.3763L93.2647 71.3805V67.7608L91.5221 68.6855Z" fill="#6E7E92"/>
  <path d="M93.4933 67.3819L90.2611 66.8881L88.1511 68.0104L91.3834 68.5042L93.4933 67.3819Z" fill="#E0E4EC"/>
  <path fill-rule="evenodd" clip-rule="evenodd" d="M90.1532 66.6876C90.1968 66.6644 90.2468 66.6559 90.2957 66.6634L93.528 67.1572C93.6252 67.1721 93.702 67.2471 93.7186 67.3435C93.7352 67.44 93.6878 67.5361 93.6011 67.5823L91.4911 68.7046C91.4475 68.7278 91.3975 68.7363 91.3486 68.7288L88.1164 68.235C88.0191 68.2201 87.9424 68.1451 87.9258 68.0487C87.9092 67.9522 87.9565 67.8561 88.0433 67.81L90.1532 66.6876ZM90.3016 67.1242L88.8633 67.8892L91.3427 68.268L92.781 67.503L90.3016 67.1242Z" fill="#6E7E92"/>
  <path d="M131.832 45.5641V42.3318L135.468 42.7358V46.013L131.832 45.5641Z" fill="#E0E4EC"/>
  <path fill-rule="evenodd" clip-rule="evenodd" d="M131.679 42.1624C131.728 42.1193 131.792 42.0987 131.857 42.1059L135.493 42.5099C135.609 42.5228 135.696 42.62 135.696 42.7358V46.013C135.696 46.0781 135.668 46.1401 135.619 46.1833C135.57 46.2264 135.505 46.2465 135.44 46.2385L131.803 45.7896C131.689 45.7754 131.603 45.6787 131.603 45.564V42.3318C131.603 42.2671 131.631 42.2055 131.679 42.1624ZM132.06 42.5859V45.3632L135.239 45.7557V42.9391L132.06 42.5859Z" fill="#6E7E92"/>
  <path d="M137.668 44.756V41.6135L135.468 42.8256V46.013L137.668 44.756Z" fill="#E0E4EC"/>
  <path fill-rule="evenodd" clip-rule="evenodd" d="M137.784 41.4178C137.854 41.4587 137.896 41.5331 137.896 41.6136V44.7561C137.896 44.8375 137.853 44.9126 137.782 44.9532L135.582 46.2102C135.511 46.2506 135.424 46.2504 135.354 46.2098C135.283 46.1692 135.24 46.0942 135.24 46.0131V42.8257C135.24 42.7431 135.285 42.667 135.357 42.6269L137.557 41.4148C137.628 41.3758 137.714 41.377 137.784 41.4178ZM135.697 42.9596V45.6204L137.439 44.6246V41.9994L135.697 42.9596Z" fill="#6E7E92"/>
  <path d="M135.468 42.6912L137.668 41.5688L133.987 41.1648L131.832 42.332L135.468 42.6912Z" fill="#E0E4EC"/>
  <path fill-rule="evenodd" clip-rule="evenodd" d="M133.877 40.9652C133.918 40.943 133.965 40.9338 134.012 40.9389L137.693 41.3429C137.793 41.3539 137.874 41.429 137.892 41.5277C137.911 41.6263 137.862 41.7252 137.772 41.771L135.572 42.8933C135.533 42.9133 135.489 42.9216 135.445 42.9173L131.809 42.5581C131.709 42.5483 131.628 42.4749 131.608 42.3771C131.588 42.2794 131.634 42.1801 131.722 42.1324L133.877 40.9652ZM134.033 41.3985L132.592 42.1787L135.423 42.4583L136.887 41.7118L134.033 41.3985Z" fill="#6E7E92"/>
  <path d="M102.517 41.3895L102.517 38.2919L106.153 38.6959V41.8833L102.517 41.3895Z" fill="#E0E4EC"/>
  <path fill-rule="evenodd" clip-rule="evenodd" d="M102.364 38.1225C102.413 38.0793 102.477 38.0588 102.542 38.066L106.178 38.47C106.294 38.4829 106.382 38.5801 106.382 38.6959V41.8833C106.382 41.9489 106.353 42.0113 106.303 42.0545C106.254 42.0977 106.187 42.1173 106.122 42.1084L102.486 41.6146C102.372 41.5992 102.288 41.5031 102.288 41.3894V38.2918C102.288 38.2272 102.316 38.1656 102.364 38.1225ZM102.745 38.5459V41.1911L105.924 41.6228V38.8992L102.745 38.5459Z" fill="#6E7E92"/>
  <path d="M108.622 40.6262V37.6184L106.153 38.6509V41.8832L108.622 40.6262Z" fill="#E0E4EC"/>
  <path fill-rule="evenodd" clip-rule="evenodd" d="M108.749 37.4291C108.812 37.4712 108.851 37.5423 108.851 37.6184V40.6262C108.851 40.7115 108.803 40.7896 108.726 40.8285L106.257 42.0855C106.186 42.1216 106.102 42.1184 106.034 42.0771C105.966 42.0358 105.925 41.9623 105.925 41.8832V38.6509C105.925 38.5594 105.98 38.4769 106.065 38.4414L108.534 37.4089C108.604 37.3794 108.685 37.387 108.749 37.4291ZM106.382 38.8019V41.5115L108.394 40.4872V37.9605L106.382 38.8019Z" fill="#6E7E92"/>
  <path d="M106.153 38.6957L108.622 37.6183L104.896 37.2142L102.517 38.2917L106.153 38.6957Z" fill="#E0E4EC"/>
  <path fill-rule="evenodd" clip-rule="evenodd" d="M104.801 37.0075C104.839 36.9906 104.88 36.984 104.921 36.9884L108.647 37.3924C108.75 37.4036 108.832 37.4821 108.848 37.5839C108.864 37.6856 108.809 37.7851 108.714 37.8265L106.245 38.9039C106.208 38.92 106.168 38.9261 106.128 38.9217L102.491 38.5176C102.389 38.5063 102.307 38.4285 102.291 38.3275C102.275 38.2266 102.328 38.1273 102.422 38.0849L104.801 37.0075ZM104.934 37.447L103.365 38.1573L106.117 38.4631L107.747 37.7521L104.934 37.447Z" fill="#6E7E92"/>
  <path d="M105.48 5.02625L137.668 8.30338V41.5688L136.186 42.3769L132.505 41.9728L103.549 6.01388L105.48 5.02625Z" fill="#E0E4EC"/>
  <path fill-rule="evenodd" clip-rule="evenodd" d="M105.375 4.82413C105.414 4.80399 105.459 4.79565 105.503 4.80013L137.691 8.07727C137.808 8.08914 137.896 8.18681 137.896 8.30336V41.5688C137.896 41.6518 137.851 41.7281 137.778 41.7681L136.296 42.5761C136.255 42.5986 136.208 42.6079 136.161 42.6028L132.48 42.1987C132.42 42.1921 132.364 42.1619 132.327 42.1149L103.371 6.15591C103.328 6.10268 103.311 6.03312 103.326 5.96644C103.34 5.89975 103.384 5.84297 103.445 5.81177L105.375 4.82413ZM105.524 5.25919L103.902 6.08878L132.339 41.4034L135.959 9.35542C135.966 9.29222 136 9.23489 136.051 9.19734L137.052 8.46919L105.524 5.25919ZM137.439 8.75117L136.415 9.49613V41.993L137.439 41.4342V8.75117ZM135.958 42.1231V13.4409L132.758 41.7719L135.958 42.1231Z" fill="#6E7E92"/>
  <path d="M136.231 9.33597L103.549 6.01392L103.145 38.0673L106.871 38.4713V41.6587L131.832 45.0256V42.3321L132.595 41.928L136.231 42.3769V9.33597Z" fill="#E0E4EC"/>
  <path fill-rule="evenodd" clip-rule="evenodd" d="M103.397 5.84426C103.445 5.8018 103.509 5.78131 103.573 5.7878L136.254 9.10985C136.371 9.12171 136.46 9.21938 136.46 9.33595V42.3769C136.46 42.4421 136.432 42.5041 136.383 42.5472C136.333 42.5904 136.268 42.6105 136.203 42.6025L132.638 42.1624L132.06 42.4685V45.0256C132.06 45.0912 132.032 45.1536 131.982 45.1968C131.932 45.2399 131.866 45.2596 131.801 45.2508L106.841 41.8838C106.727 41.8686 106.643 41.7724 106.643 41.6586V38.6751L103.121 38.2932C103.003 38.2805 102.915 38.1814 102.917 38.0644L103.321 6.01105C103.322 5.94725 103.349 5.88673 103.397 5.84426ZM103.775 6.26527L103.376 37.8637L106.896 38.2453C107.012 38.2579 107.1 38.3553 107.1 38.4713V41.4601L131.603 44.7654V42.332C131.603 42.248 131.65 42.1709 131.724 42.1314L132.487 41.7274C132.529 41.7054 132.576 41.6967 132.623 41.7025L136.003 42.1197V9.54117L103.775 6.26527Z" fill="#6E7E92"/>
  <path d="M106.333 9.82971L113.033 10.5368L119.733 11.2438L126.433 11.9509L133.133 12.6579V37.708L126.433 36.8551L119.733 36.0021L113.033 35.1491L106.333 34.2962V9.82971Z" fill="#E0E4EC"/>
  <path fill-rule="evenodd" clip-rule="evenodd" d="M106.18 9.66072C106.228 9.61762 106.292 9.59689 106.357 9.60369L133.158 12.4319C133.274 12.4442 133.362 12.5417 133.362 12.6579V37.708C133.362 37.7733 133.334 37.8355 133.285 37.8786C133.235 37.9218 133.17 37.9417 133.104 37.9334L106.304 34.5216C106.189 34.5071 106.104 34.4105 106.104 34.2962V9.82969C106.104 9.76524 106.132 9.70382 106.18 9.66072ZM106.561 10.0824V34.0961L112.804 34.8909V10.7412L106.561 10.0824ZM113.261 10.7894V34.9491L119.504 35.7439V11.4482L113.261 10.7894ZM119.962 11.4965V35.8021L126.205 36.5968V12.1553L119.962 11.4965ZM126.662 12.2035V36.655L132.905 37.4498V12.8624L126.662 12.2035Z" fill="#6E7E92"/>
  <path fill-rule="evenodd" clip-rule="evenodd" d="M60.69 67.6402L60.69 68.828L60.69 70.0157L60.225 70.0157L60.225 67.6402L60.69 67.6402Z" fill="#6E7E92"/>
  <path fill-rule="evenodd" clip-rule="evenodd" d="M91.5261 72.769L91.5261 75.3291L91.061 75.3291L91.061 72.769L91.5261 72.769Z" fill="#6E7E92"/>
</svg>
