<svg viewBox="0 0 192 80" fill="none" xmlns="http://www.w3.org/2000/svg">
  <path d="M102.332 5.24988L136.643 8.47269L136.643 49.4364L102.332 44.7474L102.332 5.24988Z" fill="#E0E4EC"/>
  <path fill-rule="evenodd" clip-rule="evenodd" d="M102.194 5.09936C102.236 5.06057 102.293 5.04153 102.351 5.04692L136.662 8.26973C136.767 8.2796 136.847 8.36788 136.847 8.47351L136.847 49.4372C136.847 49.4963 136.822 49.5526 136.777 49.5914C136.733 49.6303 136.674 49.648 136.615 49.64L102.304 44.951C102.202 44.9372 102.127 44.8506 102.127 44.7482L102.127 5.25069C102.127 5.19308 102.151 5.13814 102.194 5.09936ZM102.536 5.47547L102.536 44.5696L136.438 49.2027L136.438 8.65987L102.536 5.47547Z" fill="#6E7E92"/>
  <path d="M55.0721 68.4248L64.6994 70.0012L68.5393 67.9864L83.954 70.6833V73.1539L93.5813 74.7303V26.0384L55.0721 21.4425L55.0721 68.4248Z" fill="#E0E4EC"/>
  <path fill-rule="evenodd" clip-rule="evenodd" d="M54.9362 21.2903C54.9799 21.2514 55.0381 21.2332 55.0961 21.2401L93.6053 25.836C93.7081 25.8483 93.7856 25.9356 93.7856 26.0392V74.7311C93.7856 74.7912 93.7592 74.8482 93.7135 74.8871C93.6678 74.926 93.6073 74.9428 93.5481 74.9331L83.9208 73.3567C83.8219 73.3405 83.7493 73.255 83.7493 73.1548V70.8561L68.5724 68.2008L64.7942 70.1833C64.7549 70.2039 64.71 70.2112 64.6662 70.204L55.0389 68.6277C54.94 68.6115 54.8674 68.526 54.8674 68.4257V21.4433C54.8674 21.3848 54.8924 21.3291 54.9362 21.2903ZM55.2764 21.6738V68.2518L64.6648 69.789L68.4441 67.806C68.4841 67.785 68.5298 67.7779 68.5743 67.7856L83.989 70.4825C84.0869 70.4996 84.1583 70.5847 84.1583 70.6841V72.9808L93.3766 74.4902V26.221L55.2764 21.6738Z" fill="#6E7E92"/>
  <path d="M102.322 5.20483V44.7393L54.974 68.345V21.3639L102.322 5.20483Z" fill="#E0E4EC"/>
  <path fill-rule="evenodd" clip-rule="evenodd" d="M102.441 5.03823C102.494 5.07665 102.526 5.13864 102.526 5.20467V44.7391C102.526 44.8167 102.482 44.8877 102.413 44.9223L55.0652 68.5281C55.0018 68.5597 54.9266 68.5562 54.8664 68.5189C54.8062 68.4816 54.7695 68.4157 54.7695 68.3449V21.3638C54.7695 21.2762 54.8252 21.1983 54.908 21.1701L102.256 5.01095C102.318 4.98964 102.387 4.9998 102.441 5.03823ZM55.1785 21.5102V68.0143L102.117 44.6124V5.4907L55.1785 21.5102Z" fill="#6E7E92"/>
  <path d="M136.643 49.4407L102.322 44.739L54.9186 68.4046L64.5514 69.9796L68.501 67.9817L83.9422 70.7075V73.1777L93.4498 74.7045L136.643 49.4407Z" fill="#E0E4EC"/>
  <path fill-rule="evenodd" clip-rule="evenodd" d="M102.231 44.5561C102.268 44.5377 102.309 44.5309 102.35 44.5364L136.671 49.2381C136.758 49.2499 136.827 49.3153 136.844 49.4009C136.861 49.4866 136.822 49.5736 136.747 49.6176L93.5536 74.8814C93.5128 74.9053 93.4648 74.9143 93.4181 74.9068L83.9104 73.38C83.8113 73.364 83.7383 73.2784 83.7383 73.1779V70.8794L68.5332 68.1953L64.6443 70.1624C64.6056 70.182 64.5618 70.1887 64.5191 70.1817L54.8863 68.6068C54.7987 68.5924 54.7303 68.5232 54.717 68.4354C54.7037 68.3476 54.7485 68.2613 54.8279 68.2216L102.231 44.5561ZM102.357 44.9506L55.5772 68.305L64.5193 69.767L68.4094 67.7992C68.4489 67.7793 68.4937 67.7726 68.5372 67.7803L83.9784 70.5061C84.0761 70.5233 84.1473 70.6083 84.1473 70.7077V73.0034L93.4105 74.491L136.029 49.5633L102.357 44.9506Z" fill="#6E7E92"/>
  <path d="M54.945 68.3368L64.702 70.0242V67.3968L54.9449 65.7584L54.945 68.3368Z" fill="#E0E4EC"/>
  <path fill-rule="evenodd" clip-rule="evenodd" d="M54.8128 65.602C54.8587 65.5631 54.9194 65.5465 54.9787 65.5564L64.7358 67.1948C64.8343 67.2113 64.9064 67.2967 64.9064 67.3966V70.024C64.9064 70.0844 64.8798 70.1417 64.8336 70.1806C64.7875 70.2195 64.7265 70.236 64.6671 70.2257L54.9101 68.5384C54.812 68.5214 54.7404 68.4363 54.7404 68.3367L54.7404 65.7583C54.7404 65.6981 54.7668 65.6409 54.8128 65.602ZM55.1493 66.0001L55.1494 68.1644L64.4974 69.7809V67.5698L55.1493 66.0001Z" fill="#6E7E92"/>
  <path d="M136.643 49.4612V8.42224L93.4828 25.9593L93.4828 74.7302L136.643 49.4612Z" fill="#E0E4EC"/>
  <path fill-rule="evenodd" clip-rule="evenodd" d="M136.757 8.25328C136.814 8.29132 136.848 8.35496 136.848 8.42306V49.462C136.848 49.5347 136.809 49.6019 136.746 49.6386L93.5864 74.9077C93.5232 74.9447 93.445 74.9451 93.3814 74.9086C93.3179 74.8721 93.2787 74.8044 93.2787 74.731L93.2787 25.9602C93.2787 25.8769 93.3291 25.8019 93.4063 25.7705L136.566 8.23342C136.629 8.2078 136.701 8.21525 136.757 8.25328ZM93.6877 26.098L93.6877 74.3742L136.439 49.3446V8.72704L93.6877 26.098Z" fill="#6E7E92"/>
  <path d="M134.636 48.3478V11.7775L132.632 12.6073L130.628 13.4371L128.081 14.4917L125.159 15.7019L121.611 17.1714L117.979 18.6755L114.347 20.1796L110.13 21.9258L105.621 23.7929L100.956 25.7249L95.6438 27.9249V70.5971L100.956 67.5658L105.621 64.9038L110.13 62.331L114.347 59.9251L117.979 57.8526L121.611 55.7801L125.159 53.7553L128.081 52.0878L130.628 50.6346L132.632 49.4912L134.636 48.3478Z" fill="#E0E4EC"/>
  <path fill-rule="evenodd" clip-rule="evenodd" d="M134.758 11.5956C134.819 11.6361 134.856 11.7044 134.856 11.7775V48.3478C134.856 48.4261 134.814 48.4984 134.745 48.5374L95.7534 70.7868C95.6853 70.8256 95.6017 70.8254 95.5338 70.7864C95.4659 70.7473 95.4241 70.6752 95.4241 70.5972V27.9249C95.4241 27.8366 95.4775 27.757 95.5594 27.723L134.551 11.5756C134.619 11.5475 134.697 11.555 134.758 11.5956ZM132.852 12.7531V49.1137L134.416 48.2212V12.1054L132.852 12.7531ZM132.412 49.3646V12.9352L130.848 13.5829V50.2571L132.412 49.3646ZM130.408 50.508V13.765L128.301 14.6375V51.7102L130.408 50.508ZM127.862 51.9612V14.8196L125.379 15.8477V53.3777L127.862 51.9612ZM124.939 53.6287V16.0298L121.831 17.3172V55.4026L124.939 53.6287ZM121.391 55.6535V17.4993L118.199 18.8213V57.475L121.391 55.6535ZM117.759 57.726V19.0034L114.567 20.3254V59.5475L117.759 57.726ZM114.127 59.7985V20.5075L110.35 22.0715V61.9535L114.127 59.7985ZM109.91 62.2044V22.2536L105.841 23.9387V64.5262L109.91 62.2044ZM105.402 64.7772V24.1208L101.176 25.8706V67.1883L105.402 64.7772ZM100.736 67.4392V26.0528L95.8638 28.0706V70.2196L100.736 67.4392Z" fill="#6E7E92"/>
  <path d="M102.322 5.21326L133.052 8.13864L131.048 9.09983L134.138 9.43416V11.9834L95.583 28.1281L93.4833 27.355L58.3139 23.2177V21.8461L55.0154 21.3864L102.322 5.21326Z" fill="#F5F6FF"/>
  <path fill-rule="evenodd" clip-rule="evenodd" d="M102.256 5.01941C102.283 5.01003 102.312 5.00659 102.341 5.00934L133.072 7.93472C133.163 7.94343 133.238 8.01211 133.254 8.10264C133.27 8.19317 133.223 8.28332 133.141 8.32305L131.784 8.97348L134.16 9.23052C134.264 9.24175 134.342 9.32948 134.342 9.434V11.9833C134.342 12.0658 134.293 12.1402 134.217 12.1721L95.6618 28.3168C95.6142 28.3367 95.5608 28.3379 95.5123 28.3201L93.4353 27.5553L58.2899 23.4208C58.1869 23.4087 58.1093 23.3214 58.1093 23.2176V22.0241L54.9871 21.589C54.8933 21.5759 54.8207 21.5001 54.8117 21.4058C54.8027 21.3114 54.8596 21.2232 54.9492 21.1926L102.256 5.01941ZM102.346 5.42102L55.8941 21.3021L58.342 21.6433C58.4431 21.6573 58.5183 21.7438 58.5183 21.846V23.0355L93.507 27.1516C93.523 27.1535 93.5387 27.1572 93.5538 27.1628L95.5781 27.9081L133.933 11.847V9.61774L131.026 9.30316C130.935 9.29333 130.862 9.22436 130.847 9.13421C130.831 9.04406 130.877 8.95462 130.96 8.9151L132.3 8.27243L102.346 5.42102Z" fill="#6E7E92"/>
  <path d="M55.0568 24.437V21.4698L58.3266 21.846V24.8131L55.0568 24.437Z" fill="#E0E4EC"/>
  <path fill-rule="evenodd" clip-rule="evenodd" d="M54.9208 21.3169C54.9643 21.2781 55.0223 21.2597 55.0803 21.2664L58.3501 21.6425C58.4533 21.6543 58.5312 21.7418 58.5312 21.8458V24.813C58.5312 24.8713 58.5063 24.9269 58.4628 24.9657C58.4193 25.0046 58.3613 25.023 58.3034 25.0163L55.0336 24.6402C54.9303 24.6283 54.8524 24.5409 54.8524 24.4369V21.4697C54.8524 21.4113 54.8773 21.3558 54.9208 21.3169ZM55.2614 21.6992V24.2544L58.1222 24.5834V22.0283L55.2614 21.6992Z" fill="#6E7E92"/>
  <path d="M136.685 11.0223L136.505 8.47302L134.096 9.43422V12.0253L136.685 11.0223Z" fill="#E0E4EC"/>
  <path fill-rule="evenodd" clip-rule="evenodd" d="M136.614 8.2995C136.669 8.33422 136.704 8.39327 136.709 8.45843L136.889 11.0077C136.895 11.0973 136.843 11.1806 136.759 11.213L134.17 12.216C134.107 12.2403 134.036 12.2321 133.981 12.1939C133.925 12.1558 133.892 12.0926 133.892 12.0251V9.43406C133.892 9.35028 133.943 9.27497 134.021 9.24394L136.429 8.28274C136.49 8.25855 136.558 8.26477 136.614 8.2995ZM134.301 9.57279V11.7264L136.47 10.8858L136.321 8.76672L134.301 9.57279Z" fill="#6E7E92"/>
  <path fill-rule="evenodd" clip-rule="evenodd" d="M81.6389 12.1104C81.7021 12.0167 81.8292 11.9921 81.9228 12.0553C83.9081 13.3973 89.449 15.7251 97.8598 15.493L97.8654 15.4929V15.4929C102.402 15.4929 105.14 15.7719 106.866 16.4195C107.735 16.7457 108.355 17.1678 108.818 17.6997C109.28 18.2298 109.575 18.8569 109.815 19.5753C110.232 20.8258 110.3 21.6291 110.292 22.1006C110.289 22.2137 110.196 22.3036 110.083 22.3014C109.97 22.2993 109.881 22.206 109.883 22.093C109.891 21.6738 109.831 20.917 109.427 19.7049C109.196 19.013 108.922 18.4422 108.51 17.9687C108.099 17.4969 107.54 17.1097 106.722 16.8028C105.074 16.1844 102.406 15.9024 97.8682 15.9023C89.3861 16.1357 83.7595 13.7908 81.6939 12.3946C81.6004 12.3313 81.5757 12.2041 81.6389 12.1104Z" fill="#6E7E92"/>
  <path fill-rule="evenodd" clip-rule="evenodd" d="M91.5151 8.79671C91.566 8.69583 91.689 8.65539 91.7898 8.70638C94.398 10.0259 99.4448 11.6418 106.519 11.4467L106.525 11.4465V11.4466C111.061 11.4466 113.8 11.7256 115.525 12.3731C116.394 12.6993 117.014 13.1215 117.477 13.6533C117.939 14.1835 118.235 14.8106 118.474 15.529C118.891 16.7794 118.96 17.5827 118.951 18.0543C118.949 18.1673 118.856 18.2572 118.743 18.2551C118.63 18.253 118.54 18.1596 118.542 18.0466C118.55 17.6274 118.491 16.8706 118.087 15.6586C117.856 14.9667 117.582 14.3958 117.169 13.9223C116.758 13.4505 116.199 13.0633 115.382 12.7564C113.734 12.138 111.065 11.856 106.528 11.8559C99.3889 12.0524 94.2756 10.4227 91.6053 9.07171C91.5045 9.02071 91.4641 8.89759 91.5151 8.79671Z" fill="#6E7E92"/>
  <path fill-rule="evenodd" clip-rule="evenodd" d="M98.4675 6.34017C98.5184 6.23929 98.6414 6.19884 98.7422 6.24984C101.35 7.56939 106.397 9.18529 113.472 8.99011L113.477 8.98996V8.99004C118.014 8.99004 120.752 9.26903 122.478 9.91661C123.347 10.2428 123.967 10.6649 124.43 11.1968C124.892 11.7269 125.187 12.354 125.427 13.0724C125.844 14.3229 125.912 15.1262 125.903 15.5977C125.901 15.7108 125.808 15.8007 125.695 15.7985C125.582 15.7964 125.492 15.7031 125.495 15.5901C125.502 15.1709 125.443 14.4141 125.039 13.202C124.808 12.5101 124.534 11.9393 124.122 11.4658C123.711 10.994 123.152 10.6068 122.334 10.2999C120.686 9.68149 118.018 9.3995 113.48 9.39938C106.341 9.59586 101.228 7.96611 98.5577 6.61516C98.4569 6.56417 98.4165 6.44105 98.4675 6.34017Z" fill="#6E7E92"/>
  <path d="M54.89 65.7877L93.5381 72.5419V28.9468L55.0945 24.444L54.89 65.7877Z" fill="#E0E4EC"/>
  <path fill-rule="evenodd" clip-rule="evenodd" d="M54.9588 24.2906C55.0024 24.252 55.0604 24.2338 55.1182 24.2405L93.5617 28.7433C93.6648 28.7554 93.7424 28.8428 93.7424 28.9466V72.5418C93.7424 72.6022 93.7157 72.6595 93.6695 72.6984C93.6233 72.7373 93.5623 72.7538 93.5028 72.7434L54.8547 65.9892C54.7565 65.972 54.6849 65.8864 54.6854 65.7866L54.8899 24.4428C54.8902 24.3845 54.9153 24.3292 54.9588 24.2906ZM55.2978 24.6737L55.0953 65.6157L93.3335 72.2983V29.1287L55.2978 24.6737Z" fill="#6E7E92"/>
  <path fill-rule="evenodd" clip-rule="evenodd" d="M70.2525 16.0064C70.3156 15.9127 70.4426 15.8878 70.5363 15.9509C72.5955 17.3381 78.3402 19.7429 87.0592 19.5032L87.0648 19.503V19.5031C91.767 19.5031 94.6037 19.7913 96.3907 20.4597C97.2905 20.7962 97.9317 21.2316 98.4109 21.7799C98.8887 22.3266 99.195 22.9735 99.4431 23.7152C99.8751 25.0062 99.9459 25.8353 99.9368 26.3216C99.9346 26.4346 99.8414 26.5245 99.7285 26.5224C99.6155 26.5203 99.5257 26.4269 99.5279 26.3139C99.536 25.8801 99.4744 25.0977 99.0553 23.8451C98.8161 23.1301 98.5314 22.5395 98.1031 22.0495C97.6763 21.5611 97.0961 21.1605 96.2475 20.8431C94.5381 20.2038 91.7709 19.9125 87.0676 19.9124C78.2776 20.1536 72.4474 17.7318 70.308 16.2905C70.2143 16.2274 70.1895 16.1002 70.2525 16.0064Z" fill="#6E7E92"/>
  <path d="M75.5764 69.2698L91.0777 71.9193V31.156L75.5764 29.2556L75.5764 69.2698Z" fill="#E0E4EC"/>
  <path fill-rule="evenodd" clip-rule="evenodd" d="M75.4408 29.1023C75.4847 29.0635 75.543 29.0453 75.6012 29.0524L91.1025 30.9528C91.205 30.9654 91.2821 31.0525 91.2821 31.156V71.9193C91.2821 71.9796 91.2555 72.0368 91.2095 72.0757C91.1634 72.1146 91.1026 72.1312 91.0432 72.121L75.5419 69.4715C75.4437 69.4547 75.3719 69.3695 75.3719 69.2698L75.3718 29.2556C75.3718 29.197 75.3969 29.1412 75.4408 29.1023ZM75.7808 29.4868L75.7808 69.0971L90.8731 71.6767V31.3371L75.7808 29.4868Z" fill="#6E7E92"/>
  <path fill-rule="evenodd" clip-rule="evenodd" d="M74.0527 69.1002L74.0527 26.8555L74.4621 26.8555L74.4621 69.1002L74.0527 69.1002Z" fill="#6E7E92"/>
  <path fill-rule="evenodd" clip-rule="evenodd" d="M93.4497 72.5282L54.951 65.9214L55.0202 65.5179L93.5189 72.1248L93.4497 72.5282Z" fill="#6E7E92"/>
  <path d="M57.5068 66.1608L72.9008 68.7747V28.8972L57.5067 27.0133L57.5068 66.1608Z" fill="#E0E4EC"/>
  <path fill-rule="evenodd" clip-rule="evenodd" d="M57.3711 26.8599C57.4149 26.821 57.4733 26.8029 57.5314 26.81L72.9255 28.6939C73.0281 28.7065 73.1052 28.7936 73.1052 28.8971V68.7745C73.1052 68.8348 73.0786 68.892 73.0326 68.9309C72.9866 68.9698 72.9258 68.9864 72.8665 68.9763L57.4725 66.3625C57.3741 66.3458 57.3022 66.2605 57.3022 66.1607L57.3021 27.0131C57.3021 26.9545 57.3272 26.8987 57.3711 26.8599ZM57.7111 27.2444L57.7111 65.9878L72.6962 68.5322V29.0782L57.7111 27.2444Z" fill="#6E7E92"/>
  <path fill-rule="evenodd" clip-rule="evenodd" d="M69.6134 26.0814C69.8395 26.0814 70.0228 26.2647 70.0228 26.4908L70.0228 67.8345C70.0228 68.0606 69.8395 68.2439 69.6134 68.2439C69.3874 68.2439 69.2041 68.0606 69.2041 67.8345L69.2041 26.4908C69.2041 26.2647 69.3874 26.0814 69.6134 26.0814Z" fill="#6E7E92"/>
  <path fill-rule="evenodd" clip-rule="evenodd" d="M63.0696 25.2622C63.2957 25.2622 63.479 25.4455 63.479 25.6716L63.479 67.0153C63.479 67.2414 63.2957 67.4247 63.0696 67.4247C62.8436 67.4247 62.6603 67.2414 62.6603 67.0153L62.6603 25.6716C62.6603 25.4455 62.8435 25.2622 63.0696 25.2622Z" fill="#6E7E92"/>
  <path fill-rule="evenodd" clip-rule="evenodd" d="M78.6109 26.8997C78.837 26.8997 79.0202 27.0829 79.0202 27.309L79.0202 69.4715C79.0202 69.6975 78.837 69.8808 78.6109 69.8808C78.3848 69.8808 78.2015 69.6975 78.2015 69.4715L78.2015 27.309C78.2015 27.0829 78.3848 26.8997 78.6109 26.8997Z" fill="#6E7E92"/>
  <path fill-rule="evenodd" clip-rule="evenodd" d="M84.3361 27.7187C84.5622 27.7187 84.7454 27.902 84.7454 28.1281L84.7454 70.6999C84.7454 70.926 84.5622 71.1093 84.3361 71.1093C84.11 71.1093 83.9268 70.926 83.9268 70.6999L83.9268 28.1281C83.9268 27.902 84.11 27.7187 84.3361 27.7187Z" fill="#6E7E92"/>
  <path d="M90.3804 34.2164L93.374 34.9269V32.2116L90.3804 32.1368V34.2164Z" fill="#E0E4EC"/>
  <path fill-rule="evenodd" clip-rule="evenodd" d="M90.2375 31.9902C90.2769 31.9516 90.3303 31.9307 90.3854 31.9321L93.379 32.0068C93.4899 32.0096 93.5784 32.1003 93.5784 32.2114V34.9267C93.5784 34.9893 93.5497 35.0485 93.5007 35.0873C93.4516 35.1261 93.3875 35.1403 93.3267 35.1259L90.3331 34.4154C90.2409 34.3936 90.1758 34.3111 90.1758 34.2163V32.1367C90.1758 32.0815 90.198 32.0287 90.2375 31.9902ZM90.5848 32.3465V34.0545L93.1694 34.6679V32.411L90.5848 32.3465Z" fill="#6E7E92"/>
  <path d="M57.8837 29.9954L54.8901 29.9436V26.7775L57.8837 27.4879V29.9954Z" fill="#E0E4EC"/>
  <path fill-rule="evenodd" clip-rule="evenodd" d="M54.7634 26.6168C54.7143 26.6556 54.6857 26.7147 54.6857 26.7773V29.9435C54.6857 30.0551 54.7751 30.1462 54.8867 30.1481L57.8802 30.1999C57.9351 30.2008 57.988 30.1797 58.0271 30.1412C58.0662 30.1027 58.0883 30.0501 58.0883 29.9952V27.4878C58.0883 27.3929 58.0232 27.3105 57.9309 27.2886L54.9374 26.5782C54.8765 26.5637 54.8124 26.5779 54.7634 26.6168ZM57.6793 27.6496V29.787L55.0947 29.7423V27.0362L57.6793 27.6496Z" fill="#6E7E92"/>
  <path d="M57.8837 41.2373L54.8901 41.1856V38.0194L57.8837 38.7299V41.2373Z" fill="#E0E4EC"/>
  <path fill-rule="evenodd" clip-rule="evenodd" d="M54.7634 37.8588C54.7143 37.8976 54.6857 37.9568 54.6857 38.0194V41.1856C54.6857 41.2972 54.7751 41.3883 54.8867 41.3902L57.8802 41.4419C57.9351 41.4429 57.988 41.4217 58.0271 41.3833C58.0662 41.3448 58.0883 41.2922 58.0883 41.2373V38.7298C58.0883 38.635 58.0232 38.5526 57.9309 38.5307L54.9374 37.8202C54.8765 37.8058 54.8124 37.82 54.7634 37.8588ZM57.6793 38.8916V41.0291L55.0947 40.9844V38.2782L57.6793 38.8916Z" fill="#6E7E92"/>
  <path d="M57.8837 52.1872L54.8901 52.1354V48.9692L57.8837 49.6797V52.1872Z" fill="#E0E4EC"/>
  <path fill-rule="evenodd" clip-rule="evenodd" d="M54.7634 48.8085C54.7143 48.8473 54.6857 48.9065 54.6857 48.9691V52.1352C54.6857 52.2469 54.7751 52.338 54.8867 52.3399L57.8802 52.3916C57.9351 52.3926 57.988 52.3714 58.0271 52.333C58.0662 52.2945 58.0883 52.2419 58.0883 52.187V49.6795C58.0883 49.5847 58.0232 49.5023 57.9309 49.4804L54.9374 48.7699C54.8765 48.7555 54.8124 48.7697 54.7634 48.8085ZM57.6793 49.8413V51.9788L55.0947 51.9341V49.228L57.6793 49.8413Z" fill="#6E7E92"/>
  <path d="M57.8837 63.3869L54.8901 63.3351V60.1689L57.8837 60.8794V63.3869Z" fill="#E0E4EC"/>
  <path fill-rule="evenodd" clip-rule="evenodd" d="M54.7634 60.0082C54.7143 60.047 54.6857 60.1062 54.6857 60.1688V63.335C54.6857 63.4466 54.7751 63.5377 54.8867 63.5396L57.8802 63.5913C57.9351 63.5923 57.988 63.5712 58.0271 63.5327C58.0662 63.4942 58.0883 63.4416 58.0883 63.3867V60.8792C58.0883 60.7844 58.0232 60.702 57.9309 60.6801L54.9374 59.9696C54.8765 59.9552 54.8124 59.9694 54.7634 60.0082ZM57.6793 61.0411V63.1785L55.0947 63.1338V60.4277L57.6793 61.0411Z" fill="#6E7E92"/>
  <path d="M90.3804 45.7825L93.374 46.4929V43.7776L90.3804 43.7029V45.7825Z" fill="#E0E4EC"/>
  <path fill-rule="evenodd" clip-rule="evenodd" d="M90.2375 43.5562C90.2769 43.5177 90.3303 43.4967 90.3854 43.4981L93.379 43.5728C93.4899 43.5756 93.5784 43.6664 93.5784 43.7774V46.4928C93.5784 46.5554 93.5497 46.6145 93.5007 46.6533C93.4516 46.6922 93.3875 46.7064 93.3267 46.6919L90.3331 45.9815C90.2409 45.9596 90.1758 45.8772 90.1758 45.7823V43.7027C90.1758 43.6476 90.198 43.5947 90.2375 43.5562ZM90.5848 43.9126V45.6205L93.1694 46.2339V43.9771L90.5848 43.9126Z" fill="#6E7E92"/>
  <path d="M90.3804 57.3485L93.374 58.059V55.3436L90.3804 55.2689V57.3485Z" fill="#E0E4EC"/>
  <path fill-rule="evenodd" clip-rule="evenodd" d="M90.2375 55.1232C90.2769 55.0847 90.3303 55.0638 90.3854 55.0651L93.379 55.1398C93.4899 55.1426 93.5784 55.2334 93.5784 55.3445V58.0598C93.5784 58.1224 93.5497 58.1815 93.5007 58.2204C93.4516 58.2592 93.3875 58.2734 93.3267 58.259L90.3331 57.5485C90.2409 57.5266 90.1758 57.4442 90.1758 57.3494V55.2697C90.1758 55.2146 90.198 55.1617 90.2375 55.1232ZM90.5848 55.4796V57.1875L93.1694 57.8009V55.5441L90.5848 55.4796Z" fill="#6E7E92"/>
  <path d="M90.3804 68.9146L93.374 69.5514V66.9097L90.3804 66.835V68.9146Z" fill="#E0E4EC"/>
  <path fill-rule="evenodd" clip-rule="evenodd" d="M90.2375 66.6893C90.2769 66.6507 90.3303 66.6298 90.3854 66.6312L93.379 66.7059C93.4899 66.7087 93.5784 66.7994 93.5784 66.9105V69.5522C93.5784 69.6139 93.5505 69.6724 93.5026 69.7112C93.4546 69.7501 93.3917 69.7652 93.3314 69.7524L90.3378 69.1156C90.2433 69.0955 90.1758 69.012 90.1758 68.9154V66.8358C90.1758 66.7806 90.198 66.7278 90.2375 66.6893ZM90.5848 67.0456V68.7496L93.1694 69.2994V67.1101L90.5848 67.0456Z" fill="#6E7E92"/>
  <path d="M90.2134 28.6165V25.6493L93.4832 26.0254V28.9926L90.2134 28.6165Z" fill="#E0E4EC"/>
  <path fill-rule="evenodd" clip-rule="evenodd" d="M90.0772 25.4964C90.1207 25.4575 90.1787 25.4391 90.2366 25.4458L93.5064 25.8219C93.6097 25.8338 93.6876 25.9213 93.6876 26.0253V28.9924C93.6876 29.0508 93.6627 29.1064 93.6192 29.1452C93.5757 29.184 93.5177 29.2024 93.4597 29.1958L90.1899 28.8196C90.0867 28.8078 90.0088 28.7203 90.0088 28.6163V25.6491C90.0088 25.5908 90.0337 25.5352 90.0772 25.4964ZM90.4178 25.8787V28.4338L93.2786 28.7629V26.2077L90.4178 25.8787Z" fill="#6E7E92"/>
  <path d="M95.8497 27.9899V25.0227L93.4828 26.0257V28.9929L95.8497 27.9899Z" fill="#E0E4EC"/>
  <path fill-rule="evenodd" clip-rule="evenodd" d="M95.963 24.8519C96.0202 24.8898 96.0545 24.9539 96.0545 25.0225V27.9897C96.0545 28.0719 96.0054 28.1461 95.9298 28.1782L93.5629 29.1812C93.4997 29.2079 93.4274 29.2012 93.3702 29.1633C93.3131 29.1254 93.2787 29.0613 93.2787 28.9927V26.0255C93.2787 25.9433 93.3278 25.8691 93.4034 25.8371L95.7703 24.8341C95.8335 24.8073 95.9058 24.814 95.963 24.8519ZM93.6877 26.1611V28.6838L95.6456 27.8541V25.3315L93.6877 26.1611Z" fill="#6E7E92"/>
  <path d="M92.5928 24.646L95.8496 25.0221L93.4827 26.0251L90.226 25.649L92.5928 24.646Z" fill="#E0E4EC"/>
  <path fill-rule="evenodd" clip-rule="evenodd" d="M92.5136 24.4574C92.5462 24.4436 92.5817 24.4385 92.6168 24.4425L95.8736 24.8186C95.9658 24.8293 96.0393 24.9008 96.0525 24.9928C96.0658 25.0848 96.0154 25.1742 95.9299 25.2104L93.563 26.2134C93.5304 26.2272 93.4949 26.2323 93.4598 26.2283L90.203 25.8521C90.1108 25.8415 90.0373 25.77 90.0241 25.678C90.0108 25.5859 90.0612 25.4966 90.1467 25.4603L92.5136 24.4574ZM92.6235 24.8553L91.0207 25.5345L93.4531 25.8154L95.0559 25.1363L92.6235 24.8553Z" fill="#6E7E92"/>
  <path d="M133.135 8.13855L136.504 8.47288L134.096 9.43408L130.881 9.09975L133.135 8.13855Z" fill="#E0E4EC"/>
  <path fill-rule="evenodd" clip-rule="evenodd" d="M133.056 7.95021C133.087 7.93673 133.122 7.93144 133.156 7.93484L136.525 8.26917C136.619 8.27848 136.694 8.35078 136.707 8.44422C136.72 8.53766 136.668 8.62801 136.58 8.66296L134.172 9.62416C134.141 9.63642 134.108 9.64103 134.075 9.63761L130.86 9.30328C130.767 9.29364 130.693 9.22246 130.679 9.13021C130.665 9.03795 130.715 8.94796 130.801 8.9114L133.056 7.95021ZM133.168 8.34736L131.689 8.97791L134.067 9.22525L135.65 8.59367L133.168 8.34736Z" fill="#6E7E92"/>
  <path d="M102.226 5.25464L105.453 5.54718L103.198 6.383L99.9833 6.00688L102.226 5.25464Z" fill="#E0E4EC"/>
  <path fill-rule="evenodd" clip-rule="evenodd" d="M102.162 5.06138C102.189 5.05239 102.217 5.04906 102.245 5.05162L105.472 5.34415C105.567 5.35278 105.643 5.42622 105.656 5.52102C105.669 5.61582 105.614 5.70671 105.524 5.73992L103.27 6.57574C103.239 6.58696 103.207 6.59085 103.175 6.5871L99.9599 6.21098C99.8648 6.19986 99.7902 6.12416 99.7803 6.02883C99.7704 5.9335 99.8279 5.84407 99.9187 5.81362L102.162 5.06138ZM102.251 5.46316L100.916 5.91075L103.174 6.17482L104.535 5.67022L102.251 5.46316Z" fill="#6E7E92"/>
  <path d="M57.5624 20.5088L60.6939 20.8431L58.3271 21.8461L55.0573 21.3864L57.5624 20.5088Z" fill="#E0E4EC"/>
  <path fill-rule="evenodd" clip-rule="evenodd" d="M57.4946 20.3154C57.5232 20.3054 57.5537 20.3019 57.5838 20.3051L60.7153 20.6394C60.808 20.6493 60.8823 20.7207 60.8959 20.813C60.9096 20.9052 60.8592 20.9951 60.7734 21.0314L58.4065 22.0344C58.3724 22.0489 58.335 22.0538 58.2983 22.0486L55.0285 21.5889C54.935 21.5758 54.8627 21.5004 54.8534 21.4064C54.8441 21.3124 54.9003 21.2243 54.9894 21.1931L57.4946 20.3154ZM57.5862 20.717L55.9197 21.3009L58.2991 21.6354L59.8867 20.9626L57.5862 20.717Z" fill="#6E7E92"/>
  <path fill-rule="evenodd" clip-rule="evenodd" d="M93.4548 29.201L54.952 24.6504L55 24.2439L93.5027 28.7945L93.4548 29.201Z" fill="#6E7E92"/>
</svg>
