<svg viewBox="0 0 192 80" fill="none" xmlns="http://www.w3.org/2000/svg">
  <path d="M149.49 28.757V26.1384L107.193 20.3262L42.1075 52.2647L42.1075 55.4298L50.5094 56.8109L55.2858 54.3364L76.8549 58.0416V61.4432L89.9589 63.5456L149.49 28.757Z" fill="#E0E4EC"/>
  <path fill-rule="evenodd" clip-rule="evenodd" d="M107.075 20.086C107.123 20.0625 107.176 20.0538 107.229 20.0611L149.526 25.8733C149.659 25.8916 149.758 26.0051 149.758 26.1393V28.7579C149.758 28.8533 149.708 28.9416 149.625 28.9897L90.0941 63.7783C90.0404 63.8096 89.9775 63.8214 89.9161 63.8115L76.8122 61.7091C76.682 61.6882 76.5862 61.5759 76.5862 61.444V58.2688L55.329 54.6171L50.6327 57.0502C50.5813 57.0768 50.5227 57.0861 50.4656 57.0767L42.0638 55.6956C41.9341 55.6742 41.8389 55.5621 41.8389 55.4307V52.2656C41.8389 52.1632 41.8971 52.0697 41.9891 52.0246L107.075 20.086ZM107.238 20.6042L42.3758 52.4329V55.2027L50.4648 56.5324L55.1621 54.0989C55.214 54.072 55.2734 54.0628 55.331 54.0727L76.9001 57.7779C77.029 57.8001 77.1231 57.9118 77.1231 58.0425V61.2152L89.9062 63.2662L149.221 28.6039V26.3734L107.238 20.6042Z" fill="#6E7E92"/>
  <path d="M50.4618 56.8049V53.7136" stroke="#6E7E92"/>
  <path d="M89.9862 63.6245L89.9862 60.2639" stroke="#6E7E92"/>
  <path d="M107.136 20.3262L149.49 24.4695V26.1385L90.0046 60.2638L42.1075 52.2072V50.5958L90.0046 28.3004L107.136 20.3262Z" fill="#E0E4EC"/>
  <path fill-rule="evenodd" clip-rule="evenodd" d="M107.022 20.0837C107.066 20.0634 107.114 20.0552 107.161 20.0599L149.516 24.2032C149.653 24.2167 149.758 24.3323 149.758 24.4704V26.1394C149.758 26.2355 149.707 26.3244 149.623 26.3722L90.1379 60.4975C90.084 60.5284 90.0211 60.5397 89.9598 60.5294L42.0628 52.4728C41.9335 52.451 41.8389 52.3391 41.8389 52.208V50.5967C41.8389 50.4923 41.8994 50.3974 41.994 50.3533L107.022 20.0837ZM107.182 20.6014L90.2728 28.4725V59.8012L149.221 25.9839V24.7139L107.182 20.6014ZM89.7359 59.9473V28.7224L42.3758 50.7679V51.981L89.7359 59.9473Z" fill="#6E7E92"/>
  <path d="M107.136 18.7158L149.49 24.5281L90.0046 58.6534L42.1075 50.5968L107.136 18.7158Z" fill="#E0E4EC"/>
  <path fill-rule="evenodd" clip-rule="evenodd" d="M107.017 18.4747C107.065 18.4512 107.119 18.4425 107.172 18.4498L149.526 24.2621C149.64 24.2777 149.731 24.364 149.753 24.4768C149.775 24.5895 149.723 24.7037 149.623 24.7609L90.1379 58.8862C90.084 58.9171 90.0211 58.9284 89.9598 58.9181L42.0628 50.8615C41.9478 50.8421 41.8585 50.7508 41.8417 50.6354C41.8249 50.52 41.8845 50.407 41.9892 50.3557L107.017 18.4747ZM107.18 18.9928L42.9748 50.4704L89.9541 58.3727L148.673 24.687L107.18 18.9928Z" fill="#6E7E92"/>
  <path d="M107.136 18.7158L112.43 19.4424L117.724 20.1689L123.019 20.8954L128.313 21.622L133.607 22.3485L138.901 23.0751L144.196 23.8016L149.49 24.5281L90.0046 58.6534L84.0174 57.6464L78.0303 56.6393L72.0432 55.6322L66.056 54.6251L60.0689 53.618L54.0818 52.611L48.0947 51.6039L42.1075 50.5968L107.136 18.7158Z" fill="#E0E4EC"/>
  <path fill-rule="evenodd" clip-rule="evenodd" d="M107.017 18.4747C107.065 18.4512 107.119 18.4425 107.172 18.4498L149.526 24.2621C149.64 24.2777 149.731 24.364 149.753 24.4768C149.775 24.5895 149.723 24.7037 149.623 24.7609L90.1379 58.8862C90.084 58.9171 90.0211 58.9284 89.9598 58.9181L42.0628 50.8615C41.9478 50.8421 41.8585 50.7508 41.8417 50.6354C41.8249 50.52 41.8845 50.407 41.9892 50.3557L107.017 18.4747ZM107.18 18.9928L42.9748 50.4704L48.0527 51.3245L111.533 19.5902L107.18 18.9928ZM112.475 19.7195L48.9511 51.4757L54.0387 52.3314L116.839 20.3184L112.475 19.7195ZM117.771 20.4462L54.9276 52.4809L60.0246 53.3383L122.145 21.0465L117.771 20.4462ZM123.066 21.1729L60.9041 53.4862L66.0106 54.3452L127.451 21.7747L123.066 21.1729ZM128.362 21.8996L66.8808 54.4916L71.9965 55.3521L132.757 22.5028L128.362 21.8996ZM133.657 22.6263L72.8575 55.4969L77.9824 56.3589L138.063 23.2308L133.657 22.6263ZM138.953 23.353L78.8344 56.5022L83.9683 57.3658L143.368 23.9589L138.953 23.353ZM144.248 24.0797L84.8114 57.5076L89.9541 58.3727L148.673 24.687L144.248 24.0797Z" fill="#6E7E92"/>
  <path d="M107.135 52.9556L99.309 57.5018V55.4877L107.135 50.999V52.9556Z" fill="#E0E4EC"/>
  <path fill-rule="evenodd" clip-rule="evenodd" d="M107.27 50.7666C107.353 50.8146 107.404 50.9032 107.404 50.9989V52.9555C107.404 53.0512 107.353 53.1396 107.27 53.1877L99.4437 57.7339C99.3607 57.7821 99.2582 57.7823 99.1749 57.7344C99.0917 57.6865 99.0404 57.5978 99.0404 57.5017V55.4876C99.0404 55.3914 99.0919 55.3026 99.1753 55.2547L107.002 50.7661C107.085 50.7184 107.187 50.7186 107.27 50.7666ZM99.5773 55.6431V57.0353L106.867 52.801V51.4624L99.5773 55.6431Z" fill="#6E7E92"/>
  <path d="M142.7 30.6855V32.1818L136.715 35.6583V34.1181L142.7 30.6855Z" fill="#E0E4EC"/>
  <path fill-rule="evenodd" clip-rule="evenodd" d="M142.834 30.4532C142.917 30.5012 142.968 30.5897 142.968 30.6854V32.1817C142.968 32.2773 142.917 32.3658 142.835 32.4138L136.85 35.8903C136.767 35.9385 136.664 35.9388 136.581 35.8908C136.498 35.8429 136.446 35.7542 136.446 35.6582V34.118C136.446 34.0218 136.498 33.9329 136.581 33.8851L142.566 30.4526C142.649 30.4049 142.751 30.4051 142.834 30.4532ZM136.983 34.2735V35.1918L142.431 32.0271V31.1489L136.983 34.2735Z" fill="#6E7E92"/>
  <path d="M142.93 25.3336L142.93 22.6289L146.613 23.1468V25.9666L142.93 25.3336Z" fill="#E0E4EC"/>
  <path fill-rule="evenodd" clip-rule="evenodd" d="M142.753 22.4262C142.812 22.3752 142.89 22.3521 142.967 22.363L146.65 22.8809C146.782 22.8995 146.881 23.0129 146.881 23.1467V25.9665C146.881 26.0457 146.846 26.1208 146.786 26.1718C146.725 26.2228 146.645 26.2445 146.567 26.2311L142.884 25.5981C142.755 25.576 142.661 25.4642 142.661 25.3335V22.6288C142.661 22.5511 142.695 22.4772 142.753 22.4262ZM143.198 22.9377V25.1073L146.344 25.648V23.3801L143.198 22.9377Z" fill="#6E7E92"/>
  <path d="M104.546 20.0393V17.7949L107.02 18.0827V20.3845L104.546 20.0393Z" fill="#E0E4EC"/>
  <path fill-rule="evenodd" clip-rule="evenodd" d="M104.367 17.5943C104.425 17.5434 104.501 17.5193 104.577 17.5282L107.051 17.8159C107.187 17.8316 107.289 17.9463 107.289 18.0826V20.3844C107.289 20.4621 107.255 20.536 107.197 20.587C107.138 20.6379 107.06 20.661 106.983 20.6503L104.509 20.305C104.376 20.2865 104.277 20.1731 104.277 20.0392V17.7948C104.277 17.7182 104.31 17.6453 104.367 17.5943ZM104.814 18.0963V19.8056L106.752 20.0759V18.3216L104.814 18.0963Z" fill="#6E7E92"/>
  <path d="M149.433 24.4126V21.6504L146.613 23.1466V26.024L149.433 24.4126Z" fill="#E0E4EC"/>
  <path fill-rule="evenodd" clip-rule="evenodd" d="M149.571 21.4202C149.652 21.4688 149.701 21.5561 149.701 21.6503V24.4125C149.701 24.5089 149.649 24.5978 149.566 24.6456L146.746 26.2569C146.663 26.3044 146.561 26.3041 146.478 26.256C146.395 26.208 146.344 26.1196 146.344 26.0239V23.1465C146.344 23.0472 146.399 22.9559 146.487 22.9094L149.307 21.4132C149.39 21.369 149.49 21.3717 149.571 21.4202ZM146.881 23.308V25.5613L149.164 24.2568V22.0966L146.881 23.308Z" fill="#6E7E92"/>
  <path d="M109.553 19.062V16.9902L107.021 18.1412V20.328L109.553 19.062Z" fill="#E0E4EC"/>
  <path fill-rule="evenodd" clip-rule="evenodd" d="M109.698 16.7644C109.775 16.8138 109.821 16.8989 109.821 16.9901V19.0619C109.821 19.1636 109.763 19.2565 109.673 19.302L107.14 20.5681C107.057 20.6097 106.958 20.6052 106.879 20.5563C106.8 20.5074 106.752 20.421 106.752 20.3279V18.1411C106.752 18.0358 106.813 17.9402 106.909 17.8967L109.441 16.7457C109.524 16.708 109.621 16.715 109.698 16.7644ZM107.289 18.3139V19.8936L109.284 18.896V17.4071L107.289 18.3139Z" fill="#6E7E92"/>
  <path d="M149.432 21.6499L145.692 21.2471L142.93 22.6282L146.728 23.0886L149.432 21.6499Z" fill="#E0E4EC"/>
  <path fill-rule="evenodd" clip-rule="evenodd" d="M145.572 21.0069C145.618 20.9839 145.669 20.9746 145.721 20.9801L149.461 21.3829C149.578 21.3955 149.674 21.4831 149.696 21.5989C149.718 21.7147 149.663 21.8314 149.558 21.8868L146.854 23.3255C146.805 23.3513 146.75 23.3616 146.695 23.355L142.897 22.8946C142.78 22.8803 142.685 22.7907 142.665 22.6739C142.645 22.5572 142.704 22.441 142.81 22.388L145.572 21.0069ZM145.741 21.5223L143.848 22.469L146.676 22.8118L148.535 21.8232L145.741 21.5223Z" fill="#6E7E92"/>
  <path d="M42.1075 52.2076L42.1651 47.0859L46.1358 47.6605V52.8789L42.1075 52.2076Z" fill="#E0E4EC"/>
  <path fill-rule="evenodd" clip-rule="evenodd" d="M41.9903 46.8819C42.0491 46.8316 42.1267 46.8091 42.2033 46.8202L46.1741 47.3947C46.3061 47.4139 46.4041 47.527 46.4041 47.6604V52.8788C46.4041 52.9578 46.3693 53.0327 46.3091 53.0837C46.2489 53.1347 46.1693 53.1566 46.0915 53.1436L42.0632 52.4723C41.9326 52.4506 41.8374 52.3369 41.8389 52.2045L41.8964 47.0828C41.8973 47.0054 41.9315 46.9322 41.9903 46.8819ZM42.4299 47.3954L42.3783 51.9805L45.8672 52.5619V47.8928L42.4299 47.3954Z" fill="#6E7E92"/>
  <path d="M48.9555 51.2298V46.3379L46.1357 47.6614V52.8411L48.9555 51.2298Z" fill="#E0E4EC"/>
  <path fill-rule="evenodd" clip-rule="evenodd" d="M49.0994 46.1112C49.1769 46.1605 49.2239 46.2459 49.2239 46.3378V51.2297C49.2239 51.3261 49.1723 51.415 49.0886 51.4628L46.2688 53.0741C46.1857 53.1216 46.0837 53.1213 46.0009 53.0732C45.9181 53.0252 45.8672 52.9367 45.8672 52.841V47.6613C45.8672 47.5573 45.9274 47.4626 46.0216 47.4183L48.8414 46.0948C48.9245 46.0557 49.0219 46.0619 49.0994 46.1112ZM46.4041 47.8319V52.3784L48.687 51.0739V46.7604L46.4041 47.8319Z" fill="#6E7E92"/>
  <path d="M48.9557 46.3381L44.985 45.7051L42.1652 47.0862L46.251 47.7192L48.9557 46.3381Z" fill="#E0E4EC"/>
  <path fill-rule="evenodd" clip-rule="evenodd" d="M44.8668 45.4639C44.9165 45.4395 44.9725 45.4312 45.0271 45.4399L48.9979 46.0729C49.1126 46.0912 49.2026 46.1812 49.2208 46.296C49.2389 46.4108 49.1812 46.5242 49.0777 46.5771L46.373 47.9582C46.3227 47.9839 46.2656 47.993 46.2098 47.9844L42.124 47.3514C42.0081 47.3334 41.9173 47.2424 41.8997 47.1264C41.882 47.0105 41.9417 46.8966 42.047 46.845L44.8668 45.4639ZM45.0266 45.9835L43.0501 46.9516L46.2062 47.4405L48.1 46.4734L45.0266 45.9835Z" fill="#6E7E92"/>
  <path d="M85.958 59.5744L85.958 54.165L89.9863 54.7981V60.2075L85.958 59.5744Z" fill="#E0E4EC"/>
  <path fill-rule="evenodd" clip-rule="evenodd" d="M85.7833 53.9609C85.843 53.9099 85.9219 53.8876 85.9995 53.8997L90.0277 54.5328C90.1583 54.5533 90.2545 54.6658 90.2545 54.798V60.2074C90.2545 60.2858 90.2202 60.3604 90.1605 60.4114C90.1009 60.4624 90.0219 60.4847 89.9444 60.4726L85.9161 59.8396C85.7855 59.819 85.6893 59.7065 85.6893 59.5743V54.1649C85.6893 54.0865 85.7237 54.0119 85.7833 53.9609ZM86.2262 54.4789V59.3448L89.7176 59.8934V55.0275L86.2262 54.4789Z" fill="#6E7E92"/>
  <path d="M92.806 58.6527V53.3584L89.9862 54.8546V60.264L92.806 58.6527Z" fill="#E0E4EC"/>
  <path fill-rule="evenodd" clip-rule="evenodd" d="M92.9443 53.1292C93.025 53.1778 93.0744 53.2651 93.0744 53.3593V58.6536C93.0744 58.7499 93.0227 58.8389 92.9391 58.8867L90.1193 60.498C90.0362 60.5455 89.9341 60.5451 89.8514 60.4971C89.7686 60.4491 89.7177 60.3606 89.7177 60.2649V54.8555C89.7177 54.7561 89.7725 54.6649 89.8603 54.6184L92.6801 53.1221C92.7633 53.078 92.8635 53.0807 92.9443 53.1292ZM90.2546 55.017V59.8023L92.5375 58.4978V53.8056L90.2546 55.017Z" fill="#6E7E92"/>
  <path d="M92.8061 53.3586L88.6627 52.7256L85.958 54.1643L90.1014 54.7973L92.8061 53.3586Z" fill="#E0E4EC"/>
  <path fill-rule="evenodd" clip-rule="evenodd" d="M88.5364 52.4895C88.5875 52.4623 88.6459 52.4524 88.7031 52.4611L92.8464 53.0941C92.9608 53.1116 93.0511 53.2004 93.0705 53.3144C93.09 53.4285 93.0341 53.5422 92.932 53.5965L90.2273 55.0352C90.1762 55.0623 90.1178 55.0723 90.0606 55.0635L85.9173 54.4305C85.8029 54.413 85.7126 54.3243 85.6932 54.2102C85.6737 54.0961 85.7296 53.9825 85.8317 53.9281L88.5364 52.4895ZM88.71 53.0053L86.7985 54.022L90.0537 54.5193L91.9652 53.5026L88.71 53.0053Z" fill="#6E7E92"/>
  <path d="M109.552 16.9898L106.848 16.6445L104.546 17.7374L107.078 18.0827L109.552 16.9898Z" fill="#E0E4EC"/>
  <path fill-rule="evenodd" clip-rule="evenodd" d="M106.733 16.4019C106.779 16.3799 106.831 16.3716 106.882 16.3781L109.587 16.7234C109.706 16.7387 109.801 16.8318 109.818 16.9511C109.836 17.0704 109.771 17.1866 109.661 17.2353L107.186 18.3282C107.141 18.3482 107.091 18.3553 107.042 18.3486L104.51 18.0033C104.392 17.9873 104.299 17.8958 104.281 17.7785C104.262 17.6611 104.324 17.5457 104.431 17.4948L106.733 16.4019ZM106.892 16.9207L105.476 17.5931L107.039 17.8063L108.562 17.1339L106.892 16.9207Z" fill="#6E7E92"/>
</svg>
