<svg viewBox="0 0 192 80" fill="none" xmlns="http://www.w3.org/2000/svg">
  <path d="M102.873 3.04883V45.0763L52.4935 70.1707V20.2269L102.873 3.04883Z" fill="#E0E4EC"/>
  <path fill-rule="evenodd" clip-rule="evenodd" d="M102.999 2.87166C103.056 2.91247 103.09 2.97831 103.09 3.04845V45.0759C103.09 45.1584 103.044 45.2337 102.97 45.2705L52.5907 70.3649C52.5233 70.3984 52.4433 70.3947 52.3793 70.3551C52.3153 70.3155 52.2764 70.2456 52.2764 70.1703V20.2265C52.2764 20.1335 52.3356 20.0508 52.4236 20.0208L102.803 2.84269C102.869 2.82005 102.942 2.83084 102.999 2.87166ZM52.7111 20.3821V69.8191L102.656 44.9413V3.35225L52.7111 20.3821Z" fill="#6E7E92"/>
  <path d="M139.391 50.0743L102.872 45.0762L52.4346 70.2341L62.6841 71.9084L66.8866 69.7845L83.3163 72.6822V75.3082L93.4327 76.9313L139.391 50.0743Z" fill="#E0E4EC"/>
  <path fill-rule="evenodd" clip-rule="evenodd" d="M102.776 44.8813C102.815 44.8617 102.859 44.8545 102.902 44.8604L139.421 49.8586C139.513 49.8711 139.586 49.9406 139.605 50.0315C139.623 50.1225 139.581 50.2149 139.501 50.2616L93.5426 77.1186C93.4991 77.144 93.4482 77.1535 93.3985 77.1455L83.2822 75.5225C83.1767 75.5055 83.0992 75.4146 83.0992 75.3078V72.8642L66.9203 70.0108L62.7824 72.102C62.7413 72.1228 62.6947 72.13 62.6493 72.1225L52.3998 70.4482C52.3067 70.433 52.234 70.3595 52.2199 70.2663C52.2057 70.173 52.2534 70.0813 52.3378 70.0392L102.776 44.8813ZM102.91 45.3003L53.1344 70.1277L62.6495 71.682L66.7888 69.5901C66.8307 69.5689 66.8783 69.5619 66.9246 69.5701L83.3543 72.4677C83.4582 72.486 83.534 72.5763 83.534 72.6818V75.1225L93.3905 76.7039L138.738 50.2039L102.91 45.3003Z" fill="#6E7E92"/>
  <path d="M52.598 70.2556L62.8417 71.9314L66.9273 69.7895L83.329 72.6565V75.2829L93.5726 76.9587V25.1963L52.598 20.3105L52.598 70.2556Z" fill="#E0E4EC"/>
  <path fill-rule="evenodd" clip-rule="evenodd" d="M52.454 20.1486C52.5005 20.1073 52.5624 20.0879 52.6241 20.0953L93.5987 24.981C93.708 24.9941 93.7904 25.0868 93.7904 25.1969V76.9593C93.7904 77.0231 93.7623 77.0836 93.7137 77.1249C93.6651 77.1662 93.6008 77.1841 93.5379 77.1738L83.2942 75.4981C83.1891 75.4809 83.1119 75.39 83.1119 75.2835V72.8398L66.9631 70.017L62.943 72.1245C62.9012 72.1464 62.8535 72.1541 62.8069 72.1465L52.5633 70.4707C52.4582 70.4536 52.381 70.3627 52.381 70.2562V20.3111C52.381 20.249 52.4076 20.1898 52.454 20.1486ZM52.8158 20.556V70.0715L62.8054 71.7057L66.8268 69.5976C66.8692 69.5753 66.9179 69.5677 66.9651 69.576L83.3668 72.443C83.4708 72.4611 83.5467 72.5515 83.5467 72.6571V75.0988L93.3556 76.7034V25.3899L52.8158 20.556Z" fill="#6E7E92"/>
  <path d="M139.391 50.0965V6.46973L93.4683 25.1127L93.4683 76.9591L139.391 50.0965Z" fill="#E0E4EC"/>
  <path fill-rule="evenodd" clip-rule="evenodd" d="M139.513 6.28902C139.573 6.32942 139.609 6.39701 139.609 6.46935V50.0962C139.609 50.1734 139.568 50.2448 139.501 50.2838L93.5783 77.1463C93.511 77.1857 93.4279 77.186 93.3603 77.1473C93.2928 77.1085 93.2511 77.0366 93.2511 76.9587L93.2511 25.1123C93.2511 25.0239 93.3047 24.9442 93.3867 24.9109L139.31 6.26792C139.377 6.24071 139.453 6.24862 139.513 6.28902ZM93.6859 25.2587L93.6859 76.5797L139.174 49.9715V6.79222L93.6859 25.2587Z" fill="#6E7E92"/>
  <path d="M52.4629 70.1609L62.8446 71.9547V69.1616L52.4629 67.4199L52.4629 70.1609Z" fill="#E0E4EC"/>
  <path fill-rule="evenodd" clip-rule="evenodd" d="M52.3227 67.2546C52.3715 67.2133 52.436 67.1955 52.4991 67.2061L62.8808 68.9478C62.9856 68.9654 63.0623 69.056 63.0623 69.1622V71.9553C63.0623 72.0194 63.0339 72.0803 62.9849 72.1216C62.9358 72.1629 62.871 72.1804 62.8079 72.1695L52.4262 70.3758C52.3219 70.3578 52.2458 70.2673 52.2458 70.1616L52.2457 67.4205C52.2457 67.3566 52.2739 67.2959 52.3227 67.2546ZM52.6805 67.6774L52.6806 69.9785L62.6275 71.6971V69.3462L52.6805 67.6774Z" fill="#6E7E92"/>
  <path d="M137.436 49.1632V10.0234L95.9418 27.3053V72.9758L137.436 49.1632Z" fill="#E0E4EC"/>
  <path fill-rule="evenodd" clip-rule="evenodd" d="M137.563 9.83432C137.627 9.87648 137.665 9.94743 137.665 10.0234V48.9712C137.665 49.0526 137.621 49.1278 137.55 49.1683L96.0232 72.8641C95.9525 72.9045 95.8655 72.9043 95.7949 72.8636C95.7244 72.823 95.6809 72.7481 95.6809 72.667V27.2206C95.6809 27.1288 95.7364 27.046 95.8216 27.0107L137.348 9.81361C137.419 9.7844 137.499 9.79217 137.563 9.83432ZM135.531 11.0587V49.7965L137.208 48.8396V10.3643L135.531 11.0587ZM135.074 50.0573V11.2481L133.397 11.9425V51.0142L135.074 50.0573ZM132.939 51.2751V12.1318L130.684 13.0657V52.5618L132.939 51.2751ZM130.227 52.8227V13.255L127.572 14.3545V54.3377L130.227 52.8227ZM127.115 54.5986V14.5439L123.793 15.9196V56.4942L127.115 54.5986ZM123.336 56.7551V16.1089L119.925 17.5215V58.7014L123.336 56.7551ZM119.468 58.9623V17.7108L116.057 19.1233V60.9086L119.468 58.9623ZM115.6 61.1695V19.3127L111.566 20.983V63.471L115.6 61.1695ZM111.109 63.7319V21.1723L106.764 22.9715V66.211L111.109 63.7319ZM106.307 66.4718V23.1608L101.796 25.0291V69.0461L106.307 66.4718ZM101.339 69.3069V25.2184L96.1381 27.3721V72.2745L101.339 69.3069Z" fill="#6E7E92"/>
  <path d="M74.4123 38.4968C74.4137 38.9317 74.7361 39.2986 75.1672 39.356L89.9242 41.3195C90.4454 41.3889 90.9084 40.9834 90.9084 40.4576L90.9084 36.0696C90.9084 35.631 90.5819 35.2611 90.1467 35.2067L75.3758 33.3613C74.8557 33.2963 74.3967 33.7029 74.3984 34.227L74.4123 38.4968Z" fill="#E0E4EC"/>
  <path fill-rule="evenodd" clip-rule="evenodd" d="M74.181 34.2283C74.1789 33.5732 74.7526 33.065 75.4027 33.1462L90.1736 34.9917C90.7176 35.0596 91.1258 35.522 91.1258 36.0702L91.1258 40.4582C91.1258 41.1154 90.547 41.6223 89.8955 41.5356L75.1385 39.5721C74.5997 39.5004 74.1967 39.0417 74.1949 38.4982L74.181 34.2283ZM75.3488 33.5777C74.9588 33.5289 74.6145 33.8338 74.6158 34.2269L74.6297 38.4968C74.6307 38.8229 74.8725 39.0981 75.1958 39.1411L89.9528 41.1047C90.3437 41.1567 90.691 40.8525 90.691 40.4582L90.691 36.0702C90.691 35.7413 90.4461 35.4639 90.1197 35.4231L75.3488 33.5777Z" fill="#6E7E92"/>
  <path d="M61.6004 63.9132L83.2804 67.3785L86.7457 64.935V56.8938V50.6741L83.5026 46.4536L61.6003 43.2393L56.8022 46.4092V52.4512V60.1814L61.6004 63.9132Z" fill="#6E7E92"/>
  <path fill-rule="evenodd" clip-rule="evenodd" d="M61.4805 43.0575C61.5251 43.028 61.579 43.016 61.6319 43.0238L83.5341 46.2381C83.59 46.2464 83.6405 46.276 83.6749 46.3208L86.9181 50.5413C86.9472 50.5793 86.9631 50.6258 86.9631 50.6738V64.9347C86.9631 65.0053 86.9287 65.0716 86.871 65.1123L83.4057 67.5558C83.3594 67.5885 83.3021 67.6017 83.2461 67.5928L61.566 64.1275C61.5299 64.1217 61.4958 64.1069 61.4669 64.0845L56.6688 60.3526C56.6158 60.3114 56.5848 60.2481 56.5848 60.181V46.4088C56.5848 46.3358 56.6215 46.2677 56.6824 46.2274L61.4805 43.0575ZM61.6509 43.466L57.0196 46.5257V60.0747L61.6897 63.707L83.2274 67.1495L86.5283 64.822V50.7476L83.3838 46.6555L61.6509 43.466Z" fill="#6E7E92"/>
  <path d="M61.6005 63.9123L83.2806 67.3776V62.3574L61.6005 59.0254L61.6005 63.9123Z" fill="#6E7E92"/>
  <path fill-rule="evenodd" clip-rule="evenodd" d="M61.4591 58.861C61.5073 58.8197 61.571 58.8015 61.6337 58.8111L83.3138 62.1431C83.4199 62.1594 83.4982 62.2507 83.4982 62.358V67.3782C83.4982 67.4418 83.4703 67.5023 83.4219 67.5436C83.3735 67.5849 83.3094 67.6029 83.2465 67.5928L61.5664 64.1276C61.4609 64.1107 61.3833 64.0197 61.3833 63.9129L61.3833 59.026C61.3833 58.9626 61.411 58.9023 61.4591 58.861ZM61.8181 59.2793L61.8181 63.7275L83.0634 67.1233V62.5445L61.8181 59.2793Z" fill="#E0E4EC"/>
  <path d="M61.6005 53.1176L83.3695 56.4052L83.5027 46.4536L61.6005 43.2393V53.1176Z" fill="#6E7E92"/>
  <path fill-rule="evenodd" clip-rule="evenodd" d="M61.4586 43.0744C61.5064 43.0331 61.5698 43.0146 61.6323 43.0238L83.5345 46.2381C83.6423 46.254 83.7218 46.3472 83.7203 46.4561L83.587 56.4077C83.5862 56.4705 83.5582 56.5299 83.5103 56.5705C83.4625 56.6112 83.3993 56.6291 83.3372 56.6197L61.5682 53.3322C61.4619 53.3161 61.3833 53.2247 61.3833 53.1172V43.2389C61.3833 43.1757 61.4108 43.1157 61.4586 43.0744ZM61.8181 43.4905V52.9302L83.1556 56.1526L83.283 46.6407L61.8181 43.4905Z" fill="#E0E4EC"/>
  <path d="M55.1886 35.9179C55.1886 36.3538 55.5115 36.7224 55.9436 36.7798L70.5841 38.7256C71.1053 38.7949 71.5682 38.3894 71.5682 37.8636V33.6285C71.5682 33.1891 71.2404 32.8187 70.8042 32.7654L56.1637 30.9753C55.6455 30.9119 55.1886 31.3163 55.1886 31.8384L55.1886 35.9179Z" fill="#E0E4EC"/>
  <path fill-rule="evenodd" clip-rule="evenodd" d="M56.1368 31.1907C55.7481 31.1432 55.4055 31.4465 55.4055 31.8381L55.4055 35.9175C55.4055 36.2445 55.6476 36.5209 55.9718 36.564L70.6122 38.5098C71.0031 38.5617 71.3503 38.2576 71.3503 37.8633V33.6282C71.3503 33.2986 71.1044 33.0208 70.7773 32.9808L56.1368 31.1907ZM54.9707 31.8381C54.9707 31.1855 55.5418 30.68 56.1896 30.7592L70.8301 32.5492C71.3753 32.6159 71.7851 33.0789 71.7851 33.6282V37.8633C71.7851 38.5205 71.2064 39.0273 70.5549 38.9407L55.9145 36.995C55.3743 36.9232 54.9707 36.4625 54.9707 35.9175L54.9707 31.8381Z" fill="#6E7E92"/>
  <path fill-rule="evenodd" clip-rule="evenodd" d="M93.4379 28.5574L52.4701 23.7199L52.5211 23.2881L93.4889 28.1256L93.4379 28.5574Z" fill="#6E7E92"/>
  <path fill-rule="evenodd" clip-rule="evenodd" d="M93.4322 74.617L52.4688 67.5936L52.5422 67.165L93.5057 74.1885L93.4322 74.617Z" fill="#6E7E92"/>
  <path d="M102.883 3.04395L139.391 6.46999L93.4681 25.1129L52.4935 20.2271L102.883 3.04395Z" fill="#E0E4EC"/>
  <path fill-rule="evenodd" clip-rule="evenodd" d="M102.813 2.83781C102.842 2.82789 102.873 2.82425 102.904 2.82712L139.412 6.25317C139.512 6.26253 139.592 6.33885 139.607 6.43798C139.621 6.5371 139.566 6.63335 139.473 6.67104L93.5501 25.3139C93.5161 25.3277 93.4791 25.3327 93.4426 25.3283L52.468 20.4426C52.3673 20.4306 52.2882 20.3504 52.2776 20.2495C52.2669 20.1486 52.3275 20.0537 52.4236 20.021L102.813 2.83781ZM102.909 3.26436L53.4685 20.124L93.4385 24.89L138.485 6.60291L102.909 3.26436Z" fill="#6E7E92"/>
</svg>
