<svg viewBox="0 0 192 80" fill="none" xmlns="http://www.w3.org/2000/svg">
  <path d="M102.798 4.10883V44.9302L53.5854 69.3044V20.7939L102.798 4.10883Z" fill="#E0E4EC"/>
  <path fill-rule="evenodd" clip-rule="evenodd" d="M102.931 3.92404C102.991 3.96671 103.027 4.03554 103.027 4.10887V44.9302C103.027 45.0164 102.978 45.0952 102.9 45.1337L53.6874 69.5079C53.6166 69.543 53.5325 69.5391 53.4652 69.4977C53.3979 69.4562 53.3569 69.3831 53.3569 69.3044V20.794C53.3569 20.6967 53.4192 20.6103 53.5117 20.5789L102.725 3.89375C102.794 3.87009 102.871 3.88137 102.931 3.92404ZM53.8141 20.9566V68.9373L102.57 44.7895V4.42648L53.8141 20.9566Z" fill="#6E7E92"/>
  <path d="M138.472 49.785L102.799 44.9303L53.5282 69.3662L63.5405 70.9925L67.6457 68.9296L83.6951 71.7441V74.2947L93.5773 75.8712L138.472 49.785Z" fill="#E0E4EC"/>
  <path fill-rule="evenodd" clip-rule="evenodd" d="M102.697 44.727C102.738 44.7066 102.784 44.699 102.83 44.7052L138.503 49.5599C138.599 49.573 138.677 49.6456 138.696 49.7407C138.715 49.8358 138.671 49.9324 138.587 49.9813L93.6926 76.0675C93.6469 76.094 93.5933 76.104 93.541 76.0956L83.6589 74.5191C83.548 74.5015 83.4665 74.4064 83.4665 74.2947V71.9348L67.6808 69.1666L63.6435 71.1953C63.6003 71.217 63.5513 71.2246 63.5036 71.2168L53.4913 69.5906C53.3934 69.5747 53.317 69.4978 53.3022 69.4003C53.2873 69.3028 53.3374 69.2069 53.4261 69.1629L102.697 44.727ZM102.837 45.165L54.2637 69.2554L63.5038 70.7563L67.5425 68.7268C67.5866 68.7046 67.6367 68.6973 67.6853 68.7058L83.7348 71.5203C83.844 71.5394 83.9237 71.6338 83.9237 71.7441V74.101L93.5326 75.6339L137.785 49.921L102.837 45.165Z" fill="#6E7E92"/>
  <path d="M138.472 49.8064V7.43158L93.6117 25.5395L93.6117 75.898L138.472 49.8064Z" fill="#E0E4EC"/>
  <path fill-rule="evenodd" clip-rule="evenodd" d="M138.599 7.2431C138.662 7.28533 138.7 7.356 138.7 7.43162V49.8064C138.7 49.8872 138.657 49.9618 138.587 50.0026L93.727 76.0942C93.6564 76.1354 93.5689 76.1357 93.4979 76.0952C93.4269 76.0547 93.3831 75.9795 93.3831 75.8981L93.3831 25.5396C93.3831 25.4471 93.4394 25.3638 93.5257 25.329L138.386 7.22104C138.456 7.19259 138.536 7.20086 138.599 7.2431ZM93.8402 25.6926L93.8402 75.5018L138.243 49.6761V7.76917L93.8402 25.6926Z" fill="#6E7E92"/>
  <path d="M136.562 48.9002V10.8837L134.479 11.7464L132.396 12.609L129.749 13.7053L126.711 14.9634L123.022 16.491L119.247 18.0546L115.471 19.6182L111.088 21.4333L106.401 23.3743L101.551 25.3827L96.0286 27.6697V72.0295L101.551 68.8782L106.401 66.1109L111.088 63.4365L115.471 60.9353L119.247 58.7809L123.022 56.6265L126.711 54.5216L129.749 52.7881L132.396 51.2775L134.479 50.0889L136.562 48.9002Z" fill="#E0E4EC"/>
  <path fill-rule="evenodd" clip-rule="evenodd" d="M136.689 10.6946C136.753 10.7368 136.791 10.8077 136.791 10.8837V48.9002C136.791 48.9816 136.747 49.0568 136.676 49.0973L96.1424 72.2266C96.0717 72.2669 95.9847 72.2667 95.9141 72.2261C95.8435 72.1855 95.8 72.1105 95.8 72.0294V27.6697C95.8 27.5779 95.8555 27.4951 95.9407 27.4599L136.475 10.6739C136.545 10.6447 136.626 10.6525 136.689 10.6946ZM134.708 11.8979V49.6964L136.334 48.7686V11.2246L134.708 11.8979ZM134.251 49.9572V12.0872L132.625 12.7606V50.885L134.251 49.9572ZM132.168 51.1459V12.9499L129.978 13.8568V52.3956L132.168 51.1459ZM129.52 52.6565V14.0462L126.94 15.1149V54.1291L129.52 52.6565ZM126.483 54.3899V15.3042L123.251 16.6425V56.234L126.483 54.3899ZM122.794 56.4948V16.8318L119.475 18.2061V58.3884L122.794 56.4948ZM119.018 58.6493V18.3954L115.7 19.7697V60.5428L119.018 58.6493ZM115.242 60.8037V19.959L111.316 21.5849V63.044L115.242 60.8037ZM110.859 63.3048V21.7742L106.629 23.5258V65.7184L110.859 63.3048ZM106.172 65.9793V23.7152L101.78 25.5342V68.4857L106.172 65.9793ZM101.323 68.7466V25.7235L96.2572 27.8212V71.637L101.323 68.7466Z" fill="#6E7E92"/>
  <path fill-rule="evenodd" clip-rule="evenodd" d="M73.3995 70.0841L73.3995 26.4642L73.8567 26.4642L73.8567 70.0841L73.3995 70.0841Z" fill="#6E7E92"/>
  <path d="M53.6879 69.3871L63.6944 71.0148L67.6855 68.9344L83.7075 71.7191V74.2702L93.714 75.8979V25.621L53.6879 20.8754L53.6879 69.3871Z" fill="#E0E4EC"/>
  <path fill-rule="evenodd" clip-rule="evenodd" d="M53.536 20.7055C53.5849 20.6623 53.65 20.642 53.7149 20.6497L93.741 25.3953C93.856 25.4089 93.9425 25.5058 93.9425 25.6209V75.8978C93.9425 75.9645 93.9131 76.0278 93.8619 76.071C93.8108 76.1142 93.7432 76.1329 93.677 76.1221L83.6705 74.4944C83.56 74.4765 83.4788 74.3815 83.4788 74.2702V71.9101L67.7227 69.1716L63.8005 71.2161C63.7566 71.239 63.7064 71.2471 63.6574 71.2391L53.6509 69.6114C53.5404 69.5934 53.4592 69.4985 53.4592 69.3871V20.8754C53.4592 20.8104 53.4872 20.7486 53.536 20.7055ZM53.9164 21.1314V69.194L63.6559 70.7783L67.5793 68.7331C67.624 68.7099 67.6751 68.7019 67.7248 68.7106L83.7468 71.4953C83.8562 71.5143 83.936 71.6087 83.936 71.7191V74.077L93.4854 75.6304V25.8227L53.9164 21.1314Z" fill="#6E7E92"/>
  <path d="M74.9995 70.2589L91.1114 72.9947V30.9044L74.9995 28.9422L74.9995 70.2589Z" fill="#E0E4EC"/>
  <path fill-rule="evenodd" clip-rule="evenodd" d="M74.848 28.772C74.897 28.7288 74.9623 28.7087 75.0272 28.7166L91.1392 30.6788C91.2538 30.6928 91.3399 30.7896 91.3399 30.9044V72.9947C91.3399 73.0616 91.3102 73.1252 91.2588 73.1684C91.2073 73.2115 91.1393 73.23 91.0729 73.2187L74.961 70.4829C74.8512 70.4643 74.7709 70.3697 74.7709 70.2589L74.7709 28.9422C74.7709 28.8771 74.7989 28.8151 74.848 28.772ZM75.228 29.199L75.228 70.0672L90.8828 72.7253V31.1055L75.228 29.199Z" fill="#6E7E92"/>
  <path d="M56.2178 67.0491L72.2183 69.748V28.5724L56.2178 26.6272L56.2178 67.0491Z" fill="#E0E4EC"/>
  <path fill-rule="evenodd" clip-rule="evenodd" d="M56.0663 26.457C56.1153 26.4139 56.1806 26.3937 56.2456 26.4016L72.246 28.3468C72.3607 28.3608 72.4469 28.4576 72.4469 28.5724V69.748C72.4469 69.8149 72.4172 69.8784 72.3658 69.9216C72.3144 69.9648 72.2464 69.9832 72.1801 69.972L56.1796 67.2731C56.0697 67.2546 55.9893 67.1599 55.9893 67.049L55.9893 26.6272C55.9893 26.5621 56.0173 26.5001 56.0663 26.457ZM56.4464 26.8839L56.4464 66.8571L71.9897 69.4789V28.7736L56.4464 26.8839Z" fill="#6E7E92"/>
  <path fill-rule="evenodd" clip-rule="evenodd" d="M68.7744 24.1078C69.0269 24.1078 69.2316 24.3114 69.2316 24.5624L69.2315 68.9676C69.2315 69.2187 69.0269 69.4222 68.7744 69.4222C68.5219 69.4222 68.3173 69.2187 68.3173 68.9676L68.3173 24.5624C68.3173 24.3114 68.522 24.1078 68.7744 24.1078Z" fill="#6E7E92"/>
  <path fill-rule="evenodd" clip-rule="evenodd" d="M62.2645 23.2448C62.517 23.2448 62.7217 23.4483 62.7217 23.6994L62.7217 68.2318C62.7217 68.4828 62.517 68.6863 62.2645 68.6863C62.012 68.6863 61.8074 68.4828 61.8074 68.2318L61.8074 23.6994C61.8074 23.4483 62.012 23.2448 62.2645 23.2448Z" fill="#6E7E92"/>
  <path fill-rule="evenodd" clip-rule="evenodd" d="M78.322 25.1665C78.5745 25.1665 78.7792 25.37 78.7792 25.621L78.7792 70.5866C78.7792 70.8376 78.5745 71.0411 78.322 71.0411C78.0695 71.0411 77.8649 70.8376 77.8649 70.5866L77.8649 25.621C77.8649 25.37 78.0695 25.1665 78.322 25.1665Z" fill="#6E7E92"/>
  <path fill-rule="evenodd" clip-rule="evenodd" d="M84.3978 25.8237C84.6503 25.8237 84.855 26.0272 84.855 26.2782L84.855 71.6035C84.855 71.8545 84.6503 72.058 84.3978 72.058C84.1453 72.058 83.9407 71.8545 83.9407 71.6035L83.9407 26.2782C83.9407 26.0272 84.1453 25.8237 84.3978 25.8237Z" fill="#6E7E92"/>
  <path d="M90.5603 34.0988L93.6718 34.8324V32.0287L90.5603 31.9515V34.0988Z" fill="#E0E4EC"/>
  <path fill-rule="evenodd" clip-rule="evenodd" d="M90.4006 31.7889C90.4447 31.7461 90.5043 31.7228 90.5659 31.7244L93.6775 31.8015C93.8014 31.8046 93.9003 31.9054 93.9003 32.0287V34.8325C93.9003 34.902 93.8684 34.9676 93.8135 35.0107C93.7587 35.0538 93.687 35.0696 93.619 35.0536L90.5075 34.32C90.4044 34.2957 90.3317 34.2042 90.3317 34.0989V31.9516C90.3317 31.8903 90.3565 31.8317 90.4006 31.7889ZM90.7888 32.1846V33.9192L93.4432 34.545V32.2504L90.7888 32.1846Z" fill="#6E7E92"/>
  <path d="M56.7832 29.7406L53.6717 29.6871V26.4179L56.7832 27.1515V29.7406Z" fill="#E0E4EC"/>
  <path fill-rule="evenodd" clip-rule="evenodd" d="M53.5299 26.2396C53.475 26.2827 53.4431 26.3484 53.4431 26.4179V29.6871C53.4431 29.8111 53.543 29.9122 53.6677 29.9144L56.7792 29.9678C56.8405 29.9689 56.8996 29.9454 56.9434 29.9026C56.9871 29.8599 57.0117 29.8015 57.0117 29.7406V27.1515C57.0117 27.0461 56.9389 26.9546 56.8359 26.9303L53.7244 26.1967C53.6564 26.1807 53.5847 26.1965 53.5299 26.2396ZM56.5546 27.3312V29.5093L53.9002 29.4638V26.7054L56.5546 27.3312Z" fill="#6E7E92"/>
  <path d="M56.7832 41.3484L53.6717 41.2949V38.0257L56.7832 38.7593V41.3484Z" fill="#E0E4EC"/>
  <path fill-rule="evenodd" clip-rule="evenodd" d="M53.5299 37.8474C53.475 37.8905 53.4431 37.9562 53.4431 38.0257V41.2949C53.4431 41.4189 53.543 41.52 53.6677 41.5222L56.7792 41.5756C56.8405 41.5766 56.8996 41.5532 56.9434 41.5104C56.9871 41.4677 57.0117 41.4093 57.0117 41.3483V38.7593C57.0117 38.6539 56.9389 38.5624 56.8359 38.5381L53.7244 37.8045C53.6564 37.7885 53.5847 37.8043 53.5299 37.8474ZM56.5546 38.9389V41.1171L53.9002 41.0715V38.3131L56.5546 38.9389Z" fill="#6E7E92"/>
  <path d="M56.7832 52.654L53.6717 52.6006V49.3314L56.7832 50.0649V52.654Z" fill="#E0E4EC"/>
  <path fill-rule="evenodd" clip-rule="evenodd" d="M53.5299 49.1531C53.475 49.1962 53.4431 49.2618 53.4431 49.3313V52.6006C53.4431 52.7246 53.543 52.8257 53.6677 52.8278L56.7792 52.8812C56.8405 52.8823 56.8996 52.8588 56.9434 52.8161C56.9871 52.7734 57.0117 52.715 57.0117 52.654V50.0649C57.0117 49.9596 56.9389 49.8681 56.8359 49.8438L53.7244 49.1102C53.6564 49.0942 53.5847 49.11 53.5299 49.1531ZM56.5546 50.2446V52.4228L53.9002 52.3772V49.6188L56.5546 50.2446Z" fill="#6E7E92"/>
  <path d="M56.7832 64.2187L53.6717 64.1653V60.896L56.7832 61.6296V64.2187Z" fill="#E0E4EC"/>
  <path fill-rule="evenodd" clip-rule="evenodd" d="M53.5299 60.7177C53.475 60.7608 53.4431 60.8265 53.4431 60.896V64.1652C53.4431 64.2892 53.543 64.3903 53.6677 64.3925L56.7792 64.4459C56.8405 64.4469 56.8996 64.4235 56.9434 64.3807C56.9871 64.338 57.0117 64.2796 57.0117 64.2187V61.6296C57.0117 61.5242 56.9389 61.4327 56.8359 61.4084L53.7244 60.6748C53.6564 60.6588 53.5847 60.6746 53.5299 60.7177ZM56.5546 61.8092V63.9874L53.9002 63.9418V61.1834L56.5546 61.8092Z" fill="#6E7E92"/>
  <path d="M90.5603 46.0416L93.6718 46.7752V43.9714L90.5603 43.8943V46.0416Z" fill="#E0E4EC"/>
  <path fill-rule="evenodd" clip-rule="evenodd" d="M90.4006 43.7316C90.4447 43.6888 90.5043 43.6655 90.5659 43.6671L93.6775 43.7442C93.8014 43.7473 93.9003 43.8481 93.9003 43.9714V46.7751C93.9003 46.8446 93.8684 46.9103 93.8135 46.9534C93.7587 46.9965 93.687 47.0123 93.619 46.9963L90.5075 46.2627C90.4044 46.2384 90.3317 46.1469 90.3317 46.0416V43.8943C90.3317 43.833 90.3565 43.7743 90.4006 43.7316ZM90.7888 44.1273V45.8619L93.4432 46.4877V44.1931L90.7888 44.1273Z" fill="#6E7E92"/>
  <path d="M90.5603 57.9843L93.6718 58.7178V55.9141L90.5603 55.837V57.9843Z" fill="#E0E4EC"/>
  <path fill-rule="evenodd" clip-rule="evenodd" d="M90.4006 55.6743C90.4447 55.6315 90.5043 55.6082 90.5659 55.6098L93.6775 55.6869C93.8014 55.69 93.9003 55.7908 93.9003 55.9141V58.7178C93.9003 58.7873 93.8684 58.853 93.8135 58.8961C93.7587 58.9392 93.687 58.955 93.619 58.939L90.5075 58.2054C90.4044 58.1811 90.3317 58.0896 90.3317 57.9843V55.837C90.3317 55.7757 90.3565 55.717 90.4006 55.6743ZM90.7888 56.07V57.8046L93.4432 58.4304V56.1358L90.7888 56.07Z" fill="#6E7E92"/>
  <path d="M90.5603 69.9271L93.6718 70.5846V67.8569L90.5603 67.7797V69.9271Z" fill="#E0E4EC"/>
  <path fill-rule="evenodd" clip-rule="evenodd" d="M90.4006 67.617C90.4447 67.5742 90.5043 67.551 90.5659 67.5525L93.6775 67.6296C93.8014 67.6327 93.9003 67.7335 93.9003 67.8569V70.5846C93.9003 70.6531 93.8692 70.718 93.8156 70.7612C93.762 70.8043 93.6917 70.8211 93.6242 70.8069L90.5127 70.1493C90.4072 70.127 90.3317 70.0343 90.3317 69.927V67.7797C90.3317 67.7184 90.3565 67.6598 90.4006 67.617ZM90.7888 68.0127V69.743L93.4432 70.3039V68.0785L90.7888 68.0127Z" fill="#6E7E92"/>
  <path fill-rule="evenodd" clip-rule="evenodd" d="M93.5806 28.9021L53.5612 24.2034L53.6148 23.752L93.6342 28.4507L93.5806 28.9021Z" fill="#6E7E92"/>
  <path fill-rule="evenodd" clip-rule="evenodd" d="M93.5741 73.6394L53.5588 66.8175L53.6361 66.3695L93.6513 73.1914L93.5741 73.6394Z" fill="#6E7E92"/>
  <path d="M53.5556 69.2957L63.697 71.0379V68.325L53.5555 66.6333L53.5556 69.2957Z" fill="#E0E4EC"/>
  <path fill-rule="evenodd" clip-rule="evenodd" d="M53.4079 66.4599C53.4593 66.4167 53.5271 66.3981 53.5934 66.4092L63.7349 68.1009C63.845 68.1193 63.9256 68.214 63.9256 68.325V71.0379C63.9256 71.105 63.8958 71.1686 63.8443 71.2118C63.7927 71.255 63.7246 71.2733 63.6581 71.2619L53.5167 69.5196C53.4071 69.5008 53.3271 69.4063 53.3271 69.2957L53.327 66.6333C53.327 66.5665 53.3566 66.503 53.4079 66.4599ZM53.7842 66.9019L53.7842 69.1043L63.4685 70.768V68.5174L53.7842 66.9019Z" fill="#6E7E92"/>
  <path d="M102.809 4.104L138.472 7.43173L93.6116 25.5396L53.5854 20.794L102.809 4.104Z" fill="#E0E4EC"/>
  <path fill-rule="evenodd" clip-rule="evenodd" d="M102.735 3.88887C102.766 3.87851 102.798 3.8747 102.83 3.8777L138.493 7.20543C138.598 7.21522 138.683 7.29501 138.698 7.39864C138.713 7.50227 138.656 7.60289 138.558 7.64229L93.6979 25.7501C93.6621 25.7646 93.6232 25.7698 93.5848 25.7652L53.5587 21.0197C53.4527 21.0071 53.3696 20.9234 53.3584 20.8178C53.3473 20.7123 53.411 20.6132 53.512 20.5789L102.735 3.88887ZM102.836 4.33481L54.6106 20.6866L93.5805 25.3069L137.519 7.57106L102.836 4.33481Z" fill="#6E7E92"/>
</svg>
