<svg viewBox="0 0 192 80" fill="none" xmlns="http://www.w3.org/2000/svg">
  <path fill-rule="evenodd" clip-rule="evenodd" d="M102.873 45.0763V3.04883L52.4935 20.2269V70.1707L53.9556 69.4424V21.5745L101.347 5.57766V45.8363L102.873 45.0763Z" fill="#6E7E92"/>
  <path fill-rule="evenodd" clip-rule="evenodd" d="M102.813 2.83781C102.842 2.82789 102.873 2.82425 102.904 2.82712L139.412 6.25317C139.512 6.26253 139.592 6.33885 139.607 6.43798C139.621 6.5371 139.566 6.63335 139.473 6.67104L93.5501 25.3139C93.5161 25.3277 93.4791 25.3327 93.4426 25.3283L52.468 20.4426C52.3673 20.4306 52.2882 20.3504 52.2776 20.2495C52.2669 20.1486 52.3275 20.0537 52.4236 20.021L102.813 2.83781ZM102.909 3.26436L53.4685 20.124L93.4385 24.89L138.485 6.60291L102.909 3.26436Z" fill="#6E7E92"/>
  <path fill-rule="evenodd" clip-rule="evenodd" d="M139.391 6.46999L102.883 3.04395L102.883 44.9966L138.738 49.9966L139.391 6.46999ZM136.783 7.12217L104.173 4.1309L104.173 43.4749L136.13 48.0401L136.783 7.12217Z" fill="#6E7E92"/>
  <path d="M139.391 50.0743L102.872 45.0762L52.4346 70.2341L62.6841 71.9084L66.8866 69.7845L83.3163 72.6822V75.3082L93.4327 76.9313L139.391 50.0743Z" fill="#C9CFDB"/>
  <path fill-rule="evenodd" clip-rule="evenodd" d="M102.592 44.8822C102.631 44.8627 102.675 44.8555 102.718 44.8614L139.237 49.8595C139.329 49.8721 139.403 49.9416 139.421 50.0325C139.439 50.1234 139.397 50.2158 139.317 50.2626L93.3587 77.1196C93.3153 77.145 93.2643 77.1545 93.2146 77.1465L83.0983 75.5234C82.9929 75.5065 82.9153 75.4155 82.9153 75.3088V72.8652L66.7365 70.0118L62.5985 72.103C62.5575 72.1238 62.5108 72.1309 62.4654 72.1235L52.2159 70.4492C52.1228 70.434 52.0501 70.3605 52.036 70.2672C52.0219 70.174 52.0695 70.0822 52.1539 70.0401L102.592 44.8822ZM102.726 45.3012L52.9505 70.1287L62.4656 71.683L66.6049 69.5911C66.6468 69.5699 66.6945 69.5629 66.7407 69.571L83.1705 72.4687C83.2744 72.487 83.3501 72.5773 83.3501 72.6828V75.1235L93.2066 76.7049L138.554 50.2049L102.726 45.3012Z" fill="#6E7E92"/>
  <path d="M57.82 45.5893C57.8931 34.8341 63.8977 25.3133 72.7081 21.9833L108.77 6.89802C122.152 1.84027 135.806 13.4436 135.695 29.7788C135.627 39.7413 130.272 48.651 122.239 52.1664L86.6823 68.9506C72.6279 75.1011 57.7017 63.0198 57.82 45.5893Z" fill="#E0E4EC"/>
  <path fill-rule="evenodd" clip-rule="evenodd" d="M108.81 6.99912L84.6174 17.1194C90.6849 15.6047 96.724 17.3126 101.458 21.1809C106.998 25.7072 110.754 33.1911 110.694 41.9379C110.638 50.1799 107.168 57.3667 101.587 61.7948L122.193 52.0682L122.195 52.0669C130.183 48.5715 135.518 39.7051 135.586 29.7782C135.641 21.641 132.268 14.6876 127.222 10.399C122.177 6.11161 115.46 4.48671 108.81 6.99912ZM99.3896 63.0725C98.2458 63.779 97.032 64.379 95.7573 64.8608C95.7011 64.882 95.6728 64.9447 95.694 65.0009C95.7152 65.057 95.778 65.0854 95.8341 65.0641C97.5908 64.4002 99.2322 63.5145 100.736 62.4371L122.283 52.266C122.283 52.2658 122.284 52.2656 122.284 52.2654C130.362 48.7296 135.735 39.7771 135.803 29.7796C135.859 21.5816 132.46 14.5658 127.362 10.2333C122.263 5.90009 115.463 4.25209 108.732 6.79645L82.1305 17.924C81.9273 18.0051 81.7243 18.09 81.5215 18.1788C81.5213 18.1789 81.521 18.179 81.5207 18.1791L72.6678 21.8824C63.8091 25.2317 57.7845 34.7975 57.7113 45.5886C57.6519 54.3351 61.3673 61.7451 66.868 66.1974C72.3698 70.6506 79.6576 72.1435 86.7258 69.0503L86.7286 69.049L99.3896 63.0725ZM100.624 62.2494C106.632 57.9356 110.419 50.52 110.477 41.9364C110.536 33.2527 106.808 25.8322 101.321 21.3492C95.9933 16.9963 89.0092 15.4129 82.2124 18.1254L81.6079 18.3783C81.6072 18.3786 81.6065 18.3789 81.6058 18.3792L72.7465 22.0851C63.9853 25.3966 58.0014 34.8716 57.9287 45.5901C57.8697 54.2741 61.5582 61.62 67.0047 66.0284C72.4497 70.4356 79.6516 71.9083 86.6374 68.8517C86.6378 68.8515 86.6382 68.8513 86.6387 68.8511L100.624 62.2494Z" fill="#0C263F"/>
  <path fill-rule="evenodd" clip-rule="evenodd" d="M62.8376 71.9307L52.598 70.2556V20.3105L93.5726 25.1963V76.9587L83.371 75.2898L91.1294 76.5412V26.518L54.825 22.225V70.4309L62.8376 71.9307Z" fill="#6E7E92"/>
  <path d="M52.4623 70.1619L62.844 71.9556V69.1626L52.4623 67.4209L52.4623 70.1619Z" fill="#C9CFDB"/>
  <path fill-rule="evenodd" clip-rule="evenodd" d="M52.3221 67.2546C52.3709 67.2133 52.4354 67.1955 52.4985 67.2061L62.8802 68.9478C62.9849 68.9654 63.0617 69.056 63.0617 69.1622V71.9553C63.0617 72.0194 63.0333 72.0803 62.9843 72.1216C62.9352 72.1629 62.8704 72.1804 62.8073 72.1695L52.4255 70.3758C52.3213 70.3578 52.2452 70.2673 52.2452 70.1616L52.2451 67.4205C52.2451 67.3566 52.2733 67.2959 52.3221 67.2546ZM52.6799 67.6774L52.6799 69.9785L62.6269 71.6971V69.3462L52.6799 67.6774Z" fill="#6E7E92"/>
  <path fill-rule="evenodd" clip-rule="evenodd" d="M139.391 6.46973V50.0965L93.4683 76.9591L93.4683 25.1127L139.391 6.46973ZM137.436 10.0238V49.1635L95.9421 72.9761V27.3057L137.436 10.0238Z" fill="#6E7E92"/>
  <path fill-rule="evenodd" clip-rule="evenodd" d="M93.4322 74.617L52.4688 67.5936L52.5422 67.165L93.5057 74.1885L93.4322 74.617Z" fill="#6E7E92"/>
</svg>
