<svg viewBox="0 0 192 80" fill="none" xmlns="http://www.w3.org/2000/svg">
  <path d="M141.943 40.6926V38.9503L115.153 35.698L56.1994 64.4776L50.5143 67.2529L50.5143 69.3824L56.1994 70.3116L59.4313 68.6468L74.026 71.1396V73.4282L82.8927 74.8427L141.943 40.6926Z" fill="#E0E4EC"/>
  <path fill-rule="evenodd" clip-rule="evenodd" d="M115.052 35.494C115.092 35.4745 115.137 35.467 115.181 35.4724L141.971 38.7247C142.085 38.7386 142.171 38.8354 142.171 38.9503V40.6926C142.171 40.7735 142.128 40.8483 142.058 40.889L83.0077 75.0392C82.9621 75.0655 82.9087 75.0754 82.8566 75.0671L73.9898 73.6526C73.879 73.6349 73.7974 73.5398 73.7974 73.4282V71.3312L59.4683 68.8837L56.3046 70.5134C56.2608 70.5359 56.2109 70.5438 56.1623 70.5359L50.4773 69.6066C50.3668 69.5886 50.2858 69.4937 50.2858 69.3824V67.2529C50.2858 67.1662 50.3354 67.0871 50.4136 67.0489L115.052 35.494ZM115.193 35.9318L56.428 64.6192V69.9379L59.3262 68.4449C59.3704 68.4221 59.4209 68.4144 59.47 68.4227L74.0647 70.9156C74.1744 70.9344 74.2546 71.0289 74.2546 71.1396V73.2345L82.8484 74.6054L141.714 40.5618V39.1515L115.193 35.9318ZM55.9708 70.0439V64.8424L50.7429 67.3945V69.1894L55.9708 70.0439Z" fill="#6E7E92"/>
  <path d="M115.153 35.698L141.943 38.9116L82.9236 72.6347L50.5143 67.2142V66.1301L82.9236 51.1297L115.153 35.698Z" fill="#E0E4EC"/>
  <path fill-rule="evenodd" clip-rule="evenodd" d="M115.054 35.4932C115.093 35.4744 115.137 35.4671 115.18 35.4723L141.97 38.686C142.068 38.6977 142.147 38.7703 142.167 38.8663C142.187 38.9622 142.142 39.0599 142.057 39.1087L83.0376 72.8317C82.9916 72.858 82.938 72.8675 82.8858 72.8588L50.4764 67.4383C50.3664 67.4199 50.2858 67.3251 50.2858 67.2142V66.1301C50.2858 66.0417 50.3373 65.9613 50.4179 65.924L82.8245 50.9249L82.8272 50.9236L115.054 35.4932ZM82.6951 51.4861L50.7429 66.275V67.0219L82.6951 72.366V51.4861ZM83.1523 72.2419V51.2725L115.192 35.9316L141.233 39.0553L83.1523 72.2419Z" fill="#6E7E92"/>
  <path d="M115.153 35.698L118.346 36.0852L121.539 36.4724L124.732 36.8595L127.925 37.2467L131.118 37.6339L134.311 38.0211L137.504 38.4082L140.697 38.7954L82.9236 71.5506L78.9163 70.873L74.9089 70.1955L70.9016 69.5179L66.8942 68.8403L62.8868 68.1628L58.8795 67.4852L54.8721 66.8076L50.8647 66.1301L115.153 35.698Z" fill="#E0E4EC"/>
  <path fill-rule="evenodd" clip-rule="evenodd" d="M115.055 35.4928C115.094 35.4742 115.138 35.4672 115.181 35.4724L140.725 38.5698C140.822 38.5817 140.902 38.6545 140.921 38.7506C140.94 38.8467 140.896 38.9443 140.81 38.9928L83.0369 71.748C82.991 71.774 82.9375 71.7834 82.8854 71.7746L50.8265 66.3541C50.7282 66.3375 50.6521 66.2595 50.6384 66.1613C50.6247 66.0631 50.6766 65.9675 50.7666 65.9249L115.055 35.4928ZM115.191 35.9316L51.6155 66.0265L54.8381 66.5713L117.55 36.2176L115.191 35.9316ZM118.385 36.3189L55.6122 66.7022L58.8444 67.2487L120.755 36.6063L118.385 36.3189ZM121.579 36.7062L59.609 67.378L62.8506 67.9261L123.961 36.9949L121.579 36.7062ZM124.773 37.0935L63.606 68.0538L66.8568 68.6035L127.166 37.3836L124.773 37.0935ZM127.968 37.4808L67.6031 68.7296L70.863 69.2808L130.37 37.7722L127.968 37.4808ZM131.162 37.8681L71.6002 69.4055L74.8692 69.9582L133.575 38.1608L131.162 37.8681ZM134.356 38.2555L75.5975 70.0813L78.8753 70.6355L136.78 38.5494L134.356 38.2555ZM137.55 38.6428L79.5949 70.7572L82.8815 71.3129L139.984 38.9379L137.55 38.6428Z" fill="#6E7E92"/>
  <path d="M94.5153 67.7175L89.2196 70.7762V69.4211L94.5153 66.4011V67.7175Z" fill="#E0E4EC"/>
  <path fill-rule="evenodd" clip-rule="evenodd" d="M94.6298 66.2044C94.7004 66.2451 94.7438 66.32 94.7438 66.4011V67.7175C94.7438 67.7985 94.7005 67.8733 94.63 67.914L89.3343 70.9727C89.2636 71.0136 89.1764 71.0137 89.1055 70.9732C89.0346 70.9326 88.991 70.8575 88.991 70.7762V69.4211C88.991 69.3396 89.0348 69.2644 89.1058 69.2239L94.4015 66.204C94.4722 66.1636 94.5592 66.1638 94.6298 66.2044ZM89.4481 69.5527V70.3813L94.2867 67.5867V66.7934L89.4481 69.5527Z" fill="#6E7E92"/>
  <path d="M136.881 42.2026V43.2093L132.831 45.5483V44.512L136.881 42.2026Z" fill="#E0E4EC"/>
  <path fill-rule="evenodd" clip-rule="evenodd" d="M136.995 42.006C137.066 42.0466 137.109 42.1215 137.109 42.2026V43.2093C137.109 43.2903 137.066 43.3651 136.996 43.4058L132.946 45.7448C132.875 45.7856 132.788 45.7858 132.717 45.7453C132.646 45.7047 132.603 45.6296 132.603 45.5483V44.512C132.603 44.4306 132.646 44.3554 132.717 44.3149L136.767 42.0055C136.838 41.9651 136.925 41.9653 136.995 42.006ZM133.06 44.6437V45.1534L136.652 43.0785V42.595L133.06 44.6437Z" fill="#6E7E92"/>
  <path d="M53.24 29.8129L85.4035 33.7234V71.1633L82.9115 72.5572L81.0035 35.5818L50.5143 30.7421L53.24 29.8129Z" fill="#E0E4EC"/>
  <path fill-rule="evenodd" clip-rule="evenodd" d="M53.1659 29.5979C53.1987 29.5867 53.2335 29.5831 53.2678 29.5873L85.4314 33.4977C85.546 33.5117 85.6322 33.6085 85.6322 33.7233V71.1633C85.6322 71.2454 85.5876 71.3212 85.5157 71.3614L83.0236 72.7552C82.9546 72.7938 82.8705 72.7942 82.8012 72.7562C82.7319 72.7183 82.6873 72.6474 82.6832 72.5688L80.7847 35.7772L50.4783 30.9665C50.3747 30.95 50.2956 30.8655 50.2866 30.7616C50.2776 30.6576 50.3409 30.5609 50.4402 30.5271L53.1659 29.5979ZM81.24 35.7288L83.1209 72.1793L85.175 71.0304V34.0668L81.24 35.7288ZM84.5287 33.8459L53.2645 30.0448L51.4558 30.6614L80.9746 35.347L84.5287 33.8459Z" fill="#6E7E92"/>
  <path d="M54.5641 62.9938V66.943L55.7323 66.4009V62.7615L54.5641 62.9938Z" fill="#E0E4EC"/>
  <path fill-rule="evenodd" clip-rule="evenodd" d="M55.8772 62.5857C55.9302 62.6289 55.9609 62.6934 55.9609 62.7615V66.4009C55.9609 66.4892 55.9094 66.5695 55.829 66.6069L54.7927 67.0877V67.7948H54.3356V62.9938C54.3356 62.8854 54.4125 62.7921 54.5193 62.7709L55.6875 62.5386C55.7546 62.5252 55.8243 62.5425 55.8772 62.5857ZM54.7927 66.5861L55.5037 66.2562V63.0387L54.7927 63.1801V66.5861Z" fill="#6E7E92"/>
  <path fill-rule="evenodd" clip-rule="evenodd" d="M54.6029 67.8593L50.5143 67.1753V30.7419L82.9115 34.7686V72.5957L78.9008 71.9247V66.9042L54.6029 63.0712V67.8593Z" fill="#E0E4EC"/>
  <path fill-rule="evenodd" clip-rule="evenodd" d="M50.3631 30.5715C50.4122 30.5284 50.4776 30.5083 50.5427 30.5164L82.9399 34.543C83.0543 34.5573 83.1401 34.6539 83.1401 34.7686V72.5957C83.1401 72.6626 83.1105 72.7261 83.0591 72.7692C83.0078 72.8124 82.9399 72.8309 82.8736 72.8198L78.8629 72.1488C78.7528 72.1304 78.6722 72.0356 78.6722 71.9247V67.0982L54.8315 63.3374V67.8593C54.8315 67.9262 54.8019 67.9897 54.7505 68.0329C54.6992 68.076 54.6313 68.0945 54.565 68.0834L50.4764 67.3994C50.3664 67.381 50.2858 67.2862 50.2858 67.1753V30.7419C50.2858 30.6767 50.3139 30.6147 50.3631 30.5715ZM50.7429 30.9994V66.983L54.3744 67.5906V63.0712C54.3744 63.0047 54.4036 62.9416 54.4545 62.8984C54.5054 62.8552 54.5727 62.8363 54.6387 62.8467L78.9366 66.6797C79.0476 66.6972 79.1294 66.7924 79.1294 66.9042V71.7325L82.683 72.327V34.9692L50.7429 30.9994Z" fill="#6E7E92"/>
  <path d="M51.9551 59.7416L51.7993 31.8262L55.4547 32.2956L59.1101 32.7651L62.8628 33.247L66.4209 33.704L70.0763 34.1734L73.7317 34.6429L77.387 35.1123L81.0424 35.5818V64.349L77.4065 63.7731L73.7706 63.1972L70.1347 62.6212L66.4988 62.0453L62.8628 61.4694L59.2269 60.8935L55.591 60.3175L51.9551 59.7416Z" fill="#E0E4EC"/>
  <path fill-rule="evenodd" clip-rule="evenodd" d="M51.6479 31.6559C51.6973 31.6124 51.7631 31.5924 51.8285 31.6008L81.0716 35.3564C81.1856 35.371 81.2709 35.4675 81.2709 35.5818V64.349C81.2709 64.4155 81.2416 64.4787 81.1907 64.5219C81.1398 64.5651 81.0725 64.5839 81.0064 64.5734L51.919 59.966C51.8086 59.9485 51.7271 59.8541 51.7264 59.7429L51.5707 31.8274C51.5703 31.7618 51.5985 31.6993 51.6479 31.6559ZM52.0293 32.0849L52.1825 59.5475L55.3611 60.051L55.227 32.4955L52.0293 32.0849ZM55.6845 32.5543L55.8186 60.1234L58.9972 60.6269L58.8823 32.965L55.6845 32.5543ZM59.3397 33.0237L59.4546 60.6994L62.6342 61.203V33.4468L59.3397 33.0237ZM63.0913 33.5055V61.2754L66.2694 61.7788L66.1928 33.9038L63.0913 33.5055ZM66.6501 33.9626L66.7267 61.8513L69.9055 62.3548L69.848 34.3733L66.6501 33.9626ZM70.3053 34.432L70.3628 62.4272L73.5416 62.9307L73.5033 34.8427L70.3053 34.432ZM73.9605 34.9014L73.9988 63.0032L77.1777 63.5067L77.1585 35.3121L73.9605 34.9014ZM77.6157 35.3709L77.6349 63.5791L80.8138 64.0826V35.7816L77.6157 35.3709Z" fill="#6E7E92"/>
  <path d="M115.62 5.22729L141.943 7.51164V38.9504L140.736 39.6086L140.697 36.4337L140.658 36.4296L118.307 34.072V36.0853L116.983 36.7048V35.6594L113.946 6.07908L115.62 5.22729Z" fill="#E0E4EC"/>
  <path fill-rule="evenodd" clip-rule="evenodd" d="M115.516 5.02494C115.554 5.00549 115.597 4.99715 115.64 5.00086L141.963 7.2852C142.081 7.29545 142.172 7.39376 142.172 7.51162V38.9504C142.172 39.0333 142.126 39.1097 142.053 39.1496L140.846 39.8078C140.775 39.8462 140.69 39.8451 140.621 39.8048C140.551 39.7646 140.508 39.6911 140.507 39.6113L140.471 36.6384L118.536 34.3246V36.0853C118.536 36.1733 118.484 36.2534 118.404 36.2909L117.08 36.9104C117.01 36.9435 116.927 36.9383 116.861 36.8966C116.795 36.8549 116.755 36.7825 116.755 36.7047V35.6709L113.718 6.10214C113.709 6.00892 113.758 5.91941 113.842 5.87673L115.516 5.02494ZM115.666 5.45937L114.189 6.2106L117.21 35.6363C117.211 35.6439 117.212 35.6517 117.212 35.6594V36.3466L118.078 35.941V34.0719C118.078 34.0075 118.106 33.9461 118.154 33.903C118.202 33.8599 118.267 33.8391 118.331 33.8459L140.429 36.1769V8.44084C140.429 8.36813 140.464 8.2998 140.524 8.25704L141.314 7.6852L115.666 5.45937ZM141.714 7.95793L140.887 8.55657V36.3068C140.911 36.3425 140.925 36.3852 140.925 36.4309L140.96 39.2273L141.714 38.8158V7.95793Z" fill="#6E7E92"/>
  <path fill-rule="evenodd" clip-rule="evenodd" d="M116.983 36.6525L113.946 36.2789V6.0791L140.697 8.40216V39.5699L136.725 39.0813V36.2788L116.983 33.9945V36.6525Z" fill="#E0E4EC"/>
  <path fill-rule="evenodd" clip-rule="evenodd" d="M113.791 5.91153C113.839 5.86848 113.902 5.84713 113.966 5.85267L140.717 8.17573C140.835 8.18598 140.925 8.28429 140.925 8.40214V39.5699C140.925 39.635 140.897 39.697 140.848 39.7402C140.799 39.7833 140.734 39.8034 140.669 39.7954L136.697 39.3068C136.583 39.2927 136.497 39.196 136.497 39.0812V36.4812L117.212 34.2497V36.6525C117.212 36.7177 117.184 36.7797 117.134 36.8228C117.085 36.8659 117.02 36.8861 116.955 36.8781L113.918 36.5044C113.803 36.4903 113.717 36.3936 113.717 36.2789V6.07908C113.717 6.01537 113.744 5.95458 113.791 5.91153ZM114.174 6.32707V36.078L116.755 36.3954V33.9945C116.755 33.9296 116.782 33.8679 116.831 33.8247C116.88 33.7816 116.945 33.7612 117.01 33.7687L136.752 36.0531C136.867 36.0664 136.954 36.1635 136.954 36.2788V38.8804L140.468 39.3127V8.61043L114.174 6.32707Z" fill="#6E7E92"/>
  <path d="M117.801 8.32471L120.439 8.56185L123.077 8.799L125.715 9.03614L128.353 9.27329L130.991 9.51044L133.63 9.74758L136.268 9.98473L138.906 10.2219V33.0653L136.268 32.7628L133.63 32.4604L130.991 32.1579L128.353 31.8554L125.715 31.553L123.077 31.2505L120.439 30.948L117.801 30.6456V8.32471Z" fill="#E0E4EC"/>
  <path fill-rule="evenodd" clip-rule="evenodd" d="M117.647 8.15702C117.694 8.11396 117.757 8.09271 117.821 8.09846L138.926 9.99562C139.044 10.0062 139.134 10.1044 139.134 10.222V33.0654C139.134 33.1302 139.106 33.1919 139.058 33.2351C139.009 33.2782 138.944 33.2986 138.88 33.2912L117.775 30.8715C117.659 30.8582 117.572 30.7611 117.572 30.6457V8.32481C117.572 8.26097 117.599 8.20008 117.647 8.15702ZM118.029 8.57355V30.4431L120.21 30.6932V8.76961L118.029 8.57355ZM120.668 8.8107V30.7456L122.848 30.9956V9.00675L120.668 8.8107ZM123.306 9.04785V31.048L125.487 31.2981V9.2439L123.306 9.04785ZM125.944 9.28499V31.3505L128.125 31.6006V9.48104L125.944 9.28499ZM128.582 9.52214V31.653L130.763 31.903V9.71819L128.582 9.52214ZM131.22 9.75928V31.9554L133.401 32.2055V9.95534L131.22 9.75928ZM133.858 9.99643V32.2579L136.039 32.5079V10.1925L133.858 9.99643ZM136.496 10.2336V32.5604L138.677 32.8104V10.4296L136.496 10.2336Z" fill="#6E7E92"/>
</svg>
