<svg viewBox="0 0 192 80" fill="none" xmlns="http://www.w3.org/2000/svg">
  <path d="M139.886 40.0603V38.318L113.096 35.0657L48.457 66.6206L48.457 68.7501L54.1421 69.6793L57.374 68.0144L71.9687 70.5073V72.7959L80.8355 74.2104L139.886 40.0603Z" fill="#E0E4EC"/>
  <path fill-rule="evenodd" clip-rule="evenodd" d="M112.995 34.8616C113.035 34.8422 113.079 34.8347 113.123 34.8401L139.913 38.0923C140.028 38.1063 140.114 38.2031 140.114 38.3179V40.0602C140.114 40.1412 140.071 40.216 140.001 40.2567L80.9504 74.4068C80.9048 74.4332 80.8514 74.4431 80.7993 74.4348L71.9325 73.0203C71.8217 73.0026 71.7402 72.9075 71.7402 72.7959V70.6989L57.4111 68.2513L54.2473 69.8811C54.2036 69.9036 54.1537 69.9115 54.1051 69.9035L48.42 68.9743C48.3096 68.9563 48.2285 68.8613 48.2285 68.75V66.6206C48.2285 66.5339 48.2781 66.4548 48.3564 66.4166L112.995 34.8616ZM113.135 35.2994L48.6857 66.7622V68.5571L54.1044 69.4428L57.269 67.8126C57.3132 67.7898 57.3637 67.782 57.4128 67.7904L72.0075 70.2833C72.1172 70.302 72.1973 70.3966 72.1973 70.5073V72.6021L80.7911 73.9731L139.657 39.9295V38.5191L113.135 35.2994Z" fill="#6E7E92"/>
  <path d="M114.458 34.4075L139.886 37.1564V38.2793L80.8664 72.0024L48.457 66.5819V65.4978L80.8664 50.4974L114.458 34.4075Z" fill="#E0E4EC"/>
  <path fill-rule="evenodd" clip-rule="evenodd" d="M114.359 34.2027C114.398 34.1843 114.441 34.1769 114.483 34.1815L139.91 36.9305C140.026 36.943 140.114 37.0404 140.114 37.1564V38.2793C140.114 38.3606 140.07 38.4358 140 38.4763L80.9803 72.1994C80.9344 72.2256 80.8807 72.2352 80.8285 72.2265L48.4192 66.8059C48.3091 66.7875 48.2285 66.6928 48.2285 66.5818V65.4977C48.2285 65.4093 48.28 65.329 48.3606 65.2917L80.7672 50.2926L80.77 50.2913L114.359 34.2027ZM80.6379 50.8538L48.6857 65.6426V66.3896L80.6379 71.7336V50.8538ZM81.095 71.6096V50.6401L114.499 34.6404L139.657 37.3603V38.1477L81.095 71.6096Z" fill="#6E7E92"/>
  <path d="M113.096 35.0657L116.289 35.4529L119.482 35.84L122.675 36.2272L125.868 36.6144L129.061 37.0016L132.254 37.3887L135.447 37.7759L138.64 38.1631L80.8664 70.9183L76.859 70.2407L72.8517 69.5631L68.8443 68.8856L64.8369 68.208L60.8296 67.5305L56.8222 66.8529L52.8149 66.1753L48.8075 65.4978L113.096 35.0657Z" fill="#E0E4EC"/>
  <path fill-rule="evenodd" clip-rule="evenodd" d="M112.997 34.8604C113.037 34.8419 113.08 34.8348 113.123 34.8401L138.667 37.9375C138.765 37.9493 138.844 38.0222 138.864 38.1183C138.883 38.2143 138.838 38.312 138.753 38.3605L80.9797 71.1157C80.9338 71.1417 80.8802 71.1511 80.8281 71.1423L48.7692 65.7218C48.671 65.7052 48.5949 65.6272 48.5812 65.529C48.5675 65.4308 48.6193 65.3351 48.7093 65.2925L112.997 34.8604ZM113.134 35.2992L49.5582 65.3941L52.7809 65.939L115.493 35.5853L113.134 35.2992ZM116.328 35.6866L53.5549 66.0699L56.7871 66.6164L118.698 35.9739L116.328 35.6866ZM119.522 36.0739L57.5518 66.7457L60.7934 67.2938L121.903 36.3626L119.522 36.0739ZM122.716 36.4612L61.5487 67.4215L64.7996 67.9711L125.108 36.7512L122.716 36.4612ZM125.91 36.8485L65.5458 68.0973L68.8058 68.6485L128.313 37.1398L125.91 36.8485ZM129.105 37.2358L69.543 68.7731L72.812 69.3258L131.518 37.5284L129.105 37.2358ZM132.299 37.6231L73.5403 69.449L76.8181 70.0032L134.722 37.917L132.299 37.6231ZM135.493 38.0105L77.5376 70.1249L80.8242 70.6806L137.927 38.3056L135.493 38.0105Z" fill="#6E7E92"/>
  <path d="M92.4581 67.0852L87.1624 70.1439V68.7888L92.4581 65.7688V67.0852Z" fill="#E0E4EC"/>
  <path fill-rule="evenodd" clip-rule="evenodd" d="M92.5726 65.5721C92.6431 65.6128 92.6866 65.6877 92.6866 65.7688V67.0852C92.6866 67.1662 92.6432 67.241 92.5728 67.2817L87.2771 70.3404C87.2064 70.3812 87.1191 70.3814 87.0483 70.3408C86.9774 70.3003 86.9337 70.2252 86.9337 70.1439V68.7888C86.9337 68.7073 86.9775 68.6321 87.0486 68.5916L92.3443 65.5716C92.415 65.5313 92.502 65.5315 92.5726 65.5721ZM87.3909 68.9204V69.749L92.2294 66.9544V66.1611L87.3909 68.9204Z" fill="#6E7E92"/>
  <path d="M116.522 52.1016V53.1082L112.473 55.4472V54.411L116.522 52.1016Z" fill="#E0E4EC"/>
  <path fill-rule="evenodd" clip-rule="evenodd" d="M116.637 51.9049C116.707 51.9455 116.751 52.0205 116.751 52.1015V53.1082C116.751 53.1892 116.707 53.264 116.637 53.3047L112.587 55.6437C112.517 55.6846 112.429 55.6847 112.359 55.6442C112.288 55.6036 112.244 55.5285 112.244 55.4472V54.4109C112.244 54.3295 112.288 54.2543 112.359 54.2138L116.409 51.9044C116.479 51.8641 116.566 51.8642 116.637 51.9049ZM112.701 54.5426V55.0523L116.294 52.9774V52.4939L112.701 54.5426Z" fill="#6E7E92"/>
  <path d="M57.3742 41.4929L88.3307 44.087L88.6032 45.6744L83.0739 69.0212L66.8169 66.3884L50.5599 63.7556L50.2095 62.2456L57.3742 41.4929Z" fill="#E0E4EC"/>
  <path fill-rule="evenodd" clip-rule="evenodd" d="M57.158 41.4191C57.192 41.3206 57.289 41.2577 57.3934 41.2664L88.3498 43.8605C88.4536 43.8692 88.5384 43.9466 88.5559 44.0487L88.8285 45.6362C88.8337 45.6662 88.8327 45.6969 88.8257 45.7265L83.2963 69.0733C83.2688 69.1894 83.1556 69.2647 83.0371 69.2455L50.5231 63.9799C50.4315 63.965 50.358 63.8966 50.3371 63.8067L49.9867 62.2967C49.9771 62.2553 49.9793 62.212 49.9932 62.1718L57.158 41.4191ZM57.5325 41.7343L50.4468 62.2578L50.7481 63.5558L82.9002 68.7628L88.3701 45.6672L88.1351 44.2987L57.5325 41.7343Z" fill="#6E7E92"/>
  <path d="M57.0626 39.7893L88.2916 44.087L82.7623 67.4337L50.2483 62.1681L57.0626 39.7893Z" fill="#E0E4EC"/>
  <path fill-rule="evenodd" clip-rule="evenodd" d="M56.8438 39.7234C56.8764 39.6164 56.9825 39.5488 57.0939 39.5642L88.3229 43.8618C88.3866 43.8706 88.4437 43.9057 88.4801 43.9584C88.5165 44.0112 88.5288 44.0768 88.514 44.1391L82.9847 67.4858C82.9572 67.602 82.844 67.6772 82.7255 67.658L50.2115 62.3924C50.1465 62.3819 50.0892 62.344 50.0543 62.2884C50.0194 62.2328 50.0104 62.165 50.0295 62.1023L56.8438 39.7234ZM57.2247 40.0411L50.5426 61.9855L82.5886 67.1753L88.0115 44.2779L57.2247 40.0411Z" fill="#6E7E92"/>
  <path d="M58.1919 41.5703L65.2885 42.5383L72.3851 43.5062L79.4818 44.4741L86.5784 45.4421L81.3606 65.6527L74.0693 64.5009L66.7779 63.349L59.4866 62.1971L52.1953 61.0453L58.1919 41.5703Z" fill="#E0E4EC"/>
  <path fill-rule="evenodd" clip-rule="evenodd" d="M57.9733 41.5038C58.0061 41.3972 58.1118 41.33 58.2229 41.3451L86.6094 45.2169C86.674 45.2257 86.7317 45.2615 86.768 45.3153C86.8044 45.3691 86.8159 45.4358 86.7997 45.4986L81.5819 65.7092C81.5526 65.8228 81.4411 65.8956 81.3246 65.8772L52.1594 61.2698C52.094 61.2594 52.0364 61.2215 52.0014 61.1656C51.9663 61.1098 51.9573 61.0417 51.9767 60.9788L57.9733 41.5038ZM58.3535 41.8218L52.4908 60.8619L59.3239 61.9413L64.9944 42.7275L58.3535 41.8218ZM65.4524 42.79L59.779 62.0132L66.6128 63.0928L72.094 43.6959L65.4524 42.79ZM72.5513 43.7583L67.0674 63.1646L73.9018 64.2443L79.1936 44.6642L72.5513 43.7583ZM79.6502 44.7265L74.3558 64.316L81.1908 65.3958L86.2931 45.6326L79.6502 44.7265Z" fill="#6E7E92"/>
  <path d="M48.457 66.5819L48.496 63.136L51.1828 63.5226V67.0335L48.457 66.5819Z" fill="#E0E4EC"/>
  <path fill-rule="evenodd" clip-rule="evenodd" d="M48.3474 62.9633C48.3974 62.9207 48.4636 62.9017 48.5288 62.911L51.2155 63.2976C51.328 63.3138 51.4114 63.4096 51.4114 63.5226V67.0335C51.4114 67.1003 51.3818 67.1637 51.3305 67.2069C51.2793 67.2501 51.2115 67.2687 51.1452 67.2577L48.4195 66.806C48.3083 66.7876 48.2273 66.6913 48.2285 66.5793L48.2675 63.1334C48.2682 63.0679 48.2973 63.0059 48.3474 62.9633ZM48.7216 63.3981L48.6878 66.3897L50.9542 66.7652V63.7193L48.7216 63.3981Z" fill="#6E7E92"/>
  <path d="M53.0909 65.9239V62.6326L51.1829 63.5231V67.008L53.0909 65.9239Z" fill="#E0E4EC"/>
  <path fill-rule="evenodd" clip-rule="evenodd" d="M53.2135 62.4407C53.2795 62.4824 53.3195 62.5548 53.3195 62.6325V65.9239C53.3195 66.0054 53.2755 66.0807 53.2043 66.1212L51.2963 67.2053C51.2256 67.2455 51.1387 67.2452 51.0682 67.2045C50.9977 67.1639 50.9543 67.089 50.9543 67.008V63.523C50.9543 63.4349 51.0056 63.3547 51.0858 63.3173L52.9938 62.4268C53.0646 62.3938 53.1475 62.399 53.2135 62.4407ZM51.4115 63.6674V66.6163L52.8624 65.792V62.9903L51.4115 63.6674Z" fill="#6E7E92"/>
  <path d="M53.091 62.6327L50.4042 62.2068L48.4962 63.136L51.2609 63.5619L53.091 62.6327Z" fill="#E0E4EC"/>
  <path fill-rule="evenodd" clip-rule="evenodd" d="M50.3036 62.0027C50.3459 61.9821 50.3936 61.975 50.4402 61.9823L53.1269 62.4082C53.2246 62.4237 53.3012 62.4999 53.3167 62.5971C53.3322 62.6943 53.283 62.7903 53.1949 62.8351L51.3648 63.7643C51.322 63.786 51.2733 63.7938 51.2258 63.7865L48.4612 63.3606C48.3625 63.3454 48.2852 63.2683 48.2702 63.1701C48.2552 63.072 48.306 62.9755 48.3956 62.9319L50.3036 62.0027ZM50.4397 62.4425L49.2497 63.0221L51.2227 63.326L52.3625 62.7473L50.4397 62.4425Z" fill="#6E7E92"/>
  <path d="M51.806 65.9625L79.1022 70.4538L79.881 66.9692L53.091 62.6328L51.806 65.9625Z" fill="#E0E4EC"/>
  <path fill-rule="evenodd" clip-rule="evenodd" d="M52.8775 62.5514C52.9163 62.4508 53.0208 62.3912 53.1277 62.4085L79.9177 66.7449C79.9797 66.7549 80.0349 66.79 80.0702 66.8417C80.1054 66.8935 80.1177 66.9574 80.1041 67.0185L79.3253 70.5031C79.299 70.6209 79.1846 70.6977 79.0648 70.678L51.7686 66.1868C51.7009 66.1756 51.6418 66.1348 51.6076 66.0755C51.5735 66.0162 51.568 65.9449 51.5926 65.8811L52.8775 62.5514ZM53.2377 62.8868L52.1198 65.7838L78.926 70.1944L79.6053 67.1548L53.2377 62.8868Z" fill="#6E7E92"/>
  <path d="M78.1287 71.5374L78.1287 67.8979L80.8544 68.3238V71.9633L78.1287 71.5374Z" fill="#E0E4EC"/>
  <path fill-rule="evenodd" clip-rule="evenodd" d="M77.98 67.7252C78.0308 67.682 78.0981 67.6631 78.1641 67.6734L80.8898 68.0993C81.001 68.1167 81.0829 68.2119 81.0829 68.3238V71.9633C81.0829 72.0297 81.0537 72.0928 81.0029 72.136C80.9521 72.1792 80.8848 72.1981 80.8188 72.1878L78.0931 71.7619C77.9819 71.7445 77.9 71.6493 77.9 71.5374V67.8979C77.9 67.8315 77.9293 67.7684 77.98 67.7252ZM78.3572 68.1637V71.343L80.6258 71.6975V68.5182L78.3572 68.1637Z" fill="#6E7E92"/>
  <path d="M82.7621 70.918V67.356L80.8541 68.3626V72.0021L82.7621 70.918Z" fill="#E0E4EC"/>
  <path fill-rule="evenodd" clip-rule="evenodd" d="M82.88 67.1612C82.9487 67.2023 82.9908 67.2762 82.9908 67.3559V70.918C82.9908 70.9995 82.9468 71.0748 82.8756 71.1153L80.9676 72.1994C80.8968 72.2396 80.8099 72.2393 80.7395 72.1986C80.669 72.158 80.6256 72.0831 80.6256 72.0021V68.3626C80.6256 68.2785 80.6723 68.2013 80.747 68.1618L82.6551 67.1552C82.7259 67.1178 82.8113 67.1201 82.88 67.1612ZM81.0828 68.4993V71.6104L82.5336 70.7861V67.7338L81.0828 68.4993Z" fill="#6E7E92"/>
  <path d="M82.7623 67.3561L79.9587 66.9302L78.1285 67.8981L80.9321 68.324L82.7623 67.3561Z" fill="#E0E4EC"/>
  <path fill-rule="evenodd" clip-rule="evenodd" d="M79.8513 66.7295C79.8947 66.7065 79.9445 66.6981 79.9931 66.7055L82.7967 67.1314C82.8941 67.1462 82.971 67.2213 82.9875 67.3179C83.0041 67.4145 82.9565 67.5107 82.8696 67.5567L81.0394 68.5246C80.996 68.5476 80.9462 68.5561 80.8976 68.5487L78.094 68.1228C77.9966 68.108 77.9197 68.0328 77.9032 67.9362C77.8866 67.8397 77.9342 67.7434 78.0211 67.6974L79.8513 66.7295ZM79.999 67.1662L78.8443 67.7769L80.8917 68.0879L82.0464 67.4772L79.999 67.1662Z" fill="#6E7E92"/>
  <path d="M134.785 38.1246V35.3369L137.939 35.6854V38.5118L134.785 38.1246Z" fill="#E0E4EC"/>
  <path fill-rule="evenodd" clip-rule="evenodd" d="M134.632 35.1675C134.68 35.1244 134.745 35.1039 134.81 35.111L137.964 35.4595C138.08 35.4723 138.167 35.5695 138.167 35.6854V38.5117C138.167 38.5769 138.139 38.6389 138.09 38.682C138.041 38.7251 137.976 38.7453 137.911 38.7373L134.756 38.3501C134.642 38.3361 134.556 38.2393 134.556 38.1246V35.3369C134.556 35.2722 134.584 35.2107 134.632 35.1675ZM135.013 35.5908V37.9236L137.71 38.2547V35.8888L135.013 35.5908Z" fill="#6E7E92"/>
  <path d="M139.847 37.4275V34.7173L137.939 35.7627V38.5116L139.847 37.4275Z" fill="#E0E4EC"/>
  <path fill-rule="evenodd" clip-rule="evenodd" d="M139.963 34.5216C140.033 34.5625 140.075 34.6369 140.075 34.7173V37.4275C140.075 37.5091 140.031 37.5844 139.96 37.6248L138.052 38.7089C137.981 38.7491 137.894 38.7488 137.824 38.7082C137.753 38.6675 137.71 38.5926 137.71 38.5116V35.7626C137.71 35.6798 137.755 35.6036 137.828 35.5636L139.736 34.5182C139.807 34.4794 139.893 34.4807 139.963 34.5216ZM138.167 35.8969V38.12L139.618 37.2956V35.102L138.167 35.8969Z" fill="#6E7E92"/>
  <path d="M137.939 35.6465L139.847 34.6785L136.654 34.3301L134.785 35.3367L137.939 35.6465Z" fill="#E0E4EC"/>
  <path fill-rule="evenodd" clip-rule="evenodd" d="M136.545 34.1302C136.586 34.1082 136.632 34.0991 136.678 34.1041L139.871 34.4526C139.972 34.4636 140.053 34.5388 140.071 34.6376C140.09 34.7363 140.04 34.8353 139.95 34.881L138.042 35.8489C138.003 35.8687 137.96 35.8769 137.916 35.8726L134.762 35.5629C134.662 35.5531 134.58 35.4795 134.56 35.3816C134.541 35.2837 134.587 35.1844 134.676 35.1369L136.545 34.1302ZM136.7 34.5637L135.549 35.1834L137.894 35.4137L139.062 34.8215L136.7 34.5637Z" fill="#6E7E92"/>
  <path d="M112.395 35.3754L112.395 32.7039L115.549 33.0523V35.7626L112.395 35.3754Z" fill="#E0E4EC"/>
  <path fill-rule="evenodd" clip-rule="evenodd" d="M112.242 32.5345C112.291 32.4914 112.355 32.4708 112.42 32.478L115.574 32.8264C115.69 32.8392 115.777 32.9365 115.777 33.0523V35.7625C115.777 35.8277 115.749 35.8897 115.7 35.9328C115.651 35.9759 115.586 35.9961 115.521 35.9881L112.367 35.6009C112.252 35.5869 112.166 35.4901 112.166 35.3754V32.7038C112.166 32.6392 112.194 32.5776 112.242 32.5345ZM112.623 32.9578V35.1744L115.32 35.5055V33.2557L112.623 32.9578Z" fill="#6E7E92"/>
  <path d="M117.69 34.7171V32.123L115.549 33.0136V35.7625L117.69 34.7171Z" fill="#E0E4EC"/>
  <path fill-rule="evenodd" clip-rule="evenodd" d="M117.817 31.9338C117.881 31.976 117.919 32.047 117.919 32.123V34.7171C117.919 34.8038 117.869 34.8829 117.791 34.9211L115.649 35.9665C115.579 36.0011 115.495 35.9969 115.428 35.9554C115.361 35.9139 115.32 35.841 115.32 35.7625V33.0135C115.32 32.9219 115.376 32.8392 115.461 32.8039L117.602 31.9133C117.673 31.884 117.753 31.8917 117.817 31.9338ZM115.777 33.1648V35.3977L117.462 34.5755V32.4644L115.777 33.1648Z" fill="#6E7E92"/>
  <path d="M115.549 33.0525L117.69 32.1232L114.458 31.7748L112.395 32.704L115.549 33.0525Z" fill="#E0E4EC"/>
  <path fill-rule="evenodd" clip-rule="evenodd" d="M114.364 31.5677C114.401 31.551 114.442 31.5444 114.483 31.5488L117.715 31.8973C117.818 31.9084 117.901 31.987 117.916 32.0889C117.932 32.1907 117.877 32.2903 117.782 32.3315L115.64 33.2607C115.604 33.2767 115.563 33.2827 115.524 33.2783L112.369 32.9299C112.267 32.9186 112.185 32.8407 112.169 32.7396C112.153 32.6385 112.207 32.5392 112.3 32.4969L114.364 31.5677ZM114.496 32.0074L113.247 32.5695L115.513 32.8199L116.811 32.257L114.496 32.0074Z" fill="#6E7E92"/>
  <path d="M114.809 3.89819L139.847 5.98893V34.6787L138.562 35.3756L135.369 35.0272L113.135 4.74998L114.809 3.89819Z" fill="#E0E4EC"/>
  <path fill-rule="evenodd" clip-rule="evenodd" d="M114.705 3.69584C114.743 3.67651 114.785 3.66814 114.828 3.6717L139.866 5.76243C139.984 5.77232 140.075 5.87076 140.075 5.98891V34.6787C140.075 34.7619 140.029 34.8384 139.956 34.8782L138.671 35.5751C138.63 35.5974 138.583 35.6066 138.537 35.6015L135.344 35.2531C135.28 35.2461 135.222 35.2128 135.184 35.1612L112.95 4.88398C112.91 4.83027 112.897 4.76206 112.912 4.69735C112.928 4.63264 112.971 4.57793 113.03 4.54763L114.705 3.69584ZM114.855 4.13008L113.477 4.831L135.207 34.4221L138.334 6.89262C138.342 6.82927 138.375 6.77183 138.427 6.73433L139.215 6.16428L114.855 4.13008ZM139.618 6.43522L138.79 7.03386V34.9928L139.618 34.5438V6.43522ZM138.333 35.122V10.9553L135.621 34.8261L138.333 35.122Z" fill="#6E7E92"/>
  <path d="M138.601 6.87947L113.135 4.75V32.3557L116.367 32.7042V35.4531L134.785 37.66V35.337L135.447 34.9885L138.601 35.3757V6.87947Z" fill="#E0E4EC"/>
  <path fill-rule="evenodd" clip-rule="evenodd" d="M112.98 4.58267C113.027 4.53964 113.09 4.51818 113.154 4.52351L138.62 6.65298C138.738 6.66288 138.829 6.76131 138.829 6.87945V35.3757C138.829 35.4408 138.801 35.5028 138.752 35.5459C138.703 35.5891 138.638 35.6092 138.573 35.6012L135.49 35.2228L135.013 35.4738V37.66C135.013 37.725 134.985 37.7869 134.936 37.8301C134.887 37.8732 134.822 37.8934 134.757 37.8856L116.339 35.6787C116.224 35.665 116.138 35.5681 116.138 35.4531V32.9081L113.11 32.5816C112.994 32.5691 112.906 32.4717 112.906 32.3557V4.74998C112.906 4.68639 112.933 4.62571 112.98 4.58267ZM113.363 4.99717V32.1517L116.391 32.4782C116.507 32.4907 116.595 32.5881 116.595 32.7041V35.2516L134.556 37.4037V35.3369C134.556 35.2528 134.603 35.1755 134.678 35.1361L135.34 34.7876C135.381 34.7658 135.428 34.7572 135.475 34.7629L138.372 35.1186V7.08841L113.363 4.99717Z" fill="#6E7E92"/>
  <path d="M115.393 6.41479L118.031 6.65194L120.669 6.88909L123.308 7.12623L125.946 7.36338L128.584 7.60052L131.222 7.83767L133.86 8.07482L136.498 8.31196V31.1554L133.86 30.8529L131.222 30.5505L128.584 30.248L125.946 29.9455L123.308 29.6431L120.669 29.3406L118.031 29.0381L115.393 28.7357V6.41479Z" fill="#E0E4EC"/>
  <path fill-rule="evenodd" clip-rule="evenodd" d="M115.239 6.24699C115.286 6.20393 115.35 6.18268 115.414 6.18842L136.519 8.08559C136.636 8.09618 136.727 8.19435 136.727 8.31194V31.1554C136.727 31.2202 136.699 31.2819 136.65 31.325C136.601 31.3681 136.537 31.3886 136.472 31.3811L115.367 28.9614C115.252 28.9482 115.165 28.8511 115.165 28.7356V6.41477C115.165 6.35094 115.192 6.29005 115.239 6.24699ZM115.622 6.66352V28.5331L117.803 28.7831V6.85957L115.622 6.66352ZM118.26 6.90067V28.8355L120.441 29.0856V7.09672L118.26 6.90067ZM120.898 7.13781V29.138L123.079 29.3881V7.33386L120.898 7.13781ZM123.536 7.37496V29.4405L125.717 29.6905V7.57101L123.536 7.37496ZM126.174 7.6121V29.7429L128.355 29.993V7.80815L126.174 7.6121ZM128.812 7.84925V30.0454L130.993 30.2954V8.0453L128.812 7.84925ZM131.45 8.08639V30.3479L133.631 30.5979V8.28245L131.45 8.08639ZM134.088 8.32354V30.6503L136.269 30.9004V8.51959L134.088 8.32354Z" fill="#6E7E92"/>
  <path fill-rule="evenodd" clip-rule="evenodd" d="M54.3938 67.4336L54.3938 68.6146L54.3938 69.7957L53.9287 69.7957L53.9287 67.4336L54.3938 67.4336Z" fill="#6E7E92"/>
  <path fill-rule="evenodd" clip-rule="evenodd" d="M81.0907 71.9632L81.0907 74.3252L80.6256 74.3252L80.6256 71.9632L81.0907 71.9632Z" fill="#6E7E92"/>
</svg>
