<svg viewBox="0 0 192 80" fill="none" xmlns="http://www.w3.org/2000/svg">
  <path d="M115.761 3.2561V38.1375L49.5134 71.1367L49.6205 24.0691L115.761 3.2561Z" fill="#E0E4EC"/>
  <path fill-rule="evenodd" clip-rule="evenodd" d="M115.898 3.06849C115.958 3.1123 115.993 3.18194 115.993 3.256V38.1374C115.993 38.2256 115.943 38.3063 115.864 38.3456L49.617 71.3447C49.5448 71.3806 49.4592 71.3766 49.3907 71.3341C49.3222 71.2916 49.2806 71.2166 49.2808 71.136L49.3878 24.0684C49.388 23.9671 49.4539 23.8775 49.5506 23.8471L115.691 3.03416C115.761 3.01193 115.838 3.02468 115.898 3.06849ZM49.8525 24.2397L49.7467 70.7605L115.528 37.9935V3.57298L49.8525 24.2397Z" fill="#6E7E92"/>
  <path d="M115.761 3.2561L142.222 5.26217L82.6488 27.6872L49.6091 24.0691L115.761 3.2561Z" fill="#E0E4EC"/>
  <path fill-rule="evenodd" clip-rule="evenodd" d="M115.691 3.03416C115.719 3.02528 115.749 3.02187 115.778 3.0241L142.24 5.03017C142.348 5.03842 142.437 5.12114 142.452 5.22911C142.468 5.33708 142.406 5.44129 142.304 5.47971L82.731 27.9047C82.6968 27.9176 82.6601 27.9222 82.6238 27.9182L49.5841 24.3001C49.4747 24.2882 49.3887 24.2012 49.378 24.0917C49.3672 23.9822 49.4347 23.8801 49.5396 23.8471L115.691 3.03416ZM115.788 3.49127L50.7358 23.9584L82.6192 27.4498L141.157 5.41454L115.788 3.49127Z" fill="#6E7E92"/>
  <path d="M142.482 41.5629L115.761 38.1375L49.4989 71.1921L57.7635 72.5421L61.1521 70.8296L74.4 73.1661V75.2835L82.5571 76.5923L142.482 41.5629Z" fill="#E0E4EC"/>
  <path fill-rule="evenodd" clip-rule="evenodd" d="M115.657 37.9294C115.698 37.9088 115.745 37.9009 115.791 37.9068L142.511 41.3322C142.61 41.3449 142.69 41.419 142.71 41.5165C142.729 41.614 142.685 41.7134 142.599 41.7636L82.6745 76.7931C82.628 76.8203 82.5735 76.8305 82.5203 76.822L74.3632 75.5132C74.2504 75.4951 74.1674 75.3978 74.1674 75.2836V73.3613L61.1879 71.0721L57.8684 72.7497C57.8244 72.772 57.7746 72.7796 57.726 72.7717L49.4614 71.4217C49.3618 71.4054 49.2841 71.3268 49.269 71.227C49.2539 71.1272 49.3048 71.0291 49.3951 70.984L115.657 37.9294ZM115.801 38.3771L50.2472 71.0787L57.7262 72.3005L61.0472 70.6221C61.092 70.5994 61.143 70.5919 61.1925 70.6006L74.4404 72.9371C74.5515 72.9567 74.6326 73.0533 74.6326 73.1661V75.0854L82.5117 76.3495L141.775 41.7067L115.801 38.3771Z" fill="#6E7E92"/>
  <path d="M49.5978 71.2055L57.8576 72.5568L61.152 70.8297L74.3772 73.1415V75.2592L82.637 76.6105V27.6872L49.5978 24.0691V71.2055Z" fill="#E0E4EC"/>
  <path fill-rule="evenodd" clip-rule="evenodd" d="M49.4424 23.8958C49.4916 23.8517 49.5573 23.8306 49.623 23.8378L82.6623 27.4559C82.7802 27.4688 82.8695 27.5684 82.8695 27.6871V76.6104C82.8695 76.6786 82.8395 76.7434 82.7875 76.7876C82.7355 76.8318 82.6667 76.8509 82.5994 76.8399L74.3396 75.4886C74.2271 75.4702 74.1446 75.3731 74.1446 75.2591V73.3368L61.1898 71.0723L57.9655 72.7626C57.9208 72.7861 57.8697 72.7943 57.8199 72.7862L49.5601 71.4349C49.4477 71.4165 49.3651 71.3194 49.3651 71.2054V24.069C49.3651 24.0029 49.3932 23.9399 49.4424 23.8958ZM49.8302 24.3284V71.0078L57.8183 72.3146L61.0439 70.6237C61.0894 70.5998 61.1414 70.5917 61.192 70.6005L74.4172 72.9123C74.5285 72.9317 74.6097 73.0284 74.6097 73.1414V75.0615L82.4044 76.3367V27.8956L49.8302 24.3284Z" fill="#6E7E92"/>
  <path d="M49.4886 71.1294L57.8597 72.5757V70.3236L49.4885 68.9192L49.4886 71.1294Z" fill="#E0E4EC"/>
  <path fill-rule="evenodd" clip-rule="evenodd" d="M49.3382 68.7416C49.3904 68.6974 49.4594 68.6784 49.5269 68.6897L57.8981 70.0941C58.0101 70.1129 58.0922 70.2099 58.0922 70.3235V72.5756C58.0922 72.6442 58.0619 72.7093 58.0094 72.7535C57.9569 72.7977 57.8876 72.8165 57.82 72.8048L49.4489 71.3584C49.3374 71.3392 49.2559 71.2424 49.2559 71.1293L49.2559 68.9191C49.2559 68.8507 49.286 68.7857 49.3382 68.7416ZM49.721 69.1939L49.721 70.9335L57.627 72.2994V70.5203L49.721 69.1939Z" fill="#6E7E92"/>
  <path d="M142.512 41.5783L142.222 5.26221L82.6129 27.6872L82.5525 76.6105L142.512 41.5783Z" fill="#E0E4EC"/>
  <path fill-rule="evenodd" clip-rule="evenodd" d="M142.353 5.07048C142.416 5.11348 142.454 5.18438 142.454 5.26037L142.744 41.5764C142.745 41.6597 142.701 41.737 142.629 41.7791L82.6698 76.8113C82.5979 76.8534 82.5089 76.8537 82.4366 76.8121C82.3644 76.7706 82.3198 76.6936 82.3199 76.6102L82.3804 27.6869C82.3805 27.5902 82.4405 27.5036 82.5311 27.4695L142.14 5.04456C142.211 5.0178 142.291 5.02748 142.353 5.07048ZM82.8453 27.8483L82.7856 76.205L142.278 41.4454L141.992 5.59718L82.8453 27.8483Z" fill="#6E7E92"/>
  <path fill-rule="evenodd" clip-rule="evenodd" d="M66.0574 32.8214C66.1858 32.8214 66.2899 32.9255 66.2899 33.054L66.29 71.6841C66.29 71.8126 66.1858 71.9167 66.0574 71.9167C65.929 71.9167 65.8248 71.8126 65.8248 71.6841L65.8248 33.054C65.8248 32.9255 65.9289 32.8214 66.0574 32.8214Z" fill="#6E7E92"/>
  <path d="M67.1894 71.9291L80.4888 74.2002V39.2586L67.1893 37.6296L67.1894 71.9291Z" fill="#E0E4EC"/>
  <path fill-rule="evenodd" clip-rule="evenodd" d="M67.0351 37.4555C67.085 37.4114 67.1514 37.3907 67.2175 37.3988L80.517 39.0278C80.6336 39.0421 80.7213 39.1411 80.7213 39.2586V74.2002C80.7213 74.2687 80.691 74.3338 80.6387 74.378C80.5863 74.4221 80.5171 74.441 80.4495 74.4294L67.1501 72.1583C67.0384 72.1393 66.9567 72.0424 66.9567 71.9291L66.9567 37.6297C66.9567 37.563 66.9852 37.4996 67.0351 37.4555ZM67.4218 37.8924L67.4218 71.7329L80.2561 73.9246V39.4644L67.4218 37.8924Z" fill="#6E7E92"/>
  <path fill-rule="evenodd" clip-rule="evenodd" d="M141.345 9.57224C141.407 9.61305 141.444 9.68198 141.444 9.75581V39.3511C141.444 39.4301 141.401 39.5031 141.332 39.5423L84.9165 71.6183C84.8479 71.6573 84.7637 71.657 84.6953 71.6176C84.627 71.5782 84.585 71.5056 84.585 71.4271L84.585 33.4344C84.585 33.3458 84.6383 33.2659 84.7204 33.2314L141.136 9.55286C141.205 9.52415 141.283 9.53142 141.345 9.57224ZM140.176 10.4341V39.6923L141.001 39.2233V10.0879L140.176 10.4341ZM139.733 39.9442V10.6201L138.771 11.0238V40.4911L139.733 39.9442ZM138.328 40.7431V11.2098L137.006 11.7647V41.4947L138.328 40.7431ZM136.563 41.7466V11.9506L135.14 12.548V42.5558L136.563 41.7466ZM134.697 42.8077V12.7339L132.995 13.4479V43.7749L134.697 42.8077ZM132.552 44.0268V13.6339L130.89 14.3316V44.972L132.552 44.0268ZM130.447 45.224V14.5176L128.506 15.3323V46.3275L130.447 45.224ZM128.063 46.5795V15.5182L126.019 16.3762V47.7416L128.063 46.5795ZM125.576 47.9936V16.5621L123.53 17.4208V49.1567L125.576 47.9936ZM123.087 49.4086V17.6067L120.35 18.7556V50.9649L123.087 49.4086ZM119.907 51.2168V18.9415L117.29 20.0396V52.7043L119.907 51.2168ZM116.847 52.9562V20.2256L113.86 21.4792V54.6544L116.847 52.9562ZM113.417 54.9063V21.6651L110.705 22.8035V56.4484L113.417 54.9063ZM110.262 56.7003V22.9895L107.521 24.1398V58.2586L110.262 56.7003ZM107.078 58.5105V24.3258L104.665 25.3385V59.8824L107.078 58.5105ZM104.222 60.1343V25.5245L100.551 27.0653V62.2215L104.222 60.1343ZM100.108 62.4735V27.2512L96.1294 28.9211V64.7356L100.108 62.4735ZM95.6863 64.9875V29.1071L91.3533 30.9257V67.451L95.6863 64.9875ZM90.9102 67.703V31.1117L85.0281 33.5805L85.0281 71.0473L90.9102 67.703Z" fill="#6E7E92"/>
  <path d="M51.6862 69.2644L64.8936 71.5049V37.3226L51.6862 35.7078L51.6862 69.2644Z" fill="#E0E4EC"/>
  <path fill-rule="evenodd" clip-rule="evenodd" d="M51.532 35.5338C51.5819 35.4896 51.6483 35.469 51.7144 35.4771L64.9219 37.0919C65.0385 37.1062 65.1262 37.2052 65.1262 37.3228V71.5051C65.1262 71.5735 65.096 71.6385 65.0437 71.6827C64.9914 71.7269 64.9223 71.7458 64.8547 71.7343L51.6473 69.4938C51.5355 69.4748 51.4536 69.3779 51.4536 69.2645L51.4536 35.7079C51.4536 35.6413 51.4822 35.5779 51.532 35.5338ZM51.9187 35.9706L51.9188 69.0681L64.6611 71.2297V37.5286L51.9187 35.9706Z" fill="#6E7E92"/>
  <path fill-rule="evenodd" clip-rule="evenodd" d="M62.051 34.8506C62.3078 34.8506 62.5161 35.0588 62.5161 35.3157L62.516 70.7543C62.516 71.0111 62.3078 71.2194 62.0509 71.2194C61.7941 71.2194 61.5858 71.0111 61.5858 70.7543L61.5858 35.3157C61.5858 35.0588 61.7941 34.8506 62.051 34.8506Z" fill="#6E7E92"/>
  <path fill-rule="evenodd" clip-rule="evenodd" d="M56.6776 34.2485C56.9345 34.2485 57.1428 34.4568 57.1428 34.7137L57.1428 70.1727C57.1428 70.4296 56.9345 70.3279 56.6776 70.3279C56.4208 70.3279 56.2125 70.1196 56.2125 69.8628L56.2125 34.7137C56.2125 34.4568 56.4208 34.2485 56.6776 34.2485Z" fill="#6E7E92"/>
  <path fill-rule="evenodd" clip-rule="evenodd" d="M69.9319 35.843C70.1888 35.843 70.397 36.0513 70.397 36.3081L70.397 72.1125C70.397 72.3694 70.1888 72.5776 69.9319 72.5776C69.675 72.5776 69.4668 72.3694 69.4668 72.1125L69.4668 36.3081C69.4668 36.0513 69.675 35.843 69.9319 35.843Z" fill="#6E7E92"/>
  <path fill-rule="evenodd" clip-rule="evenodd" d="M74.9472 36.3162C75.2041 36.3162 75.4123 36.5244 75.4123 36.7813L75.4123 73.1101C75.4123 73.367 75.1821 73.2945 74.9252 73.2945C74.6683 73.2945 74.4821 73.367 74.4821 73.1101L74.4821 36.7813C74.4821 36.5244 74.6903 36.3162 74.9472 36.3162Z" fill="#6E7E92"/>
  <path d="M80.0339 41.8368L82.6023 42.4458V40.1182L80.0339 40.0542V41.8368Z" fill="#E0E4EC"/>
  <path fill-rule="evenodd" clip-rule="evenodd" d="M79.8714 39.8877C79.9163 39.844 79.977 39.8202 80.0396 39.8217L82.608 39.8858C82.7342 39.8889 82.8348 39.9921 82.8348 40.1183V42.4458C82.8348 42.5169 82.8022 42.5841 82.7464 42.6282C82.6907 42.6723 82.6178 42.6885 82.5486 42.6721L79.9802 42.0631C79.8753 42.0382 79.8013 41.9446 79.8013 41.8368V40.0542C79.8013 39.9915 79.8266 39.9315 79.8714 39.8877ZM80.2664 40.2926V41.6529L82.3697 42.1516V40.3451L80.2664 40.2926Z" fill="#6E7E92"/>
  <path d="M52.153 38.219L49.5846 38.1747V35.4607L52.153 36.0697V38.219Z" fill="#E0E4EC"/>
  <path fill-rule="evenodd" clip-rule="evenodd" d="M49.4404 35.2784C49.3847 35.3225 49.3521 35.3897 49.3521 35.4608V38.1748C49.3521 38.3017 49.4538 38.4052 49.5807 38.4074L52.149 38.4517C52.2114 38.4528 52.2716 38.4288 52.3161 38.385C52.3606 38.3413 52.3856 38.2816 52.3856 38.2192V36.0698C52.3856 35.962 52.3116 35.8684 52.2067 35.8435L49.6383 35.2345C49.5691 35.2181 49.4962 35.2343 49.4404 35.2784ZM51.9205 36.2537V37.9826L49.8172 37.9463V35.755L51.9205 36.2537Z" fill="#6E7E92"/>
  <path d="M52.153 47.8553L49.5846 47.8109V45.0969L52.153 45.7059V47.8553Z" fill="#E0E4EC"/>
  <path fill-rule="evenodd" clip-rule="evenodd" d="M49.4404 44.9144C49.3847 44.9585 49.3521 45.0257 49.3521 45.0968V47.8108C49.3521 47.9377 49.4538 48.0411 49.5807 48.0433L52.149 48.0877C52.2114 48.0888 52.2716 48.0647 52.3161 48.021C52.3606 47.9773 52.3856 47.9175 52.3856 47.8552V45.7058C52.3856 45.598 52.3116 45.5044 52.2067 45.4795L49.6383 44.8705C49.5691 44.8541 49.4962 44.8703 49.4404 44.9144ZM51.9205 45.8897V47.6186L49.8172 47.5822V45.391L51.9205 45.8897Z" fill="#6E7E92"/>
  <path d="M52.153 57.2408L49.5846 57.1964V54.4824L52.153 55.0914V57.2408Z" fill="#E0E4EC"/>
  <path fill-rule="evenodd" clip-rule="evenodd" d="M49.4404 54.2999C49.3847 54.344 49.3521 54.4112 49.3521 54.4823V57.1963C49.3521 57.3232 49.4538 57.4266 49.5807 57.4288L52.149 57.4732C52.2114 57.4743 52.2716 57.4502 52.3161 57.4065C52.3606 57.3628 52.3856 57.303 52.3856 57.2407V55.0913C52.3856 54.9835 52.3116 54.8899 52.2067 54.865L49.6383 54.256C49.5691 54.2396 49.4962 54.2558 49.4404 54.2999ZM51.9205 55.2752V57.0041L49.8172 56.9677V54.7765L51.9205 55.2752Z" fill="#6E7E92"/>
  <path d="M52.153 66.841L49.5846 66.7966V64.0826L52.153 64.6916V66.841Z" fill="#E0E4EC"/>
  <path fill-rule="evenodd" clip-rule="evenodd" d="M49.4404 63.9002C49.3847 63.9443 49.3521 64.0115 49.3521 64.0827V66.7967C49.3521 66.9235 49.4538 67.027 49.5807 67.0292L52.149 67.0735C52.2114 67.0746 52.2716 67.0506 52.3161 67.0069C52.3606 66.9632 52.3856 66.9034 52.3856 66.841V64.6916C52.3856 64.5839 52.3116 64.4902 52.2067 64.4654L49.6383 63.8564C49.5691 63.84 49.4962 63.8561 49.4404 63.9002ZM51.9205 64.8755V66.6044L49.8172 66.5681V64.3768L51.9205 64.8755Z" fill="#6E7E92"/>
  <path d="M80.0339 51.7514L82.6023 52.3603V50.0328L80.0339 49.9688V51.7514Z" fill="#E0E4EC"/>
  <path fill-rule="evenodd" clip-rule="evenodd" d="M79.8714 49.8024C79.9163 49.7586 79.977 49.7348 80.0396 49.7364L82.608 49.8004C82.7342 49.8036 82.8348 49.9068 82.8348 50.0329V52.3605C82.8348 52.4316 82.8022 52.4988 82.7464 52.5429C82.6907 52.587 82.6178 52.6032 82.5486 52.5868L79.9802 51.9778C79.8753 51.9529 79.8013 51.8593 79.8013 51.7515V49.9689C79.8013 49.9062 79.8266 49.8462 79.8714 49.8024ZM80.2664 50.2073V51.5676L82.3697 52.0663V50.2598L80.2664 50.2073Z" fill="#6E7E92"/>
  <path d="M80.0339 61.6657L82.6023 62.2747V59.9471L80.0339 59.8831V61.6657Z" fill="#E0E4EC"/>
  <path fill-rule="evenodd" clip-rule="evenodd" d="M79.8714 59.7165C79.9163 59.6727 79.977 59.6489 80.0396 59.6505L82.608 59.7145C82.7342 59.7177 82.8348 59.8208 82.8348 59.947V62.2745C82.8348 62.3457 82.8022 62.4129 82.7464 62.457C82.6907 62.5011 82.6178 62.5172 82.5486 62.5008L79.9802 61.8918C79.8753 61.867 79.8013 61.7733 79.8013 61.6656V59.8829C79.8013 59.8203 79.8266 59.7602 79.8714 59.7165ZM80.2664 60.1214V61.4817L82.3697 61.9804V60.1738L80.2664 60.1214Z" fill="#6E7E92"/>
  <path d="M80.0339 71.5802L82.6023 72.1261V69.8617L80.0339 69.7976V71.5802Z" fill="#E0E4EC"/>
  <path fill-rule="evenodd" clip-rule="evenodd" d="M79.8714 69.6311C79.9163 69.5874 79.977 69.5636 80.0396 69.5651L82.608 69.6292C82.7342 69.6323 82.8348 69.7355 82.8348 69.8617V72.1261C82.8348 72.1963 82.8031 72.2627 82.7486 72.3068C82.694 72.351 82.6225 72.3682 82.5539 72.3536L79.9855 71.8077C79.8781 71.7849 79.8013 71.69 79.8013 71.5802V69.7976C79.8013 69.7349 79.8266 69.6749 79.8714 69.6311ZM80.2664 70.0361V71.3919L82.3697 71.8389V70.0885L80.2664 70.0361Z" fill="#6E7E92"/>
  <path fill-rule="evenodd" clip-rule="evenodd" d="M49.2819 30.8481C49.297 30.7205 49.4126 30.6294 49.5402 30.6445L82.5687 34.5491C82.6962 34.5642 82.7874 34.6798 82.7723 34.8074C82.7572 34.9349 82.6416 35.0261 82.514 35.011L49.4856 31.1064C49.358 31.0913 49.2668 30.9757 49.2819 30.8481Z" fill="#6E7E92"/>
  <path fill-rule="evenodd" clip-rule="evenodd" d="M49.294 68.8466C49.3157 68.72 49.436 68.635 49.5625 68.6567L82.5928 74.32C82.7194 74.3417 82.8044 74.4619 82.7827 74.5885C82.761 74.7151 82.6408 74.8001 82.5142 74.7784L49.4839 69.1151C49.3574 69.0934 49.2723 68.9732 49.294 68.8466Z" fill="#6E7E92"/>
</svg>
