<svg viewBox="0 0 192 80" fill="none" xmlns="http://www.w3.org/2000/svg">
  <path d="M115.679 6.40051L141.972 8.58755L83.0404 32.4816L50.5675 28.6096L115.679 6.40051Z" fill="#E0E4EC"/>
  <path fill-rule="evenodd" clip-rule="evenodd" d="M115.605 6.18411C115.635 6.17395 115.667 6.17005 115.698 6.17266L141.991 8.3597C142.096 8.36847 142.182 8.44847 142.198 8.55307C142.214 8.65768 142.156 8.75955 142.058 8.7993L83.1263 32.6934C83.0906 32.7079 83.0517 32.7131 83.0134 32.7085L50.5405 28.8365C50.4346 28.8239 50.3514 28.7396 50.3403 28.6335C50.3291 28.5274 50.3928 28.4277 50.4938 28.3932L115.605 6.18411ZM115.708 6.63219L51.5923 28.5016L83.0091 32.2476L140.998 8.73581L115.708 6.63219Z" fill="#6E7E92"/>
  <path fill-rule="evenodd" clip-rule="evenodd" d="M66.5992 68.8267L66.5992 33.2361L67.0564 33.2361L67.0564 68.8267L66.5992 68.8267Z" fill="#6E7E92"/>
  <path d="M115.679 6.40051V35.7572L50.5675 68.1906V28.6096L115.679 6.40051Z" fill="#E0E4EC"/>
  <path fill-rule="evenodd" clip-rule="evenodd" d="M115.812 6.21456C115.872 6.25747 115.908 6.32669 115.908 6.40045V35.7571C115.908 35.8438 115.859 35.923 115.781 35.9617L50.6695 68.3951C50.5986 68.4304 50.5146 68.4265 50.4472 68.3848C50.3799 68.3432 50.339 68.2697 50.339 68.1905V28.6096C50.339 28.5118 50.4012 28.4248 50.4938 28.3932L115.605 6.18411C115.675 6.16031 115.752 6.17164 115.812 6.21456ZM50.7961 28.7731V67.8213L115.451 35.6156V6.71991L50.7961 28.7731Z" fill="#6E7E92"/>
  <path d="M141.942 39.1239L115.679 35.7572L50.5531 68.2452L58.676 69.5721L62.0065 67.8889L75.0273 70.1853V72.2665L83.0446 73.5528L141.942 39.1239Z" fill="#E0E4EC"/>
  <path fill-rule="evenodd" clip-rule="evenodd" d="M115.577 35.5526C115.618 35.5324 115.663 35.5247 115.708 35.5304L141.971 38.8971C142.068 38.9095 142.146 38.9824 142.166 39.0782C142.185 39.1741 142.142 39.2718 142.057 39.3211L83.16 73.7501C83.1143 73.7768 83.0607 73.7868 83.0085 73.7784L74.9911 72.4921C74.8803 72.4743 74.7988 72.3787 74.7988 72.2664V70.3771L62.0418 68.1272L58.7791 69.776C58.736 69.7979 58.687 69.8054 58.6392 69.7976L50.5163 68.4707C50.4184 68.4547 50.342 68.3774 50.3272 68.2794C50.3123 68.1813 50.3624 68.0849 50.4511 68.0406L115.577 35.5526ZM115.719 35.9927L51.2886 68.1337L58.6394 69.3344L61.9035 67.6849C61.9475 67.6626 61.9976 67.6552 62.0463 67.6638L75.0671 69.9602C75.1763 69.9794 75.2559 70.0744 75.2559 70.1853V72.0716L83 73.3141L141.247 39.2652L115.719 35.9927Z" fill="#6E7E92"/>
  <path d="M50.6503 68.2579L58.7685 69.5859L62.0064 67.8885L75.0049 70.1606V72.242L83.1232 73.5701V32.5478L50.6503 28.6758L50.6503 68.2579Z" fill="#E0E4EC"/>
  <path fill-rule="evenodd" clip-rule="evenodd" d="M50.4986 28.5049C50.5474 28.4615 50.6125 28.4411 50.6774 28.4489L83.1502 32.3209C83.2652 32.3346 83.3518 32.4321 83.3518 32.5479V73.5702C83.3518 73.6373 83.3223 73.7009 83.2712 73.7444C83.2201 73.7878 83.1525 73.8066 83.0863 73.7958L74.9681 72.4677C74.8575 72.4496 74.7764 72.3541 74.7764 72.2421V70.3527L62.0437 68.1271L58.8747 69.7884C58.8308 69.8114 58.7806 69.8196 58.7316 69.8116L50.6134 68.4835C50.5029 68.4654 50.4218 68.3699 50.4218 68.2579V28.6758C50.4218 28.6105 50.4497 28.5483 50.4986 28.5049ZM50.8789 28.9333V68.0637L58.7301 69.3481L61.9004 67.6861C61.945 67.6627 61.9962 67.6547 62.0458 67.6634L75.0443 69.9355C75.1537 69.9546 75.2335 70.0496 75.2335 70.1607V72.0479L82.8946 73.3012V32.7508L50.8789 28.9333Z" fill="#6E7E92"/>
  <path d="M50.5429 68.1835L58.7705 69.6051V67.3915L50.5428 66.0112L50.5429 68.1835Z" fill="#E0E4EC"/>
  <path fill-rule="evenodd" clip-rule="evenodd" d="M50.3953 65.8367C50.4466 65.7933 50.5144 65.7746 50.5807 65.7857L58.8084 67.1661C58.9185 67.1845 58.9991 67.2798 58.9991 67.3915V69.605C58.9991 69.6725 58.9694 69.7364 58.9178 69.7799C58.8662 69.8233 58.7981 69.8417 58.7317 69.8303L50.504 68.4087C50.3944 68.3898 50.3144 68.2947 50.3144 68.1835L50.3143 66.0112C50.3143 65.9439 50.3439 65.8801 50.3953 65.8367ZM50.7715 66.2813L50.7715 67.991L58.542 69.3336V67.5849L50.7715 66.2813Z" fill="#6E7E92"/>
  <path d="M67.9403 68.9695L81.0118 71.2017V36.8591L67.9403 35.2581L67.9403 68.9695Z" fill="#E0E4EC"/>
  <path fill-rule="evenodd" clip-rule="evenodd" d="M67.7886 35.0868C67.8377 35.0434 67.9029 35.0232 67.9679 35.0311L81.0394 36.6322C81.154 36.6462 81.2402 36.7435 81.2402 36.859V71.2016C81.2402 71.269 81.2105 71.3329 81.159 71.3763C81.1075 71.4198 81.0395 71.4383 80.9731 71.427L67.9017 69.1948C67.7919 69.176 67.7116 69.0809 67.7116 68.9695L67.7115 35.258C67.7115 35.1925 67.7396 35.1302 67.7886 35.0868ZM68.1687 35.5163L68.1687 68.7766L80.783 70.9307V37.0613L68.1687 35.5163Z" fill="#6E7E92"/>
  <path d="M141.971 39.1388V8.58752L83.0402 32.4816L83.0402 73.5705L141.971 39.1388Z" fill="#E0E4EC"/>
  <path fill-rule="evenodd" clip-rule="evenodd" d="M142.099 8.39789C142.162 8.44037 142.2 8.51142 142.2 8.58746V39.1388C142.2 39.22 142.157 39.2951 142.087 39.3361L83.1555 73.7678C83.0848 73.8091 82.9975 73.8094 82.9265 73.7687C82.8554 73.7279 82.8117 73.6523 82.8117 73.5704L82.8116 32.4816C82.8116 32.3885 82.8681 32.3047 82.9543 32.2697L141.886 8.37564C141.956 8.34707 142.036 8.35541 142.099 8.39789ZM83.2688 32.6355L83.2688 73.1722L141.743 39.0076V8.92678L83.2688 32.6355Z" fill="#6E7E92"/>
  <path d="M141.118 38.2216V10.1125L85.2662 33.6883L85.2662 70.1582L141.118 38.2216Z" fill="#E0E4EC"/>
  <path fill-rule="evenodd" clip-rule="evenodd" d="M140.554 10.1482C140.614 10.1878 140.65 10.2547 140.65 10.3263V39.046C140.65 39.1227 140.609 39.1935 140.542 39.2316L85.7947 70.3586C85.7282 70.3964 85.6464 70.3961 85.5801 70.3579C85.5138 70.3196 85.473 70.2492 85.473 70.173L85.473 33.3043C85.473 33.2184 85.5248 33.1408 85.6044 33.1074L140.351 10.1294C140.418 10.1015 140.494 10.1086 140.554 10.1482ZM139.419 10.9846V39.3771L140.22 38.922V10.6486L139.419 10.9846ZM138.989 39.6216V11.165L138.056 11.5568V40.1523L138.989 39.6216ZM137.626 40.3968V11.7373L136.343 12.2757V41.1262L137.626 40.3968ZM135.913 41.3707V12.4562L134.532 13.0359V42.1559L135.913 41.3707ZM134.102 42.4004V13.2163L132.451 13.9092V43.339L134.102 42.4004ZM132.021 43.5834V14.0897L130.408 14.7668V44.5007L132.021 43.5834ZM129.978 44.7451V14.9472L128.094 15.7378V45.8161L129.978 44.7451ZM127.664 46.0605V15.9183L125.681 16.7508V47.1883L127.664 46.0605ZM125.251 47.4328V16.9313L123.266 17.7645V48.5615L125.251 47.4328ZM122.836 48.806V17.945L120.18 19.0598V50.3162L122.836 48.806ZM119.75 50.5606V19.2403L117.211 20.3059V52.0042L119.75 50.5606ZM116.781 52.2486V20.4863L113.882 21.7028V53.8965L116.781 52.2486ZM113.452 54.141V21.8833L110.82 22.988V55.6375L113.452 54.141ZM110.39 55.8819V23.1685L107.731 24.2848V57.3941L110.39 55.8819ZM107.301 57.6386V24.4652L104.959 25.448V58.9699L107.301 57.6386ZM104.529 59.2144V25.6285L100.967 27.1237V61.2398L104.529 59.2144ZM100.537 61.4843V27.3041L96.6759 28.9246V63.6795L100.537 61.4843ZM96.2459 63.9239V29.1051L92.0412 30.8699V66.3146L96.2459 63.9239ZM91.6112 66.5591V31.0504L85.903 33.4461L85.903 69.8045L91.6112 66.5591Z" fill="#6E7E92"/>
  <path d="M52.703 66.3505L65.6841 68.5526V34.9563L52.703 33.3691L52.703 66.3505Z" fill="#E0E4EC"/>
  <path fill-rule="evenodd" clip-rule="evenodd" d="M52.5516 33.198C52.6006 33.1547 52.6658 33.1344 52.7308 33.1423L65.7118 34.7295C65.8265 34.7435 65.9127 34.8409 65.9127 34.9564V68.5527C65.9127 68.62 65.883 68.6839 65.8316 68.7273C65.7802 68.7707 65.7122 68.7893 65.6459 68.778L52.6649 66.5759C52.5549 66.5572 52.4745 66.462 52.4745 66.3505L52.4745 33.3692C52.4745 33.3037 52.5025 33.2414 52.5516 33.198ZM52.9316 33.6274L52.9317 66.1575L65.4555 68.2821V35.1587L52.9316 33.6274Z" fill="#6E7E92"/>
  <path fill-rule="evenodd" clip-rule="evenodd" d="M62.6617 68.0177L62.6617 31.6121L63.1189 31.6121L63.1189 68.0177L62.6617 68.0177Z" fill="#6E7E92"/>
  <path fill-rule="evenodd" clip-rule="evenodd" d="M57.3803 67.2432L57.3802 30.908L57.8374 30.908L57.8374 67.2432L57.3803 67.2432Z" fill="#6E7E92"/>
  <path fill-rule="evenodd" clip-rule="evenodd" d="M70.4074 69.2852L70.4073 32.105L70.8645 32.105L70.8645 69.2852L70.4074 69.2852Z" fill="#6E7E92"/>
  <path fill-rule="evenodd" clip-rule="evenodd" d="M75.3365 70.1302L75.3365 32.1754L75.7937 32.1754L75.7937 70.1302L75.3365 70.1302Z" fill="#6E7E92"/>
  <path d="M80.5648 39.3932L83.0892 39.9917V37.7041L80.5648 37.6411V39.3932Z" fill="#E0E4EC"/>
  <path fill-rule="evenodd" clip-rule="evenodd" d="M80.4053 37.4774C80.4494 37.4344 80.509 37.411 80.5706 37.4125L83.0949 37.4755C83.2189 37.4786 83.3178 37.58 83.3178 37.704V39.9916C83.3178 40.0615 83.2858 40.1276 83.231 40.1709C83.1761 40.2143 83.1045 40.2302 83.0365 40.214L80.5121 39.6155C80.4091 39.591 80.3363 39.499 80.3363 39.3931V37.641C80.3363 37.5794 80.3612 37.5204 80.4053 37.4774ZM80.7934 37.8754V39.2124L82.8606 39.7025V37.9269L80.7934 37.8754Z" fill="#6E7E92"/>
  <path d="M53.162 35.8374L50.6376 35.7938V33.1263L53.162 33.7249V35.8374Z" fill="#E0E4EC"/>
  <path fill-rule="evenodd" clip-rule="evenodd" d="M50.4958 32.947C50.441 32.9903 50.409 33.0564 50.409 33.1263V35.7937C50.409 35.9184 50.5089 36.0201 50.6336 36.0223L53.158 36.0659C53.2193 36.0669 53.2784 36.0433 53.3222 36.0004C53.3659 35.9574 53.3905 35.8986 53.3905 35.8373V33.7248C53.3905 33.6189 53.3177 33.5269 53.2147 33.5024L50.6903 32.9039C50.6223 32.8877 50.5506 32.9036 50.4958 32.947ZM52.9334 33.9055V35.6048L50.8661 35.5691V33.4154L52.9334 33.9055Z" fill="#6E7E92"/>
  <path d="M53.162 45.3085L50.6376 45.2649V42.5974L53.162 43.196V45.3085Z" fill="#E0E4EC"/>
  <path fill-rule="evenodd" clip-rule="evenodd" d="M50.4958 42.4179C50.441 42.4613 50.409 42.5273 50.409 42.5972V45.2647C50.409 45.3894 50.5089 45.4911 50.6336 45.4932L53.158 45.5368C53.2193 45.5379 53.2784 45.5143 53.3222 45.4713C53.3659 45.4283 53.3905 45.3696 53.3905 45.3083V43.1958C53.3905 43.0898 53.3177 42.9978 53.2147 42.9734L50.6903 42.3748C50.6223 42.3587 50.5506 42.3746 50.4958 42.4179ZM52.9334 43.3765V45.0757L50.8661 45.04V42.8863L52.9334 43.3765Z" fill="#6E7E92"/>
  <path d="M53.162 54.5328L50.6376 54.4893V51.8218L53.162 52.4203V54.5328Z" fill="#E0E4EC"/>
  <path fill-rule="evenodd" clip-rule="evenodd" d="M50.4958 51.6425C50.441 51.6859 50.409 51.7519 50.409 51.8218V54.4893C50.409 54.614 50.5089 54.7157 50.6336 54.7178L53.158 54.7614C53.2193 54.7625 53.2784 54.7389 53.3222 54.6959C53.3659 54.6529 53.3905 54.5942 53.3905 54.5329V52.4204C53.3905 52.3145 53.3177 52.2224 53.2147 52.198L50.6903 51.5994C50.6223 51.5833 50.5506 51.5992 50.4958 51.6425ZM52.9334 52.6011V54.3003L50.8661 54.2646V52.1109L52.9334 52.6011Z" fill="#6E7E92"/>
  <path d="M53.162 63.9686L50.6376 63.925V61.2576L53.162 61.8561V63.9686Z" fill="#E0E4EC"/>
  <path fill-rule="evenodd" clip-rule="evenodd" d="M50.4958 61.0782C50.441 61.1216 50.409 61.1876 50.409 61.2575V63.925C50.409 64.0497 50.5089 64.1514 50.6336 64.1535L53.158 64.1971C53.2193 64.1982 53.2784 64.1746 53.3222 64.1316C53.3659 64.0886 53.3905 64.0299 53.3905 63.9686V61.8561C53.3905 61.7501 53.3177 61.6581 53.2147 61.6336L50.6903 61.0351C50.6223 61.019 50.5506 61.0349 50.4958 61.0782ZM52.9334 62.0368V63.736L50.8661 63.7003V61.5466L52.9334 62.0368Z" fill="#6E7E92"/>
  <path d="M80.5648 49.1378L83.0892 49.7363V47.4487L80.5648 47.3857V49.1378Z" fill="#E0E4EC"/>
  <path fill-rule="evenodd" clip-rule="evenodd" d="M80.4053 47.222C80.4494 47.179 80.509 47.1556 80.5706 47.1572L83.0949 47.2201C83.2189 47.2232 83.3178 47.3246 83.3178 47.4486V49.7363C83.3178 49.8062 83.2858 49.8722 83.231 49.9156C83.1761 49.9589 83.1045 49.9748 83.0365 49.9587L80.5121 49.3601C80.4091 49.3357 80.3363 49.2436 80.3363 49.1377V47.3857C80.3363 47.3241 80.3612 47.2651 80.4053 47.222ZM80.7934 47.62V48.957L82.8606 49.4472V47.6716L80.7934 47.62Z" fill="#6E7E92"/>
  <path d="M80.5648 58.8819L83.0892 59.4805V57.1928L80.5648 57.1299V58.8819Z" fill="#E0E4EC"/>
  <path fill-rule="evenodd" clip-rule="evenodd" d="M80.4053 56.9663C80.4494 56.9233 80.509 56.8999 80.5706 56.9014L83.0949 56.9644C83.2189 56.9675 83.3178 57.0689 83.3178 57.1929V59.4805C83.3178 59.5504 83.2858 59.6165 83.231 59.6598C83.1761 59.7032 83.1045 59.7191 83.0365 59.7029L80.5121 59.1044C80.4091 59.08 80.3363 58.9879 80.3363 58.882V57.1299C80.3363 57.0683 80.3612 57.0093 80.4053 56.9663ZM80.7934 57.3643V58.7013L82.8606 59.1914V57.4158L80.7934 57.3643Z" fill="#6E7E92"/>
  <path d="M80.5648 68.6266L83.0892 69.1631V66.9375L80.5648 66.8745V68.6266Z" fill="#E0E4EC"/>
  <path fill-rule="evenodd" clip-rule="evenodd" d="M80.4053 66.7109C80.4494 66.6679 80.509 66.6445 80.5706 66.6461L83.0949 66.709C83.2189 66.7121 83.3178 66.8135 83.3178 66.9375V69.1631C83.3178 69.2321 83.2867 69.2974 83.2331 69.3408C83.1795 69.3841 83.1092 69.401 83.0417 69.3867L80.5174 68.8502C80.4118 68.8278 80.3363 68.7345 80.3363 68.6266V66.8746C80.3363 66.813 80.3612 66.754 80.4053 66.7109ZM80.7934 67.1089V68.4415L82.8606 68.8809V67.1605L80.7934 67.1089Z" fill="#6E7E92"/>
  <path fill-rule="evenodd" clip-rule="evenodd" d="M83.0098 35.2682L50.5424 31.4343L50.596 30.9803L83.0634 34.8142L83.0098 35.2682Z" fill="#6E7E92"/>
  <path fill-rule="evenodd" clip-rule="evenodd" d="M83.0025 71.7703L50.5385 66.2041L50.6157 65.7535L83.0798 71.3197L83.0025 71.7703Z" fill="#6E7E92"/>
  <path d="M115.668 6.40271L139.645 8.4096L137.955 9.14898L139.926 9.43065V11.015L83.0051 35.0273L53.3485 31.5416V29.0066L50.567 28.6193L115.668 6.40271Z" fill="#F5F6FF"/>
  <path fill-rule="evenodd" clip-rule="evenodd" d="M115.594 6.18632C115.624 6.17614 115.655 6.17224 115.687 6.17487L139.664 8.18176C139.768 8.19048 139.853 8.26889 139.87 8.37211C139.887 8.47533 139.832 8.577 139.736 8.61894L138.782 9.03627L139.959 9.20431C140.071 9.22039 140.155 9.31683 140.155 9.43058V11.015C140.155 11.1069 140.1 11.1898 140.015 11.2256L83.094 35.2378C83.0576 35.2532 83.0177 35.2588 82.9785 35.2542L53.3219 31.7686C53.2068 31.755 53.12 31.6575 53.12 31.5416V29.2055L50.5356 28.8456C50.4307 28.831 50.3496 28.7464 50.3395 28.641C50.3295 28.5356 50.3931 28.4371 50.4933 28.4029L115.594 6.18632ZM115.696 6.63441L51.55 28.5253L53.3801 28.7801C53.493 28.7959 53.5771 28.8925 53.5771 29.0065V31.3383L82.9719 34.7931L139.698 10.8633V9.62882L137.922 9.37519C137.821 9.36074 137.742 9.28095 137.728 9.17973C137.714 9.07852 137.769 8.98045 137.863 8.9395L138.726 8.562L115.696 6.63441Z" fill="#6E7E92"/>
  <path d="M80.2479 34.7105V32.2107L83.0052 32.5276V35.0274L80.2479 34.7105Z" fill="#E0E4EC"/>
  <path fill-rule="evenodd" clip-rule="evenodd" d="M80.0956 32.04C80.1443 31.9967 80.2091 31.9761 80.2738 31.9836L83.0311 32.3004C83.1465 32.3137 83.2336 32.4114 83.2336 32.5275V35.0273C83.2336 35.0925 83.2058 35.1545 83.1571 35.1979C83.1085 35.2413 83.0437 35.2618 82.9789 35.2544L80.2216 34.9375C80.1063 34.9242 80.0192 34.8266 80.0192 34.7104V32.2106C80.0192 32.1455 80.047 32.0834 80.0956 32.04ZM80.4763 32.467V34.5066L82.7764 34.771V32.7313L80.4763 32.467Z" fill="#6E7E92"/>
  <path d="M50.6022 31.1895V28.6897L53.3594 29.0066V31.5064L50.6022 31.1895Z" fill="#E0E4EC"/>
  <path fill-rule="evenodd" clip-rule="evenodd" d="M50.4501 28.5192C50.4987 28.4758 50.5636 28.4552 50.6283 28.4627L53.3856 28.7796C53.501 28.7928 53.5881 28.8905 53.5881 29.0066V31.5064C53.5881 31.5716 53.5603 31.6337 53.5116 31.677C53.463 31.7204 53.3981 31.741 53.3334 31.7335L50.5761 31.4166C50.4608 31.4034 50.3737 31.3057 50.3737 31.1896V28.6898C50.3737 28.6246 50.4015 28.5625 50.4501 28.5192ZM50.8308 28.9461V30.9858L53.1309 31.2501V29.2104L50.8308 28.9461Z" fill="#6E7E92"/>
  <path d="M85.0009 34.1824V31.6826L83.005 32.5276V35.0274L85.0009 34.1824Z" fill="#E0E4EC"/>
  <path fill-rule="evenodd" clip-rule="evenodd" d="M85.1272 31.492C85.1911 31.5343 85.2295 31.6059 85.2295 31.6826V34.1824C85.2295 34.2742 85.1746 34.3571 85.09 34.3928L83.0942 35.2378C83.0236 35.2677 82.9427 35.2602 82.8788 35.2179C82.8149 35.1756 82.7765 35.104 82.7765 35.0274V32.5276C82.7765 32.4358 82.8314 32.3529 82.9159 32.3171L84.9118 31.4721C84.9824 31.4422 85.0633 31.4497 85.1272 31.492ZM83.2336 32.679V34.6824L84.7724 34.0309V32.0275L83.2336 32.679Z" fill="#6E7E92"/>
  <path d="M55.3554 29.2179V28.1616L53.3595 29.0066L55.3554 29.2179Z" fill="#E0E4EC"/>
  <path fill-rule="evenodd" clip-rule="evenodd" d="M55.4815 27.9711C55.5454 28.0135 55.5838 28.085 55.5838 28.1617V29.2179C55.5838 29.2827 55.5563 29.3445 55.5081 29.3879C55.4599 29.4312 55.3956 29.4521 55.3312 29.4452L53.3353 29.234C53.2316 29.223 53.1486 29.1434 53.1332 29.0403C53.1179 28.9372 53.1743 28.8368 53.2702 28.7962L55.2661 27.9512C55.3367 27.9213 55.4176 27.9288 55.4815 27.9711ZM54.2627 28.8724L55.1266 28.9639V28.5067L54.2627 28.8724Z" fill="#6E7E92"/>
  <path d="M82.2545 31.3657L85.0008 31.6826L83.0049 32.5276L80.2587 32.2107L82.2545 31.3657Z" fill="#E0E4EC"/>
  <path fill-rule="evenodd" clip-rule="evenodd" d="M82.1655 31.155C82.2019 31.1397 82.2416 31.1339 82.2808 31.1385L85.0271 31.4553C85.1302 31.4672 85.2124 31.5471 85.2271 31.6499C85.2419 31.7526 85.1856 31.8524 85.09 31.8929L83.0941 32.7379C83.0578 32.7533 83.018 32.759 82.9788 32.7545L80.2325 32.4376C80.1294 32.4257 80.0473 32.3458 80.0325 32.2431C80.0177 32.1403 80.074 32.0405 80.1696 32.0001L82.1655 31.155ZM82.2883 31.5995L81.1465 32.0829L82.9714 32.2934L84.1131 31.8101L82.2883 31.5995Z" fill="#6E7E92"/>
  <path d="M115.693 6.40271L118.203 6.61396L116.513 7.35334L113.802 7.03646L115.693 6.40271Z" fill="#E0E4EC"/>
  <path fill-rule="evenodd" clip-rule="evenodd" d="M115.621 6.18591C115.65 6.17602 115.681 6.17227 115.712 6.17488L118.222 6.38613C118.326 6.3949 118.411 6.47333 118.428 6.57653C118.445 6.67973 118.39 6.78137 118.294 6.8233L116.604 7.56268C116.567 7.57893 116.526 7.58501 116.486 7.5803L113.775 7.26342C113.669 7.251 113.585 7.16647 113.574 7.06001C113.563 6.95355 113.628 6.85367 113.729 6.81967L115.621 6.18591ZM115.721 6.63437L114.844 6.92814L116.478 7.11907L117.285 6.766L115.721 6.63437Z" fill="#6E7E92"/>
  <path fill-rule="evenodd" clip-rule="evenodd" d="M72.9709 20.7729C73.0416 20.6683 73.1837 20.6408 73.2883 20.7114C74.9513 21.8346 79.6117 23.7932 86.6941 23.598L86.7004 23.5979V23.5979C90.5256 23.5979 92.8441 23.8326 94.3098 24.3821C95.0498 24.6596 95.5806 25.02 95.9785 25.4763C96.3746 25.9307 96.627 26.4668 96.8302 27.0757C97.1836 28.1344 97.2426 28.8176 97.235 29.222C97.2326 29.3483 97.1284 29.4487 97.0021 29.4463C96.8759 29.4439 96.7755 29.3397 96.7779 29.2135C96.7844 28.8675 96.7356 28.2363 96.3966 27.2204C96.2033 26.6411 95.9749 26.1679 95.6339 25.7767C95.2945 25.3875 94.8317 25.0661 94.1493 24.8102C92.7705 24.2932 90.5299 24.0552 86.7036 24.0551C79.5415 24.2519 74.7852 22.274 73.0324 21.0903C72.9278 21.0196 72.9003 20.8775 72.9709 20.7729Z" fill="#6E7E92"/>
  <path fill-rule="evenodd" clip-rule="evenodd" d="M85.9393 16.3693C85.9962 16.2566 86.1337 16.2115 86.2464 16.2684C88.4372 17.3758 92.6837 18.7352 98.6401 18.571L98.6464 18.5709V18.571C102.472 18.571 104.79 18.8056 106.256 19.3551C106.996 19.6326 107.527 19.993 107.924 20.4493C108.321 20.9038 108.573 21.4398 108.776 22.0487C109.13 23.1075 109.189 23.7906 109.181 24.1951C109.179 24.3213 109.074 24.4217 108.948 24.4193C108.822 24.4169 108.722 24.3127 108.724 24.1865C108.73 23.8405 108.682 23.2093 108.343 22.1934C108.149 21.6141 107.921 21.1409 107.58 20.7498C107.241 20.3605 106.778 20.0391 106.095 19.7832C104.716 19.2662 102.476 19.0282 98.6496 19.0281C92.6212 19.1937 88.3003 17.8188 86.0402 16.6764C85.9275 16.6194 85.8824 16.4819 85.9393 16.3693Z" fill="#6E7E92"/>
  <path fill-rule="evenodd" clip-rule="evenodd" d="M63.3694 24.0553C63.4399 23.9506 63.5819 23.9228 63.6867 23.9933C65.412 25.1546 70.2443 27.1782 77.5867 26.9765L77.593 26.9763V26.9764C81.5577 26.9764 83.9592 27.2188 85.4767 27.7859C86.2425 28.0721 86.7915 28.4436 87.2028 28.9138C87.6125 29.3821 87.8737 29.9348 88.0842 30.5633C88.4502 31.6563 88.5112 32.3612 88.5034 32.7781C88.501 32.9043 88.3967 33.0047 88.2705 33.0023C88.1443 33 88.0439 32.8957 88.0463 32.7695C88.053 32.4113 88.0024 31.7585 87.6507 30.7085C87.4502 30.1097 87.2132 29.6199 86.8588 29.2148C86.506 28.8116 86.0251 28.4788 85.3167 28.2141C83.8859 27.6794 81.562 27.4337 77.5961 27.4336C70.1744 27.6368 65.2464 25.5942 63.4314 24.3726C63.3267 24.3021 63.2989 24.16 63.3694 24.0553Z" fill="#6E7E92"/>
  <path fill-rule="evenodd" clip-rule="evenodd" d="M98.9732 11.9742C99.0129 11.8544 99.1422 11.7894 99.262 11.829C101.735 12.6476 105.246 13.3314 109.662 13.2101L109.668 13.2099V13.21C113.633 13.21 116.034 13.4524 117.552 14.0194C118.318 14.3056 118.867 14.6772 119.278 15.1474C119.688 15.6157 119.949 16.1684 120.159 16.7969C120.527 17.8959 120.587 18.8123 120.579 19.2229C120.577 19.3491 120.472 19.4495 120.346 19.4472C120.22 19.4448 120.12 19.3405 120.122 19.2143C120.129 18.8498 120.075 17.986 119.726 16.9421C119.525 16.3433 119.288 15.8535 118.934 15.4484C118.581 15.0452 118.1 14.7124 117.392 14.4477C115.961 13.913 113.637 13.6672 109.671 13.6671C105.203 13.7895 101.641 13.0978 99.1184 12.263C98.9985 12.2233 98.9335 12.094 98.9732 11.9742Z" fill="#6E7E92"/>
  <path fill-rule="evenodd" clip-rule="evenodd" d="M112.032 7.56853C112.065 7.44674 112.191 7.37492 112.313 7.40813C114.672 8.05146 117.758 8.52431 121.492 8.42175L121.498 8.42158V8.42167C125.463 8.42167 127.864 8.66409 129.382 9.23113C130.148 9.5173 130.697 9.88886 131.108 10.3591C131.518 10.8274 131.779 11.3801 131.989 12.0086C132.355 13.1016 132.416 13.8064 132.408 14.2234C132.406 14.3496 132.302 14.45 132.176 14.4476C132.049 14.4452 131.949 14.341 131.951 14.2148C131.958 13.8565 131.907 13.2038 131.556 12.1538C131.355 11.555 131.118 11.0652 130.764 10.6601C130.411 10.2569 129.93 9.92409 129.222 9.65935C127.791 9.1247 125.467 8.87894 121.501 8.87881C117.723 8.98227 114.594 8.50391 112.192 7.84917C112.071 7.81597 111.999 7.69032 112.032 7.56853Z" fill="#6E7E92"/>
  <path d="M52.7147 27.8799L55.3553 28.1616L53.3594 29.0066L50.6022 28.6193L52.7147 27.8799Z" fill="#E0E4EC"/>
  <path fill-rule="evenodd" clip-rule="evenodd" d="M52.6392 27.6642C52.6712 27.653 52.7053 27.6491 52.739 27.6527L55.3796 27.9343C55.4832 27.9454 55.5662 28.0251 55.5815 28.1281C55.5968 28.2311 55.5404 28.3315 55.4445 28.3721L53.4486 29.2171C53.4105 29.2332 53.3687 29.2387 53.3277 29.233L50.5704 28.8457C50.466 28.831 50.3852 28.7468 50.3748 28.6418C50.3644 28.5369 50.4272 28.4384 50.5267 28.4036L52.6392 27.6642ZM52.7417 28.1127L51.5666 28.524L53.3286 28.7715L54.4534 28.2953L52.7417 28.1127Z" fill="#6E7E92"/>
</svg>
