<svg viewBox="0 0 192 80" fill="none" xmlns="http://www.w3.org/2000/svg">
  <path d="M172.547 17.0375V14.0876L127.446 8.58105L18.6268 62.0074L18.6268 65.6128L28.1977 67.1861L33.6386 64.3673L58.2088 68.5881V72.4629L73.136 74.8578L172.547 17.0375Z" fill="#E0E4EC"/>
  <path d="M28.1484 67.3012L28.1484 63.6235" stroke="#6E7E92"/>
  <path d="M73.1681 74.7976L73.1681 71.437" stroke="#6E7E92"/>
  <path fill-rule="evenodd" clip-rule="evenodd" d="M127.277 8.2347C127.344 8.2018 127.419 8.1891 127.493 8.19815L172.594 13.7047C172.787 13.7282 172.932 13.8921 172.932 14.0866V17.0365C172.932 17.1736 172.859 17.3003 172.741 17.3692L73.3296 75.1895C73.2528 75.2342 73.1629 75.2509 73.0752 75.2368L58.148 72.8419C57.9614 72.812 57.8241 72.6509 57.8241 72.4619V68.9115L33.701 64.7675L28.3748 67.5269C28.3012 67.565 28.2172 67.5783 28.1354 67.5649L18.5646 65.9916C18.3786 65.961 18.2422 65.8003 18.2422 65.6119V62.0064C18.2422 61.8597 18.3257 61.7257 18.4574 61.661L127.277 8.2347ZM127.513 8.97594L19.0118 62.2462V65.2852L28.1342 66.7848L33.4618 64.0247C33.5362 63.9861 33.6213 63.9729 33.7039 63.9871L58.2741 68.2079C58.4588 68.2396 58.5937 68.3997 58.5937 68.5871V72.134L73.0614 74.4552L172.162 16.8152V14.4273L127.513 8.97594Z" fill="#6E7E92"/>
  <path d="M130.396 8.97363L172.547 14.0213L73.188 71.1185L18.6268 61.941V60.1054L73.188 34.7079L130.396 8.97363Z" fill="#E0E4EC"/>
  <path fill-rule="evenodd" clip-rule="evenodd" d="M130.238 8.62274C130.302 8.59405 130.372 8.58328 130.442 8.5916L172.593 13.6392C172.758 13.6589 172.891 13.7819 172.924 13.9444C172.957 14.1069 172.883 14.2723 172.739 14.3549L73.3799 71.4522C73.3026 71.4966 73.2123 71.5128 73.1243 71.498L18.5632 62.3205C18.3779 62.2893 18.2422 62.1289 18.2422 61.941V60.1055C18.2422 59.9558 18.3289 59.8198 18.4646 59.7566L73.0258 34.3591L73.0303 34.357L130.238 8.62274ZM130.456 9.36845L73.573 34.9568V70.4536L171.35 14.2655L130.456 9.36845ZM72.8034 70.6636V35.3115L19.0118 60.3508V61.6155L72.8034 70.6636Z" fill="#6E7E92"/>
  <path d="M127.447 8.58105L132.822 9.23659L138.197 9.89213L143.573 10.5477L148.948 11.2032L154.324 11.8587L159.699 12.5143L165.074 13.1698L170.45 13.8254L73.1886 69.2839L66.4422 68.1367L59.6958 66.9895L52.9494 65.8423L46.203 64.6951L39.4566 63.5479L32.7102 62.4007L25.9638 61.2535L19.2174 60.1063L127.447 8.58105Z" fill="#E0E4EC"/>
  <path fill-rule="evenodd" clip-rule="evenodd" d="M127.281 8.23268C127.347 8.20128 127.421 8.1893 127.493 8.19814L170.496 13.4424C170.661 13.4625 170.794 13.5859 170.827 13.7486C170.86 13.9112 170.784 14.0765 170.64 14.1587L73.379 69.6172C73.3018 69.6613 73.2116 69.6772 73.1239 69.6623L19.1527 60.4847C18.9873 60.4566 18.8591 60.3245 18.8361 60.1583C18.813 59.992 18.9003 59.83 19.0518 59.7579L127.281 8.23268ZM127.511 8.97562L20.4809 59.9299L25.9063 60.8525L131.482 9.4599L127.511 8.97562ZM132.888 9.63138L27.2094 61.0741L32.6509 61.9994L136.878 10.118L132.888 9.63138ZM138.265 10.2871L33.9381 62.2183L39.3954 63.1462L142.274 10.776L138.265 10.2871ZM143.643 10.9429L40.667 63.3625L46.1398 64.2931L147.67 11.434L143.643 10.9429ZM149.02 11.5987L47.3961 64.5067L52.8843 65.44L153.065 12.092L149.02 11.5987ZM154.397 12.2545L54.1253 65.651L59.6286 66.5868L158.46 12.7499L154.397 12.2545ZM159.775 12.9102L60.8547 66.7953L66.373 67.7337L163.855 13.4078L159.775 12.9102ZM165.152 13.566L67.5843 67.9396L73.1173 68.8805L169.25 14.0657L165.152 13.566Z" fill="#6E7E92"/>
  <path d="M92.703 62.7933L83.7877 67.972V65.6776L92.703 60.5645V62.7933Z" fill="#E0E4EC"/>
  <path fill-rule="evenodd" clip-rule="evenodd" d="M92.8957 60.2315C93.0145 60.3003 93.0876 60.4272 93.0876 60.5645V62.7933C93.0876 62.9304 93.0147 63.0572 92.8961 63.1261L83.9808 68.3048C83.8618 68.374 83.7149 68.3742 83.5956 68.3056C83.4762 68.2369 83.4027 68.1097 83.4027 67.9721V65.6777C83.4027 65.5398 83.4765 65.4125 83.5961 65.3439L92.5114 60.2307C92.6304 60.1624 92.7769 60.1627 92.8957 60.2315ZM84.1723 65.9006V67.3035L92.318 62.5718V61.2288L84.1723 65.9006Z" fill="#6E7E92"/>
  <path d="M133.215 37.4229V39.1273L126.397 43.0875V41.3329L133.215 37.4229Z" fill="#E0E4EC"/>
  <path fill-rule="evenodd" clip-rule="evenodd" d="M164.489 19.4918C164.608 19.5606 164.681 19.6875 164.681 19.8247V20.8472C164.681 20.9844 164.608 21.1111 164.489 21.18L157.672 25.1402C157.553 25.2093 157.406 25.2096 157.286 25.141C157.167 25.0723 157.094 24.9451 157.094 24.8075V23.7348C157.094 23.597 157.167 23.4696 157.287 23.401L164.104 19.4909C164.224 19.4226 164.37 19.423 164.489 19.4918ZM157.863 23.7348V24.3604L163.911 20.8472V20.2661L157.863 23.7348Z" fill="#6E7E92"/>
  <path d="M18.6268 61.9398L18.6924 56.1055L23.2156 56.76V62.7045L18.6268 61.9398Z" fill="#E0E4EC"/>
  <path fill-rule="evenodd" clip-rule="evenodd" d="M18.4423 55.8132C18.5266 55.741 18.6379 55.7088 18.7477 55.7247L23.2709 56.3792C23.4601 56.4066 23.6006 56.5688 23.6006 56.7601V62.7045C23.6006 62.8176 23.5508 62.925 23.4645 62.9981C23.3782 63.0713 23.2641 63.1027 23.1525 63.0841L18.5637 62.3194C18.3766 62.2882 18.2401 62.1252 18.2422 61.9355L18.3078 56.1012C18.309 55.9903 18.3581 55.8853 18.4423 55.8132ZM19.0724 56.5493L19.0155 61.6144L22.831 62.2503V57.0932L19.0724 56.5493Z" fill="#6E7E92"/>
  <path d="M123.25 10.2855V7.00781L128.364 7.66335V10.8755L123.25 10.2855Z" fill="#E0E4EC"/>
  <path fill-rule="evenodd" clip-rule="evenodd" d="M122.997 6.71897C123.08 6.64592 123.19 6.61211 123.3 6.62617L128.413 7.28171C128.605 7.30633 128.749 7.46979 128.749 7.66339V10.8755C128.749 10.9853 128.702 11.0898 128.62 11.1628C128.538 11.2358 128.429 11.2704 128.32 11.2578L123.207 10.6678C123.013 10.6454 122.866 10.481 122.866 10.2855V7.00785C122.866 6.89727 122.914 6.79203 122.997 6.71897ZM123.636 7.44513V9.94258L127.979 10.4438V8.002L123.636 7.44513Z" fill="#6E7E92"/>
  <path d="M26.428 60.8255V55.2529L23.2158 56.7606V62.661L26.428 60.8255Z" fill="#E0E4EC"/>
  <path fill-rule="evenodd" clip-rule="evenodd" d="M26.6343 54.9282C26.7455 54.9988 26.8128 55.1213 26.8128 55.253V60.8255C26.8128 60.9636 26.7388 61.0911 26.6189 61.1596L23.4068 62.9951C23.2877 63.0632 23.1414 63.0627 23.0227 62.9939C22.9041 62.925 22.8311 62.7982 22.8311 62.661V56.7607C22.8311 56.6115 22.9173 56.4757 23.0524 56.4123L26.2645 54.9046C26.3837 54.8487 26.5232 54.8576 26.6343 54.9282ZM23.6007 57.0051V61.998L26.0432 60.6022V55.8587L23.6007 57.0051Z" fill="#6E7E92"/>
  <path d="M131.708 9.03903V5.95801L128.364 7.6624V10.8745L131.708 9.03903Z" fill="#E0E4EC"/>
  <path fill-rule="evenodd" clip-rule="evenodd" d="M131.908 5.62992C132.022 5.69987 132.092 5.82414 132.092 5.95804V9.03907C132.092 9.17951 132.015 9.30879 131.892 9.37638L128.549 11.2119C128.43 11.2773 128.285 11.275 128.168 11.2057C128.051 11.1365 127.979 11.0106 127.979 10.8746V7.66244C127.979 7.51777 128.06 7.38533 128.189 7.31962L131.532 5.61522C131.652 5.55441 131.794 5.55998 131.908 5.62992ZM128.749 7.89819V10.2243L131.322 8.81135V6.58614L128.749 7.89819Z" fill="#6E7E92"/>
  <path d="M26.4282 55.2533L21.905 54.5322L18.6929 56.1055L23.3472 56.8266L26.4282 55.2533Z" fill="#E0E4EC"/>
  <path fill-rule="evenodd" clip-rule="evenodd" d="M21.7353 54.1867C21.8065 54.1518 21.8868 54.1398 21.9652 54.1523L26.4884 54.8733C26.6529 54.8996 26.7818 55.0287 26.8078 55.1932C26.8339 55.3577 26.7511 55.5203 26.6028 55.5961L23.5218 57.1693C23.4497 57.2061 23.3678 57.2193 23.2878 57.2069L18.6335 56.4858C18.4674 56.4601 18.3373 56.3295 18.312 56.1634C18.2867 55.9972 18.3722 55.8339 18.5232 55.76L21.7353 54.1867ZM21.9644 54.9315L19.961 55.9127L23.2826 56.4273L25.2014 55.4475L21.9644 54.9315Z" fill="#6E7E92"/>
  <path d="M131.707 5.89259L127.184 5.36816L123.25 7.00701L128.298 7.66255L131.707 5.89259Z" fill="#E0E4EC"/>
  <path fill-rule="evenodd" clip-rule="evenodd" d="M127.036 5.013C127.097 4.98769 127.163 4.97838 127.228 4.98596L131.752 5.51039C131.92 5.52987 132.055 5.65675 132.086 5.82308C132.116 5.98941 132.035 6.15621 131.885 6.23414L128.476 8.00409C128.406 8.04031 128.327 8.0543 128.249 8.04418L123.201 7.38864C123.029 7.36621 122.893 7.23061 122.869 7.058C122.846 6.8854 122.942 6.71882 123.103 6.65184L127.036 5.013ZM127.239 5.762L124.724 6.81027L128.228 7.26543L130.415 6.13015L127.239 5.762Z" fill="#6E7E92"/>
  <path d="M68.5792 70.331L68.5792 64.1689L73.168 64.89V71.0521L68.5792 70.331Z" fill="#E0E4EC"/>
  <path fill-rule="evenodd" clip-rule="evenodd" d="M68.3289 63.8765C68.4144 63.8034 68.5276 63.7714 68.6388 63.7888L73.2275 64.5099C73.4147 64.5393 73.5526 64.7006 73.5526 64.8901V71.0521C73.5526 71.1646 73.5034 71.2715 73.4179 71.3446C73.3324 71.4177 73.2192 71.4497 73.1081 71.4322L68.5193 70.7112C68.3321 70.6817 68.1942 70.5205 68.1942 70.331V64.169C68.1942 64.0565 68.2434 63.9496 68.3289 63.8765ZM68.9638 64.619V70.002L72.783 70.6021V65.2191L68.9638 64.619Z" fill="#6E7E92"/>
  <path d="M164.681 15.331L164.681 11.7256L169.27 12.4467V15.921L164.681 15.331Z" fill="#E0E4EC"/>
  <path fill-rule="evenodd" clip-rule="evenodd" d="M164.43 11.4332C164.516 11.3601 164.629 11.328 164.74 11.3455L169.329 12.0666C169.516 12.096 169.654 12.2573 169.654 12.4467V15.9211C169.654 16.0317 169.607 16.1369 169.523 16.21C169.44 16.283 169.33 16.3168 169.22 16.3027L164.632 15.7127C164.44 15.6881 164.296 15.5246 164.296 15.3311V11.7256C164.296 11.6131 164.345 11.5063 164.43 11.4332ZM165.065 12.1756V14.9926L168.885 15.4836V12.7758L165.065 12.1756Z" fill="#6E7E92"/>
  <path d="M76.3802 69.2829V63.252L73.1681 64.9563V71.1184L76.3802 69.2829Z" fill="#E0E4EC"/>
  <path fill-rule="evenodd" clip-rule="evenodd" d="M76.5784 62.9213C76.6941 62.9908 76.7648 63.116 76.7648 63.251V69.2819C76.7648 69.42 76.6908 69.5475 76.5709 69.616L73.3588 71.4516C73.2397 71.5196 73.0934 71.5191 72.9747 71.4503C72.8561 71.3814 72.7831 71.2546 72.7831 71.1175V64.9554C72.7831 64.813 72.8617 64.6822 72.9875 64.6155L76.1997 62.9111C76.3189 62.8478 76.4627 62.8517 76.5784 62.9213ZM73.5527 65.1868V70.4544L75.9952 69.0586V63.8908L73.5527 65.1868Z" fill="#6E7E92"/>
  <path d="M172.548 14.0209V10.7432L169.27 12.382V15.9219L172.548 14.0209Z" fill="#E0E4EC"/>
  <path fill-rule="evenodd" clip-rule="evenodd" d="M172.75 10.4159C172.863 10.486 172.933 10.6098 172.933 10.7432V14.0209C172.933 14.1581 172.859 14.2849 172.741 14.3537L169.463 16.2548C169.344 16.3239 169.197 16.3241 169.078 16.2554C168.959 16.1867 168.885 16.0596 168.885 15.9219V12.382C168.885 12.2363 168.968 12.103 169.098 12.0379L172.376 10.399C172.495 10.3394 172.637 10.3458 172.75 10.4159ZM169.655 12.6199V15.2539L172.163 13.7992V11.3658L169.655 12.6199Z" fill="#6E7E92"/>
  <path d="M76.3801 63.2523L71.6602 62.5312L68.5792 64.1701L73.2991 64.8912L76.3801 63.2523Z" fill="#E0E4EC"/>
  <path fill-rule="evenodd" clip-rule="evenodd" d="M71.4793 62.1916C71.5525 62.1526 71.6363 62.1384 71.7182 62.1509L76.438 62.872C76.602 62.897 76.7314 63.0243 76.7593 63.1878C76.7871 63.3513 76.707 63.5142 76.5606 63.5921L73.4796 65.2309C73.4065 65.2699 73.3227 65.2841 73.2408 65.2716L68.5209 64.5505C68.357 64.5255 68.2275 64.3982 68.1997 64.2347C68.1719 64.0712 68.2519 63.9083 68.3983 63.8304L71.4793 62.1916ZM71.7281 62.9309L69.7841 63.965L73.2309 64.4916L75.1748 63.4575L71.7281 62.9309Z" fill="#6E7E92"/>
  <path d="M172.482 10.6768L167.696 10.1523L164.681 11.6601L169.27 12.3812L172.482 10.6768Z" fill="#E0E4EC"/>
  <path fill-rule="evenodd" clip-rule="evenodd" d="M167.524 9.8082C167.59 9.77512 167.664 9.76181 167.738 9.76987L172.523 10.2943C172.691 10.3127 172.828 10.4385 172.859 10.6044C172.891 10.7703 172.811 10.9375 172.662 11.0167L169.45 12.7211C169.376 12.7602 169.292 12.7743 169.21 12.7613L164.621 12.0402C164.456 12.0143 164.326 11.8844 164.3 11.7191C164.275 11.5537 164.359 11.3908 164.509 11.3159L167.524 9.8082ZM167.767 10.5472L165.928 11.4666L169.202 11.9812L171.196 10.9231L167.767 10.5472Z" fill="#6E7E92"/>
</svg>
