<svg viewBox="0 0 192 80" fill="none" xmlns="http://www.w3.org/2000/svg">
  <path d="M115.932 3.92676V35.4446L46.0264 70.2658V27.7709L115.932 3.92676Z" fill="#E0E4EC"/>
  <path fill-rule="evenodd" clip-rule="evenodd" d="M116.074 3.72649C116.138 3.77256 116.177 3.84688 116.177 3.92606V35.4439C116.177 35.537 116.124 35.6221 116.041 35.6636L46.1356 70.4847C46.0595 70.5226 45.9692 70.5185 45.897 70.4737C45.8247 70.429 45.7808 70.3501 45.7808 70.2651V27.7702C45.7808 27.6652 45.8476 27.5718 45.9469 27.5379L115.852 3.69381C115.927 3.66824 116.01 3.68041 116.074 3.72649ZM46.2716 27.9458V69.8687L115.686 35.292V4.26905L46.2716 27.9458Z" fill="#6E7E92"/>
  <path d="M144.128 39.0589L115.932 35.4443L46.0114 70.3241L54.7322 71.7487L58.3079 69.9416L72.2873 72.4071V74.6414L80.8949 76.0224L144.128 39.0589Z" fill="#E0E4EC"/>
  <path fill-rule="evenodd" clip-rule="evenodd" d="M115.822 35.225C115.866 35.2033 115.915 35.195 115.963 35.2012L144.159 38.8157C144.263 38.8291 144.347 38.9073 144.368 39.0102C144.389 39.1132 144.342 39.218 144.252 39.271L81.0184 76.2346C80.9693 76.2632 80.9118 76.274 80.8557 76.265L72.2481 74.884C72.1291 74.8649 72.0416 74.7622 72.0416 74.6417V72.6132L58.3454 70.1977L54.8426 71.968C54.7962 71.9914 54.7436 71.9995 54.6924 71.9911L45.9715 70.5665C45.8664 70.5494 45.7844 70.4664 45.7684 70.3611C45.7525 70.2558 45.8062 70.1523 45.9015 70.1048L115.822 35.225ZM115.974 35.6975L46.8007 70.2047L54.6926 71.4939L58.1969 69.7228C58.2443 69.6989 58.298 69.691 58.3503 69.7002L72.3296 72.1657C72.4469 72.1864 72.5324 72.2882 72.5324 72.4073V74.4325L80.8466 75.7665L143.382 39.2109L115.974 35.6975Z" fill="#6E7E92"/>
  <path d="M144.159 39.0749V6.27441L80.8895 31.9276L80.8895 76.0414L144.159 39.0749Z" fill="#E0E4EC"/>
  <path fill-rule="evenodd" clip-rule="evenodd" d="M144.297 6.07117C144.364 6.11677 144.405 6.19306 144.405 6.2747V39.0752C144.405 39.1624 144.359 39.243 144.283 39.287L81.0136 76.2536C80.9377 76.2979 80.8439 76.2983 80.7677 76.2545C80.6914 76.2108 80.6444 76.1296 80.6444 76.0417L80.6444 31.9279C80.6444 31.8279 80.705 31.738 80.7976 31.7004L144.067 6.04728C144.143 6.01661 144.229 6.02556 144.297 6.07117ZM81.1352 32.0932L81.1352 75.6141L143.914 38.9343V6.639L81.1352 32.0932Z" fill="#6E7E92"/>
  <path d="M143.243 38.0905V7.91211L83.2799 33.2235L83.2799 72.3783L143.243 38.0905Z" fill="#E0E4EC"/>
  <path d="M115.931 3.92676L144.16 6.2748L80.8899 31.928L46.0264 27.7709L115.931 3.92676Z" fill="#E0E4EC"/>
  <path fill-rule="evenodd" clip-rule="evenodd" d="M115.852 3.6938C115.884 3.68289 115.918 3.67871 115.952 3.68151L144.18 6.02955C144.293 6.03897 144.385 6.12486 144.402 6.23717C144.419 6.34947 144.357 6.45884 144.252 6.50152L80.9819 32.1547C80.9435 32.1703 80.9018 32.1758 80.8606 32.1709L45.9971 28.0139C45.8834 28.0003 45.7941 27.9099 45.7821 27.7959C45.7701 27.682 45.8385 27.5749 45.9469 27.5379L115.852 3.6938ZM115.962 4.17486L47.1263 27.6542L80.856 31.6761L143.114 6.43336L115.962 4.17486Z" fill="#6E7E92"/>
  <path fill-rule="evenodd" clip-rule="evenodd" d="M142.776 8.1779C142.84 8.22043 142.879 8.29225 142.879 8.36918V37.7856C142.879 37.868 142.834 37.944 142.763 37.9849L83.979 71.4069C83.9075 71.4476 83.8197 71.4473 83.7486 71.4062C83.6774 71.3652 83.6336 71.2895 83.6336 71.2077L83.6335 33.0415C83.6335 32.9492 83.6891 32.8659 83.7746 32.83L142.558 8.15772C142.629 8.1278 142.711 8.13538 142.776 8.1779ZM141.558 9.07595V38.1411L142.417 37.6525V8.71521L141.558 9.07595ZM141.096 38.4036V9.26973L140.094 9.6904V38.9735L141.096 38.4036ZM139.632 39.236V9.88417L138.254 10.4623V40.0192L139.632 39.236ZM137.793 40.2817V10.6561L136.31 11.2785V41.1248L137.793 40.2817ZM135.848 41.3873V11.4723L134.076 12.2162V42.3951L135.848 41.3873ZM133.614 42.6576V12.41L131.882 13.137V43.6424L133.614 42.6576ZM131.42 43.9049V13.3308L129.398 14.1797V45.0548L131.42 43.9049ZM128.936 45.3173V14.3734L126.806 15.2674V46.5283L128.936 45.3173ZM126.344 46.7908V15.4611L124.213 16.3558V48.0027L126.344 46.7908ZM123.751 48.2652V16.5496L120.899 17.7466V49.8868L123.751 48.2652ZM120.437 50.1493V17.9404L117.711 19.0846V51.6992L120.437 50.1493ZM117.25 51.9617V19.2783L114.138 20.5845V53.7311L117.25 51.9617ZM113.676 53.9936V20.7783L110.85 21.9645V55.6004L113.676 53.9936ZM110.388 55.8629V22.1582L107.532 23.3568V57.4866L110.388 55.8629ZM107.071 57.7491V23.5506L104.556 24.6058V59.1786L107.071 57.7491ZM104.095 59.441V24.7996L100.27 26.4051V61.6158L104.095 59.441ZM99.808 61.8783V26.5988L95.6624 28.3388V64.2354L99.808 61.8783ZM95.2007 64.4979V28.5326L90.686 30.4275V67.0648L95.2007 64.4979ZM90.2243 67.3273V30.6213L84.0952 33.1937L84.0952 70.812L90.2243 67.3273Z" fill="#6E7E92"/>
  <path d="M46.1154 70.3379L54.8312 71.7637L58.3076 69.9413L72.263 72.3807V74.6154L80.9789 76.0412V31.9989L46.1154 27.8418L46.1154 70.3379Z" fill="#E0E4EC"/>
  <path fill-rule="evenodd" clip-rule="evenodd" d="M45.9521 27.6586C46.0046 27.612 46.0744 27.5901 46.1441 27.5984L81.0076 31.7555C81.131 31.7702 81.2239 31.8749 81.2239 31.9991V76.0415C81.2239 76.1135 81.1923 76.1819 81.1374 76.2285C81.0826 76.2752 81.01 76.2953 80.9389 76.2837L72.223 74.8579C72.1044 74.8384 72.0173 74.7359 72.0173 74.6157V72.5872L58.3472 70.1977L54.9448 71.9813C54.8977 72.0061 54.8438 72.0148 54.7913 72.0062L46.0754 70.5803C45.9567 70.5609 45.8696 70.4584 45.8696 70.3382V27.8421C45.8696 27.7719 45.8996 27.7051 45.9521 27.6586ZM46.3604 28.1185V70.1297L54.7896 71.5086L58.1933 69.7243C58.2412 69.6991 58.2962 69.6905 58.3495 69.6999L72.3049 72.1392C72.4224 72.1598 72.5081 72.2618 72.5081 72.381V74.4072L80.7331 75.7527V32.217L46.3604 28.1185Z" fill="#6E7E92"/>
  <path d="M46 70.258L54.8334 71.7842V69.4077L46 67.9258L46 70.258Z" fill="#E0E4EC"/>
  <path fill-rule="evenodd" clip-rule="evenodd" d="M45.8412 67.7387C45.8963 67.6921 45.9691 67.6721 46.0403 67.684L54.8737 69.166C54.9919 69.1858 55.0784 69.2881 55.0784 69.408V71.7845C55.0784 71.8569 55.0465 71.9256 54.9911 71.9722C54.9357 72.0188 54.8626 72.0386 54.7913 72.0263L45.9579 70.5001C45.8403 70.4798 45.7543 70.3777 45.7543 70.2583L45.7543 67.9261C45.7543 67.8539 45.786 67.7854 45.8412 67.7387ZM46.2451 68.2161L46.2451 70.0516L54.5877 71.493V69.6156L46.2451 68.2161Z" fill="#6E7E92"/>
  <path d="M64.6504 45.0717C64.6519 45.5626 65.0159 45.9768 65.5025 46.0415L77.5758 47.648C78.1642 47.7263 78.6869 47.2685 78.6869 46.675L78.6869 43.4309C78.6869 42.9358 78.3182 42.5182 77.827 42.4568L65.7434 40.9472C65.1563 40.8738 64.6382 41.3327 64.6401 41.9244L64.6504 45.0717Z" fill="#E0E4EC"/>
  <path fill-rule="evenodd" clip-rule="evenodd" d="M64.3944 41.9255C64.392 41.1859 65.0396 40.6123 65.7735 40.704L77.8571 42.2137C78.4711 42.2904 78.932 42.8124 78.932 43.4312L78.932 46.6753C78.932 47.4172 78.2786 47.9894 77.5431 47.8916L65.4698 46.2851C64.8616 46.2042 64.4066 45.6864 64.4046 45.0728L64.3944 41.9255ZM65.7127 41.191C65.2723 41.136 64.8838 41.4801 64.8852 41.9239L64.8954 45.0712C64.8966 45.4394 65.1696 45.75 65.5345 45.7986L77.6079 47.4051C78.0491 47.4638 78.4412 47.1205 78.4412 46.6753L78.4412 43.4312C78.4412 43.0599 78.1647 42.7467 77.7962 42.7007L65.7127 41.191Z" fill="#6E7E92"/>
  <path d="M53.7501 66.908L72.1968 69.8564L75.1452 67.7774V60.9355V55.6434L72.3858 52.0523L53.7501 49.3174L49.6676 52.0145V57.1554V63.7327L53.7501 66.908Z" fill="#6E7E92"/>
  <path fill-rule="evenodd" clip-rule="evenodd" d="M53.6145 49.1119C53.6648 49.0787 53.7257 49.0651 53.7854 49.0739L72.4211 51.8088C72.4841 51.8181 72.5412 51.8516 72.58 51.9021L75.3395 55.4932C75.3724 55.5361 75.3903 55.5886 75.3903 55.6427V67.7767C75.3903 67.8565 75.3515 67.9313 75.2863 67.9772L72.3378 70.0563C72.2855 70.0932 72.2209 70.1081 72.1577 70.098L53.711 67.1496C53.6702 67.1431 53.6317 67.1264 53.5991 67.101L49.5166 63.9257C49.4568 63.8792 49.4219 63.8078 49.4219 63.732V52.0138C49.4219 51.9314 49.4632 51.8545 49.532 51.8091L53.6145 49.1119ZM53.8068 49.5731L49.9127 52.1458V63.612L53.8507 66.6749L72.1366 69.5976L74.8995 67.6495V55.7261L72.2514 52.28L53.8068 49.5731Z" fill="#6E7E92"/>
  <path d="M53.7495 66.9081L72.1962 69.8565V65.585L53.7495 62.75L53.7495 66.9081Z" fill="#6E7E92"/>
  <path fill-rule="evenodd" clip-rule="evenodd" d="M53.5899 62.5631C53.6442 62.5164 53.7162 62.4959 53.7869 62.5068L72.2336 65.3418C72.3534 65.3602 72.4417 65.4632 72.4417 65.5844V69.8558C72.4417 69.9277 72.4103 69.9959 72.3556 70.0425C72.3009 70.0892 72.2286 70.1095 72.1576 70.0981L53.711 67.1497C53.5919 67.1307 53.5043 67.028 53.5043 66.9074L53.5043 62.7493C53.5043 62.6777 53.5355 62.6097 53.5899 62.5631ZM53.9951 63.0353L53.9951 66.6981L71.9509 69.5681V65.7949L53.9951 63.0353Z" fill="#E0E4EC"/>
  <path d="M53.7495 57.7224L72.2718 60.5197L72.3852 52.0523L53.7495 49.3174V57.7224Z" fill="#6E7E92"/>
  <path fill-rule="evenodd" clip-rule="evenodd" d="M53.5892 49.131C53.6432 49.0844 53.7148 49.0635 53.7853 49.0739L72.421 51.8089C72.5427 51.8267 72.6324 51.9319 72.6307 52.0549L72.5173 60.5223C72.5164 60.5932 72.4848 60.6602 72.4307 60.7061C72.3767 60.752 72.3054 60.7722 72.2353 60.7616L53.713 57.9644C53.593 57.9463 53.5043 57.8431 53.5043 57.7217V49.3167C53.5043 49.2454 53.5353 49.1776 53.5892 49.131ZM53.9951 49.6007V57.5106L72.0303 60.2343L72.1371 52.2632L53.9951 49.6007Z" fill="#E0E4EC"/>
  <path d="M48.294 42.8762C48.294 43.3683 48.6584 43.7843 49.1462 43.8492L61.1197 45.4405C61.7081 45.5187 62.2307 45.0609 62.2307 44.4675V41.3539C62.2307 40.8579 61.8606 40.4398 61.3682 40.3796L49.3947 38.9156C48.8097 38.8441 48.2939 39.3006 48.2939 39.8899L48.294 42.8762Z" fill="#E0E4EC"/>
  <path fill-rule="evenodd" clip-rule="evenodd" d="M49.3646 39.1595C48.9258 39.1059 48.539 39.4482 48.539 39.8903L48.539 42.8765C48.539 43.2456 48.8124 43.5576 49.1782 43.6062L61.1517 45.1976C61.593 45.2562 61.9849 44.9129 61.9849 44.4678V41.3542C61.9849 40.9822 61.7074 40.6686 61.3381 40.6235L49.3646 39.1595ZM48.0482 39.8903C48.0482 39.1535 48.6929 38.5829 49.4241 38.6723L61.3976 40.1363C62.0131 40.2116 62.4757 40.7342 62.4757 41.3542V44.4678C62.4757 45.2096 61.8225 45.7818 61.0871 45.6841L49.1136 44.0928C48.5038 44.0117 48.0482 43.4916 48.0482 42.8765L48.0482 39.8903Z" fill="#6E7E92"/>
  <path fill-rule="evenodd" clip-rule="evenodd" d="M80.8572 34.9189L45.9995 30.8028L46.0571 30.3154L80.9148 34.4315L80.8572 34.9189Z" fill="#6E7E92"/>
  <path fill-rule="evenodd" clip-rule="evenodd" d="M80.8491 74.1091L45.9951 68.1332L46.0781 67.6494L80.9321 73.6254L80.8491 74.1091Z" fill="#6E7E92"/>
</svg>
