<svg viewBox="0 0 192 80" fill="none" xmlns="http://www.w3.org/2000/svg">
  <path d="M48.1859 69.533L56.8077 71.0226V68.703L48.1859 67.2566L48.1859 69.533Z" fill="#E0E4EC"/>
  <path fill-rule="evenodd" clip-rule="evenodd" d="M48.0312 67.0738C48.085 67.0283 48.1561 67.0087 48.2256 67.0204L56.8474 68.4668C56.9627 68.4862 57.0473 68.5861 57.0473 68.703V71.0226C57.0473 71.0933 57.0161 71.1603 56.962 71.2058C56.908 71.2514 56.8366 71.2707 56.767 71.2586L48.1452 69.769C48.0303 69.7492 47.9464 69.6495 47.9464 69.533L47.9464 67.2566C47.9464 67.1862 47.9774 67.1193 48.0312 67.0738ZM48.4255 67.5397L48.4255 69.3313L56.5682 70.7382V68.9057L48.4255 67.5397Z" fill="#6E7E92"/>
  <path d="M48.2986 69.6115L56.8057 71.0032L60.1988 69.2244L73.8199 71.6054V73.7866L82.327 75.1782V32.1908L48.2986 28.1333L48.2986 69.6115Z" fill="#E0E4EC"/>
  <path fill-rule="evenodd" clip-rule="evenodd" d="M48.1396 27.9542C48.1908 27.9088 48.259 27.8874 48.327 27.8955L82.3554 31.953C82.4759 31.9673 82.5666 32.0695 82.5666 32.1908V75.1783C82.5666 75.2486 82.5357 75.3153 82.4822 75.3608C82.4286 75.4063 82.3577 75.426 82.2884 75.4147L73.7813 74.023C73.6655 74.004 73.5804 73.904 73.5804 73.7866V71.8067L60.2378 69.4745L56.9169 71.2154C56.8709 71.2395 56.8183 71.248 56.767 71.2396L48.2599 69.8479C48.1441 69.829 48.0591 69.7289 48.0591 69.6116V28.1333C48.0591 28.0649 48.0884 27.9997 48.1396 27.9542ZM48.5381 28.4031V69.408L56.7654 70.7539L60.0876 69.0123C60.1344 68.9878 60.188 68.9794 60.24 68.9885L73.8612 71.3695C73.9758 71.3895 74.0595 71.4891 74.0595 71.6054V73.5831L82.0875 74.8964V32.4035L48.5381 28.4031Z" fill="#6E7E92"/>
  <path d="M116.442 4.79028V35.5532L48.2114 69.5403V28.0633L116.442 4.79028Z" fill="#E0E4EC"/>
  <path fill-rule="evenodd" clip-rule="evenodd" d="M116.582 4.59551C116.644 4.64048 116.682 4.71302 116.682 4.7903V35.5533C116.682 35.6441 116.63 35.7271 116.549 35.7677L48.3182 69.7548C48.244 69.7917 48.1559 69.7877 48.0854 69.744C48.0148 69.7004 47.9719 69.6233 47.9719 69.5404V28.0633C47.9719 27.9608 48.0371 27.8697 48.1341 27.8366L116.365 4.56361C116.438 4.53866 116.519 4.55054 116.582 4.59551ZM48.451 28.2347V69.1535L116.203 35.405V5.12507L48.451 28.2347Z" fill="#6E7E92"/>
  <path d="M116.442 4.79028L143.994 6.94597L82.1977 32.0957L48.2113 28.0633L116.442 4.79028Z" fill="#E0E4EC"/>
  <path fill-rule="evenodd" clip-rule="evenodd" d="M116.365 4.56361C116.396 4.55308 116.429 4.54897 116.461 4.55151L144.013 6.7072C144.124 6.71586 144.214 6.79948 144.231 6.9092C144.248 7.01892 144.187 7.12599 144.085 7.16784L82.2882 32.3175C82.2507 32.3328 82.2099 32.3383 82.1697 32.3335L48.1834 28.3012C48.0723 28.288 47.9851 28.1997 47.9734 28.0885C47.9616 27.9773 48.0284 27.8727 48.1343 27.8366L116.365 4.56361ZM116.473 5.03295L49.2867 27.9497L82.1648 31.8506L142.966 7.10581L116.473 5.03295Z" fill="#6E7E92"/>
  <path d="M143.963 39.0812L116.442 35.5532L56.7086 68.7423L48.1859 67.3052L48.1966 69.5975L56.7086 70.988L60.1986 69.2242L73.8432 71.6306V73.8115L82.2445 75.1594L143.963 39.0812Z" fill="#E0E4EC"/>
  <path fill-rule="evenodd" clip-rule="evenodd" d="M116.326 35.3439C116.371 35.3191 116.422 35.3092 116.473 35.3157L143.994 38.8436C144.095 38.8567 144.177 38.933 144.198 39.0334C144.218 39.1339 144.173 39.2362 144.084 39.288L82.3654 75.3662C82.3175 75.3942 82.2614 75.4047 82.2066 75.3959L73.8052 74.048C73.6891 74.0293 73.6037 73.9291 73.6037 73.8115V71.8316L60.2355 69.4739L56.8166 71.2018C56.7714 71.2247 56.72 71.2326 56.67 71.2244L48.158 69.8339C48.0425 69.8151 47.9576 69.7156 47.9571 69.5987L47.9464 67.3063C47.9461 67.2356 47.977 67.1684 48.0309 67.1227C48.0847 67.0769 48.1561 67.0573 48.2258 67.069L56.6656 68.4922L116.326 35.3439ZM56.4691 68.9448L48.4268 67.5887L48.4352 69.3938L56.4691 70.7062V68.9448ZM56.9481 70.5986L60.0906 69.0104C60.1368 68.9871 60.1893 68.9793 60.2402 68.9883L73.8848 71.3947C73.9992 71.4149 74.0827 71.5144 74.0827 71.6306V73.6073L82.1978 74.9093L143.235 39.2294L116.49 35.8008L56.9481 68.8833V70.5986Z" fill="#6E7E92"/>
  <path d="M48.2114 67.3054L82.2399 73.0539V32.121L48.2114 28.0635V67.3054Z" fill="#E0E4EC"/>
  <path fill-rule="evenodd" clip-rule="evenodd" d="M48.0524 27.8844C48.1036 27.8389 48.1718 27.8176 48.2398 27.8257L82.2683 31.8832C82.3887 31.8975 82.4794 31.9997 82.4794 32.121V73.0539C82.4794 73.1244 82.4484 73.1913 82.3945 73.2368C82.3407 73.2823 82.2695 73.3018 82.2 73.2901L48.1715 67.5416C48.0563 67.5221 47.9719 67.4223 47.9719 67.3054V28.0635C47.9719 27.995 48.0012 27.9298 48.0524 27.8844ZM48.451 28.3333V67.1029L82.0004 72.7705V32.3336L48.451 28.3333Z" fill="#6E7E92"/>
  <path d="M143.994 39.0969V7.08203L82.24 32.1207L82.24 75.178L143.994 39.0969Z" fill="#E0E4EC"/>
  <path fill-rule="evenodd" clip-rule="evenodd" d="M144.128 6.8834C144.194 6.92791 144.234 7.00237 144.234 7.08205V39.0969C144.234 39.182 144.189 39.2607 144.115 39.3037L82.3608 75.3848C82.2868 75.4281 82.1952 75.4284 82.1208 75.3857C82.0464 75.343 82.0005 75.2638 82.0005 75.178L82.0005 32.1208C82.0005 32.0232 82.0596 31.9354 82.15 31.8988L143.904 6.86008C143.978 6.83014 144.062 6.83888 144.128 6.8834ZM82.4795 32.2821L82.4795 74.7606L143.755 38.9594V7.43763L82.4795 32.2821Z" fill="#6E7E92"/>
  <path d="M143.1 38.1355V8.67993L84.5728 33.385L84.5728 71.6021L143.1 38.1355Z" fill="#E0E4EC"/>
  <path fill-rule="evenodd" clip-rule="evenodd" d="M143.233 8.48023C143.299 8.52461 143.34 8.59955 143.34 8.67983V38.1354C143.34 38.2213 143.294 38.3007 143.219 38.3433L84.6917 71.8099C84.6175 71.8523 84.5265 71.852 84.4526 71.8091C84.3787 71.7663 84.3333 71.6873 84.3333 71.6019L84.3333 33.3849C84.3333 33.2886 84.3909 33.2017 84.4796 33.1643L143.007 8.45916C143.081 8.42794 143.166 8.43585 143.233 8.48023ZM84.8123 33.5438L84.8123 71.1891L142.861 37.9965V9.04092L84.8123 33.5438Z" fill="#6E7E92"/>
  <path fill-rule="evenodd" clip-rule="evenodd" d="M143.001 8.80058C143.065 8.84268 143.103 8.91379 143.103 8.98997V38.1168C143.103 38.1984 143.059 38.2737 142.988 38.3141L84.7831 71.4072C84.7123 71.4474 84.6254 71.4472 84.5549 71.4065C84.4844 71.3658 84.441 71.2909 84.441 71.2099L84.441 33.4194C84.441 33.328 84.4961 33.2455 84.5807 33.21L142.786 8.78059C142.856 8.75096 142.937 8.75847 143.001 8.80058ZM141.795 9.68979V38.4689L142.646 37.985V9.33259L141.795 9.68979ZM141.338 38.7288V9.88165L140.345 10.2982V39.293L141.338 38.7288ZM139.888 39.5529V10.49L138.524 11.0625V40.3284L139.888 39.5529ZM138.067 40.5883V11.2544L136.599 11.8707V41.4232L138.067 40.5883ZM136.142 41.6831V12.0625L134.387 12.7992V42.6809L136.142 41.6831ZM133.929 42.9408V12.991L132.214 13.7109V43.916L133.929 42.9408ZM131.757 44.1759V13.9028L129.755 14.7433V45.3145L131.757 44.1759ZM129.297 45.5744V14.9351L127.189 15.8203V46.7734L129.297 45.5744ZM126.731 47.0333V16.0121L124.621 16.898V48.2334L126.731 47.0333ZM124.164 48.4933V17.0898L121.34 18.2751V50.0989L124.164 48.4933ZM120.883 50.3588V18.467L118.183 19.5999V51.8935L120.883 50.3588ZM117.726 52.1534V19.7917L114.645 21.0851V53.9053L117.726 52.1534ZM114.188 54.1653V21.2769L111.389 22.4514V55.7563L114.188 54.1653ZM110.932 56.0162V22.6433L108.105 23.8301V57.6239L110.932 56.0162ZM107.647 57.8838V24.022L105.158 25.0668V59.2992L107.647 57.8838ZM104.701 59.5591V25.2587L100.913 26.8483V61.7125L104.701 59.5591ZM100.456 61.9724V27.0402L96.3515 28.763V64.3062L100.456 61.9724ZM95.8944 64.5661V28.9549L91.424 30.8311V67.1078L95.8944 64.5661ZM90.9669 67.3677V31.023L84.8982 33.5701L84.8982 70.8181L90.9669 67.3677Z" fill="#6E7E92"/>
  <path fill-rule="evenodd" clip-rule="evenodd" d="M82.2081 35.0406L48.1853 31.0231L48.2415 30.5474L82.2643 34.5648L82.2081 35.0406Z" fill="#6E7E92"/>
  <path fill-rule="evenodd" clip-rule="evenodd" d="M82.2003 73.2913L48.1812 67.4585L48.2621 66.9863L82.2813 72.8192L82.2003 73.2913Z" fill="#6E7E92"/>
  <path d="M66.4167 70.3567L80.1143 72.6958V36.708L66.4166 35.0303L66.4167 70.3567Z" fill="#E0E4EC"/>
  <path fill-rule="evenodd" clip-rule="evenodd" d="M66.2578 34.8509C66.3092 34.8055 66.3776 34.7842 66.4456 34.7925L80.1433 36.4703C80.2634 36.485 80.3537 36.587 80.3537 36.708V72.6958C80.3537 72.7664 80.3226 72.8333 80.2686 72.8789C80.2147 72.9244 80.1434 72.9438 80.0739 72.9319L66.3762 70.5928C66.2612 70.5731 66.177 70.4734 66.177 70.3567L66.177 35.0303C66.177 34.9617 66.2064 34.8964 66.2578 34.8509ZM66.656 35.3009L66.6561 70.1546L79.8746 72.4119V36.92L66.656 35.3009Z" fill="#6E7E92"/>
  <path d="M50.4495 67.6122L64.0524 69.9198V34.7141L50.4495 33.0509L50.4495 67.6122Z" fill="#E0E4EC"/>
  <path fill-rule="evenodd" clip-rule="evenodd" d="M50.2907 32.8715C50.3421 32.826 50.4105 32.8047 50.4786 32.8131L64.0815 34.4763C64.2016 34.491 64.2919 34.593 64.2919 34.714V69.9197C64.2919 69.9902 64.2608 70.0572 64.2069 70.1027C64.1531 70.1482 64.0819 70.1676 64.0123 70.1558L50.4095 67.8482C50.2943 67.8287 50.21 67.7289 50.21 67.6121L50.21 33.0508C50.21 32.9822 50.2394 32.9169 50.2907 32.8715ZM50.689 33.3214L50.689 67.4098L63.8129 69.6361V34.926L50.689 33.3214Z" fill="#6E7E92"/>
  <path d="M79.6458 39.3638L82.291 39.991V37.5938L79.6458 37.5278V39.3638Z" fill="#E0E4EC"/>
  <path fill-rule="evenodd" clip-rule="evenodd" d="M79.4785 37.3564C79.5247 37.3113 79.5872 37.2868 79.6517 37.2884L82.297 37.3544C82.4269 37.3576 82.5306 37.4639 82.5306 37.5938V39.991C82.5306 40.0643 82.497 40.1335 82.4396 40.1789C82.3821 40.2244 82.3071 40.241 82.2358 40.2241L79.5905 39.5969C79.4825 39.5713 79.4062 39.4748 79.4062 39.3638V37.5279C79.4062 37.4633 79.4323 37.4015 79.4785 37.3564ZM79.8853 37.7734V39.1745L82.0515 39.6881V37.8274L79.8853 37.7734Z" fill="#6E7E92"/>
  <path d="M50.9302 35.6374L48.2849 35.5918V32.7965L50.9302 33.4237V35.6374Z" fill="#E0E4EC"/>
  <path fill-rule="evenodd" clip-rule="evenodd" d="M48.1365 32.6085C48.079 32.6539 48.0455 32.7232 48.0455 32.7964V35.5917C48.0455 35.7223 48.1502 35.8289 48.2809 35.8311L50.9261 35.8768C50.9904 35.8779 51.0524 35.8532 51.0982 35.8082C51.144 35.7631 51.1698 35.7016 51.1698 35.6373V33.4236C51.1698 33.3126 51.0935 33.2162 50.9855 33.1906L48.3403 32.5633C48.269 32.5465 48.1939 32.5631 48.1365 32.6085ZM50.6908 33.613V35.3936L48.5245 35.3562V33.0994L50.6908 33.613Z" fill="#6E7E92"/>
  <path d="M50.9302 45.5619L48.2849 45.5162V42.7209L50.9302 43.3482V45.5619Z" fill="#E0E4EC"/>
  <path fill-rule="evenodd" clip-rule="evenodd" d="M48.1365 42.5331C48.079 42.5785 48.0455 42.6477 48.0455 42.721V45.5162C48.0455 45.6469 48.1502 45.7534 48.2809 45.7557L50.9261 45.8014C50.9904 45.8025 51.0524 45.7777 51.0982 45.7327C51.144 45.6877 51.1698 45.6261 51.1698 45.5619V43.3482C51.1698 43.2372 51.0935 43.1407 50.9855 43.1151L48.3403 42.4879C48.269 42.471 48.1939 42.4877 48.1365 42.5331ZM50.6908 43.5376V45.3182L48.5245 45.2808V43.0239L50.6908 43.5376Z" fill="#6E7E92"/>
  <path d="M50.9302 55.2285L48.2849 55.1828V52.3876L50.9302 53.0148V55.2285Z" fill="#E0E4EC"/>
  <path fill-rule="evenodd" clip-rule="evenodd" d="M48.1365 52.1996C48.079 52.245 48.0455 52.3142 48.0455 52.3875V55.1827C48.0455 55.3134 48.1502 55.4199 48.2809 55.4222L50.9261 55.4679C50.9904 55.469 51.0524 55.4442 51.0982 55.3992C51.144 55.3542 51.1698 55.2926 51.1698 55.2284V53.0147C51.1698 52.9037 51.0935 52.8072 50.9855 52.7816L48.3403 52.1544C48.269 52.1375 48.1939 52.1542 48.1365 52.1996ZM50.6908 53.2041V54.9847L48.5245 54.9473V52.6904L50.6908 53.2041Z" fill="#6E7E92"/>
  <path d="M50.9302 65.1166L48.2849 65.0709V62.2756L50.9302 62.9029V65.1166Z" fill="#E0E4EC"/>
  <path fill-rule="evenodd" clip-rule="evenodd" d="M48.1365 62.0878C48.079 62.1332 48.0455 62.2024 48.0455 62.2757V65.0709C48.0455 65.2016 48.1502 65.3081 48.2809 65.3104L50.9261 65.3561C50.9904 65.3572 51.0524 65.3324 51.0982 65.2874C51.144 65.2424 51.1698 65.1808 51.1698 65.1166V62.9029C51.1698 62.7919 51.0935 62.6954 50.9855 62.6698L48.3403 62.0426C48.269 62.0257 48.1939 62.0423 48.1365 62.0878ZM50.6908 63.0922V64.8729L48.5245 64.8355V62.5786L50.6908 63.0922Z" fill="#6E7E92"/>
  <path d="M79.6458 49.5746L82.291 50.2019V47.8046L79.6458 47.7386V49.5746Z" fill="#E0E4EC"/>
  <path fill-rule="evenodd" clip-rule="evenodd" d="M79.4785 47.5671C79.5247 47.522 79.5872 47.4975 79.6517 47.4991L82.297 47.5651C82.4269 47.5683 82.5306 47.6745 82.5306 47.8045V50.2017C82.5306 50.275 82.497 50.3442 82.4396 50.3896C82.3821 50.4351 82.3071 50.4517 82.2358 50.4348L79.5905 49.8076C79.4825 49.782 79.4062 49.6855 79.4062 49.5745V47.7385C79.4062 47.674 79.4323 47.6122 79.4785 47.5671ZM79.8853 47.9841V49.3852L82.0515 49.8988V48.0381L79.8853 47.9841Z" fill="#6E7E92"/>
  <path d="M79.6458 59.7859L82.291 60.4131V58.0159L79.6458 57.95V59.7859Z" fill="#E0E4EC"/>
  <path fill-rule="evenodd" clip-rule="evenodd" d="M79.4785 57.7785C79.5247 57.7334 79.5872 57.7089 79.6517 57.7105L82.297 57.7765C82.4269 57.7797 82.5306 57.886 82.5306 58.0159V60.4132C82.5306 60.4864 82.497 60.5556 82.4396 60.601C82.3821 60.6465 82.3071 60.6631 82.2358 60.6462L79.5905 60.019C79.4825 59.9934 79.4062 59.8969 79.4062 59.7859V57.95C79.4062 57.8854 79.4323 57.8236 79.4785 57.7785ZM79.8853 58.1955V59.5966L82.0515 60.1102V58.2496L79.8853 58.1955Z" fill="#6E7E92"/>
  <path d="M79.6458 69.9974L82.291 70.5596V68.2273L79.6458 68.1614V69.9974Z" fill="#E0E4EC"/>
  <path fill-rule="evenodd" clip-rule="evenodd" d="M79.4785 67.9899C79.5247 67.9449 79.5872 67.9203 79.6517 67.9219L82.297 67.9879C82.4269 67.9912 82.5306 68.0974 82.5306 68.2274V70.5596C82.5306 70.6319 82.4979 70.7003 82.4418 70.7457C82.3856 70.7912 82.3119 70.8089 82.2412 70.7939L79.596 70.2317C79.4854 70.2082 79.4062 70.1105 79.4062 69.9974V68.1614C79.4062 68.0968 79.4323 68.035 79.4785 67.9899ZM79.8853 68.407V69.8034L82.0515 70.2638V68.461L79.8853 68.407Z" fill="#6E7E92"/>
  <path fill-rule="evenodd" clip-rule="evenodd" d="M65.0116 70.2072L65.0116 32.9116L65.4906 32.9116L65.4906 70.2072L65.0116 70.2072Z" fill="#6E7E92"/>
  <path fill-rule="evenodd" clip-rule="evenodd" d="M58.7249 30.6587C58.9895 30.6587 59.2039 30.8732 59.2039 31.1377L59.2039 67.5449C59.2039 67.8095 58.9895 68.024 58.7249 68.024C58.4603 68.024 58.2458 67.8095 58.2458 67.5449L58.2458 31.1377C58.2458 30.8732 58.4603 30.6587 58.7249 30.6587Z" fill="#6E7E92"/>
  <path fill-rule="evenodd" clip-rule="evenodd" d="M71.1799 32.0957C71.4444 32.0957 71.6589 32.3102 71.6589 32.5747L71.6589 69.461C71.6589 69.7255 71.4444 69.94 71.1798 69.94C70.9153 69.94 70.7008 69.7255 70.7008 69.461L70.7008 32.5747C70.7008 32.3102 70.9153 32.0957 71.1799 32.0957Z" fill="#6E7E92"/>
  <path fill-rule="evenodd" clip-rule="evenodd" d="M71.1799 32.0957C71.4444 32.0957 71.6589 32.3102 71.6589 32.5747L71.6589 69.461C71.6589 69.7255 71.4444 69.94 71.1798 69.94C70.9153 69.94 70.7008 69.7255 70.7008 69.461L70.7008 32.5747C70.7008 32.3102 70.9153 32.0957 71.1799 32.0957Z" fill="#6E7E92"/>
</svg>
