<svg viewBox="0 0 192 80" fill="none" xmlns="http://www.w3.org/2000/svg">
  <path d="M147.947 35.3301L122.079 32.4719L44.0618 70.9383L52.4087 72.3018L55.831 70.5722L69.2109 72.932V75.0705L77.4493 76.3923L147.947 35.3301Z" fill="#E0E4EC"/>
  <path fill-rule="evenodd" clip-rule="evenodd" d="M121.964 32.2389C122.009 32.217 122.058 32.2083 122.108 32.2137L147.976 35.0719C148.087 35.0842 148.178 35.1666 148.202 35.2763C148.225 35.3859 148.175 35.4981 148.078 35.5545L77.5801 76.6167C77.5283 76.6469 77.4675 76.6582 77.4083 76.6487L69.1698 75.3269C69.0439 75.3067 68.9513 75.198 68.9513 75.0705V73.1499L55.8711 70.843L52.5259 72.5336C52.4768 72.5584 52.4212 72.567 52.3669 72.5581L44.02 71.1946C43.9086 71.1764 43.8216 71.0883 43.805 70.9766C43.7883 70.8649 43.8457 70.7553 43.947 70.7053L121.964 32.2389ZM122.126 32.7384L44.904 70.8127L52.3671 72.0318L55.714 70.3404C55.7641 70.3151 55.821 70.3066 55.8762 70.3164L69.2561 72.6761C69.3802 72.698 69.4707 72.8059 69.4707 72.9319V74.8491L77.3989 76.1211L147.137 35.5018L122.126 32.7384Z" fill="#6E7E92"/>
  <path d="M44.1621 70.9539L52.5042 72.3186L55.8315 70.5744L69.1884 72.9091V75.048L77.5305 76.4127V34.2591L44.1621 30.2803L44.1621 70.9539Z" fill="#E0E4EC"/>
  <path fill-rule="evenodd" clip-rule="evenodd" d="M43.9898 30.086C44.0453 30.0367 44.1192 30.0135 44.193 30.0223L77.5614 34.0011C77.692 34.0167 77.7903 34.1275 77.7903 34.259V76.4127C77.7903 76.4889 77.7569 76.5612 77.6988 76.6106C77.6407 76.6599 77.5639 76.6813 77.4887 76.669L69.1466 75.3043C69.021 75.2837 68.9288 75.1752 68.9288 75.048V73.1274L55.8739 70.8454L52.6249 72.5486C52.575 72.5748 52.518 72.584 52.4624 72.5749L44.1203 71.2102C43.9947 71.1897 43.9025 71.0812 43.9025 70.9539V30.2802C43.9025 30.206 43.9342 30.1353 43.9898 30.086ZM44.4219 30.5728V70.7332L52.4606 72.0482L55.7109 70.3443C55.7617 70.3177 55.8198 70.3086 55.8763 70.3185L69.2332 72.6532C69.3575 72.675 69.4482 72.7829 69.4482 72.9091V74.8273L77.2709 76.107V34.4896L44.4219 30.5728Z" fill="#6E7E92"/>
  <path d="M122.08 3.63672V32.4718L44.0773 70.8821V30.2096L122.08 3.63672Z" fill="#E0E4EC"/>
  <path fill-rule="evenodd" clip-rule="evenodd" d="M122.231 3.42548C122.299 3.47425 122.339 3.5529 122.339 3.6367V32.4718C122.339 32.5707 122.283 32.6611 122.194 32.7048L44.1917 71.1151C44.1112 71.1547 44.016 71.15 43.9398 71.1026C43.8636 71.0552 43.8173 70.9718 43.8173 70.8821V30.2096C43.8173 30.0984 43.888 29.9995 43.9932 29.9637L121.996 3.39083C122.075 3.36381 122.163 3.37671 122.231 3.42548ZM44.3367 30.3955V70.4646L121.82 32.3101V3.99958L44.3367 30.3955Z" fill="#6E7E92"/>
  <path d="M147.948 35.3287V5.62537L77.4451 34.1871L77.4451 76.4092L147.948 35.3287Z" fill="#E0E4EC"/>
  <path fill-rule="evenodd" clip-rule="evenodd" d="M148.093 5.40982C148.164 5.45809 148.207 5.53883 148.207 5.62522V35.3286C148.207 35.421 148.158 35.5065 148.078 35.553L77.5758 76.6334C77.4955 76.6802 77.3962 76.6805 77.3156 76.6342C77.235 76.5879 77.1853 76.502 77.1853 76.409L77.1853 34.187C77.1853 34.0812 77.2495 33.986 77.3475 33.9463L147.85 5.38448C147.93 5.35205 148.021 5.36154 148.093 5.40982ZM77.7048 34.362L77.7048 75.9571L147.688 35.1793V6.01069L77.7048 34.362Z" fill="#6E7E92"/>
  <path fill-rule="evenodd" clip-rule="evenodd" d="M146.971 7.46445C147.043 7.51243 147.086 7.59309 147.086 7.67945V34.4375C147.086 34.5303 147.036 34.6159 146.955 34.6619L79.788 72.8918C79.7075 72.9376 79.6086 72.9373 79.5284 72.891C79.4482 72.8448 79.3988 72.7596 79.3988 72.6674L79.3988 35.3635C79.3988 35.259 79.4621 35.1647 79.5593 35.1247L146.727 7.44061C146.807 7.40754 146.898 7.41648 146.971 7.46445ZM144.693 8.83854V35.3538L146.566 34.2876V8.0665L144.693 8.83854ZM144.173 35.6497V9.05288L142.3 9.82492V36.7159L144.173 35.6497ZM141.78 37.0119V10.0393L138.331 11.4606V38.9746L141.78 37.0119ZM137.811 39.2706V11.6749L133.647 13.3914V41.641L137.811 39.2706ZM133.127 41.937V13.6058L127.932 15.7469V44.8937L133.127 41.937ZM127.412 45.1897V15.9612L122.191 18.1133V48.1616L127.412 45.1897ZM121.67 48.4576V18.3277L115.904 20.7045V51.7398L121.67 48.4576ZM115.384 52.0358V20.9189L108.417 23.7903V56.0012L115.384 52.0358ZM107.897 56.2972V24.0047L99.9623 27.275V60.8133L107.897 56.2972ZM99.4422 61.1093V27.4894L90.07 31.3523V66.4437L99.4422 61.1093ZM89.5499 66.7397V31.5667L79.9189 35.5363L79.9189 72.2215L89.5499 66.7397Z" fill="#6E7E92"/>
  <path d="M44.0516 68.6167L77.4453 74.3331V34.1738L44.0516 30.1941V68.6167Z" fill="#E0E4EC"/>
  <path fill-rule="evenodd" clip-rule="evenodd" d="M43.8793 29.9998C43.9348 29.9505 44.0087 29.9274 44.0825 29.9362L77.4762 33.9159C77.6068 33.9315 77.7052 34.0423 77.7052 34.1738V74.3331C77.7052 74.4096 77.6714 74.4823 77.6129 74.5316C77.5544 74.581 77.4771 74.602 77.4016 74.5891L44.0079 68.8727C43.8832 68.8514 43.792 68.7432 43.792 68.6167V30.1941C43.792 30.1198 43.8238 30.0491 43.8793 29.9998ZM44.3115 30.4866V68.3977L77.1857 74.0251V34.4044L44.3115 30.4866Z" fill="#6E7E92"/>
  <path d="M46.2713 68.9907L59.6103 71.2536V36.7308L46.2712 35.0999L46.2713 68.9907Z" fill="#E0E4EC"/>
  <path fill-rule="evenodd" clip-rule="evenodd" d="M46.0991 34.9053C46.1548 34.856 46.2289 34.833 46.3027 34.842L59.6418 36.473C59.7721 36.4889 59.87 36.5995 59.87 36.7308V71.2536C59.87 71.33 59.8363 71.4026 59.7779 71.452C59.7194 71.5013 59.6422 71.5224 59.5668 71.5096L46.2278 69.2468C46.1029 69.2256 46.0115 69.1174 46.0115 68.9907L46.0115 35.0998C46.0115 35.0255 46.0434 34.9546 46.0991 34.9053ZM46.531 35.3933L46.531 68.7713L59.3505 70.946V36.9607L46.531 35.3933Z" fill="#6E7E92"/>
  <path fill-rule="evenodd" clip-rule="evenodd" d="M77.4108 37.0756L44.048 33.136L44.1089 32.6201L77.4717 36.5597L77.4108 37.0756Z" fill="#6E7E92"/>
  <path fill-rule="evenodd" clip-rule="evenodd" d="M77.4028 74.5828L44.0435 68.8631L44.1312 68.3511L77.4906 74.0708L77.4028 74.5828Z" fill="#6E7E92"/>
  <path d="M122.08 3.63672L147.948 5.62659L77.4457 34.1883L44.0773 30.2096L122.08 3.63672Z" fill="#E0E4EC"/>
  <path fill-rule="evenodd" clip-rule="evenodd" d="M121.996 3.39083C122.029 3.37948 122.064 3.37502 122.1 3.37772L147.968 5.36759C148.088 5.37684 148.186 5.46758 148.205 5.58671C148.223 5.70584 148.157 5.82204 148.045 5.8673L77.5429 34.4291C77.5023 34.4455 77.4582 34.4514 77.4147 34.4462L44.0463 30.4674C43.9258 30.4531 43.8314 30.3573 43.8187 30.2367C43.806 30.1161 43.8785 30.0028 43.9933 29.9637L121.996 3.39083ZM122.113 3.89976L45.2424 30.0869L77.4098 33.9225L146.826 5.80078L122.113 3.89976Z" fill="#6E7E92"/>
  <path fill-rule="evenodd" clip-rule="evenodd" d="M60.5254 71.5349L60.5254 34.9628L61.0449 34.9628L61.0449 71.5349L60.5254 71.5349Z" fill="#6E7E92"/>
  <path d="M61.9291 71.6839L75.361 73.9776V38.6879L61.9291 37.0427L61.9291 71.6839Z" fill="#E0E4EC"/>
  <path fill-rule="evenodd" clip-rule="evenodd" d="M61.757 36.8482C61.8127 36.7989 61.8869 36.7758 61.9608 36.7849L75.3927 38.4301C75.523 38.446 75.6209 38.5567 75.6209 38.6879V73.9776C75.6209 74.0541 75.5871 74.1268 75.5286 74.1761C75.4701 74.2255 75.3928 74.2465 75.3174 74.2336L61.8855 71.9399C61.7607 71.9186 61.6695 71.8104 61.6695 71.6839L61.6694 37.0427C61.6694 36.9683 61.7013 36.8975 61.757 36.8482ZM62.1889 37.3362L62.1889 71.4647L75.1014 73.6697V38.9178L62.1889 37.3362Z" fill="#6E7E92"/>
  <path fill-rule="evenodd" clip-rule="evenodd" d="M56.7381 32.7743C57.025 32.7743 57.2576 33.0069 57.2576 33.2938L57.2576 70.7034C57.2576 70.9903 57.025 71.2228 56.7381 71.2228C56.4512 71.2228 56.2186 70.9903 56.2186 70.7034L56.2186 33.2938C56.2186 33.0069 56.4512 32.7743 56.7381 32.7743Z" fill="#6E7E92"/>
  <path fill-rule="evenodd" clip-rule="evenodd" d="M51.3112 32.0488C51.5981 32.0488 51.8307 32.2814 51.8307 32.5683L51.8307 69.9056C51.8307 70.1925 51.5981 70.425 51.3112 70.425C51.0243 70.425 50.7917 70.1925 50.7917 69.9056L50.7917 32.5683C50.7917 32.2814 51.0243 32.0488 51.3112 32.0488Z" fill="#6E7E92"/>
  <path fill-rule="evenodd" clip-rule="evenodd" d="M64.6978 33.5325C64.9847 33.5325 65.2173 33.7651 65.2173 34.052L65.2173 72.0017C65.2173 72.2886 64.9847 72.5211 64.6978 72.5211C64.4109 72.5211 64.1783 72.2886 64.1783 72.0017L64.1783 34.052C64.1783 33.7651 64.4109 33.5325 64.6978 33.5325Z" fill="#6E7E92"/>
  <path fill-rule="evenodd" clip-rule="evenodd" d="M69.763 34.1845C70.0499 34.1845 70.2825 34.417 70.2825 34.7039L70.2825 73.2509C70.2825 73.5378 70.0499 73.7704 69.763 73.7704C69.4761 73.7704 69.2435 73.5378 69.2435 73.2509L69.2435 34.7039C69.2435 34.417 69.4761 34.1845 69.763 34.1845Z" fill="#6E7E92"/>
  <path d="M74.9009 41.2883L77.4949 41.9033V39.5526L74.9009 39.4879V41.2883Z" fill="#E0E4EC"/>
  <path fill-rule="evenodd" clip-rule="evenodd" d="M74.7196 39.3021C74.7697 39.2532 74.8375 39.2266 74.9074 39.2284L77.5014 39.293C77.6423 39.2965 77.7547 39.4118 77.7547 39.5527V41.9034C77.7547 41.9829 77.7183 42.0579 77.656 42.1072C77.5937 42.1564 77.5123 42.1745 77.435 42.1562L74.841 41.5411C74.7239 41.5133 74.6412 41.4087 74.6412 41.2884V39.488C74.6412 39.418 74.6695 39.351 74.7196 39.3021ZM75.1607 39.7543V41.083L77.2352 41.5749V39.806L75.1607 39.7543Z" fill="#6E7E92"/>
  <path d="M46.7416 37.6319L44.1476 37.5871V34.8461L46.7416 35.4611V37.6319Z" fill="#E0E4EC"/>
  <path fill-rule="evenodd" clip-rule="evenodd" d="M43.9868 34.6424C43.9245 34.6917 43.8881 34.7667 43.8881 34.8462V37.5872C43.8881 37.7289 44.0017 37.8445 44.1434 37.8469L46.7374 37.8917C46.807 37.8929 46.8742 37.8661 46.9239 37.8172C46.9736 37.7684 47.0016 37.7017 47.0016 37.632V35.4612C47.0016 35.3409 46.9189 35.2363 46.8018 35.2085L44.2078 34.5934C44.1305 34.5751 44.0491 34.5932 43.9868 34.6424ZM46.4821 35.6666V37.3677L44.4076 37.3319V35.1747L46.4821 35.6666Z" fill="#6E7E92"/>
  <path d="M46.7416 47.3671L44.1476 47.3223V44.5813L46.7416 45.1964V47.3671Z" fill="#E0E4EC"/>
  <path fill-rule="evenodd" clip-rule="evenodd" d="M43.9868 44.3775C43.9245 44.4268 43.8881 44.5018 43.8881 44.5813V47.3223C43.8881 47.464 44.0017 47.5796 44.1434 47.582L46.7374 47.6268C46.807 47.628 46.8742 47.6012 46.9239 47.5523C46.9736 47.5035 47.0016 47.4368 47.0016 47.3671V45.1963C47.0016 45.076 46.9189 44.9714 46.8018 44.9436L44.2078 44.3285C44.1305 44.3102 44.0491 44.3283 43.9868 44.3775ZM46.4821 45.4017V47.1028L44.4076 47.067V44.9098L46.4821 45.4017Z" fill="#6E7E92"/>
  <path d="M46.7416 56.8436L44.1476 56.7988V54.0577L46.7416 54.6728V56.8436Z" fill="#E0E4EC"/>
  <path fill-rule="evenodd" clip-rule="evenodd" d="M43.9868 53.8541C43.9245 53.9033 43.8881 53.9784 43.8881 54.0578V56.7989C43.8881 56.9406 44.0017 57.0561 44.1434 57.0586L46.7374 57.1034C46.807 57.1046 46.8742 57.0777 46.9239 57.0289C46.9736 56.9801 47.0016 56.9133 47.0016 56.8437V54.6729C47.0016 54.5525 46.9189 54.4479 46.8018 54.4202L44.2078 53.8051C44.1305 53.7868 44.0491 53.8048 43.9868 53.8541ZM46.4821 54.8782V56.5794L44.4076 56.5436V54.3864L46.4821 54.8782Z" fill="#6E7E92"/>
  <path d="M46.7416 66.5431L44.1476 66.4983V63.7573L46.7416 64.3724V66.5431Z" fill="#E0E4EC"/>
  <path fill-rule="evenodd" clip-rule="evenodd" d="M43.9868 63.5538C43.9245 63.6031 43.8881 63.6781 43.8881 63.7575V66.4986C43.8881 66.6403 44.0017 66.7558 44.1434 66.7583L46.7374 66.8031C46.807 66.8043 46.8742 66.7774 46.9239 66.7286C46.9736 66.6798 47.0016 66.613 47.0016 66.5434V64.3726C47.0016 64.2522 46.9189 64.1476 46.8018 64.1199L44.2078 63.5048C44.1305 63.4865 44.0491 63.5045 43.9868 63.5538ZM46.4821 64.578V66.2791L44.4076 66.2433V64.0861L46.4821 64.578Z" fill="#6E7E92"/>
  <path d="M74.9009 51.3026L77.4949 51.9176V49.5669L74.9009 49.5022V51.3026Z" fill="#E0E4EC"/>
  <path fill-rule="evenodd" clip-rule="evenodd" d="M74.7196 49.3162C74.7697 49.2673 74.8375 49.2408 74.9074 49.2425L77.5014 49.3072C77.6423 49.3107 77.7547 49.4259 77.7547 49.5669V51.9176C77.7547 51.997 77.7183 52.0721 77.656 52.1213C77.5937 52.1706 77.5123 52.1886 77.435 52.1703L74.841 51.5553C74.7239 51.5275 74.6412 51.4229 74.6412 51.3025V49.5022C74.6412 49.4322 74.6695 49.3651 74.7196 49.3162ZM75.1607 49.7685V51.0972L77.2352 51.5891V49.8202L75.1607 49.7685Z" fill="#6E7E92"/>
  <path d="M74.9009 61.3116L77.4949 61.9266V59.5759L74.9009 59.5112V61.3116Z" fill="#E0E4EC"/>
  <path fill-rule="evenodd" clip-rule="evenodd" d="M74.7196 59.3253C74.7697 59.2764 74.8375 59.2498 74.9074 59.2515L77.5014 59.3162C77.6423 59.3197 77.7547 59.435 77.7547 59.5759V61.9266C77.7547 62.0061 77.7183 62.0811 77.656 62.1304C77.5937 62.1796 77.5123 62.1977 77.435 62.1794L74.841 61.5643C74.7239 61.5365 74.6412 61.4319 74.6412 61.3116V59.5112C74.6412 59.4412 74.6695 59.3742 74.7196 59.3253ZM75.1607 59.7775V61.1062L77.2352 61.5981V59.8292L75.1607 59.7775Z" fill="#6E7E92"/>
  <path d="M74.9009 71.3258L77.4949 71.8771V69.5901L74.9009 69.5254V71.3258Z" fill="#E0E4EC"/>
  <path fill-rule="evenodd" clip-rule="evenodd" d="M74.7196 69.3397C74.7697 69.2908 74.8375 69.2642 74.9074 69.2659L77.5014 69.3306C77.6423 69.3341 77.7547 69.4494 77.7547 69.5903V71.8773C77.7547 71.9556 77.7193 72.0298 77.6584 72.0791C77.5975 72.1284 77.5176 72.1476 77.4409 72.1313L74.847 71.58C74.727 71.5545 74.6412 71.4486 74.6412 71.326V69.5256C74.6412 69.4556 74.6695 69.3886 74.7196 69.3397ZM75.1607 69.7919V71.1156L77.2352 71.5565V69.8436L75.1607 69.7919Z" fill="#6E7E92"/>
  <path d="M44.0517 70.875L52.5062 72.3358V70.0612L44.0516 68.6428L44.0517 70.875Z" fill="#E0E4EC"/>
  <path fill-rule="evenodd" clip-rule="evenodd" d="M43.8839 68.4445C43.9423 68.3952 44.0194 68.374 44.0947 68.3866L52.5493 69.805C52.6744 69.826 52.766 69.9343 52.766 70.0612V72.3357C52.766 72.4124 52.7322 72.4851 52.6736 72.5344C52.615 72.5838 52.5376 72.6047 52.4621 72.5917L44.0075 71.1309C43.883 71.1094 43.792 71.0014 43.792 70.875L43.792 68.6428C43.792 68.5664 43.8256 68.4939 43.8839 68.4445ZM44.3115 68.9497L44.3115 70.6563L52.2466 72.0273V70.281L44.3115 68.9497Z" fill="#6E7E92"/>
</svg>
