<svg width="420" height="176" viewBox="0 0 420 176" fill="none" xmlns="http://www.w3.org/2000/svg">
<path d="M310 89.9667L257.002 82.4385L110.022 154.668L127.39 157.505L134.511 153.906L162.352 158.816V163.266L179.494 166.017L310 89.9667Z" fill="#E0E4EC" stroke="#6E7E92" stroke-linejoin="round"/>
<path d="M310 89.9667V18.3838L179.612 67.2417L179.485 166.055L310 89.9667Z" fill="#E0E4EC" stroke="#6E7E92" stroke-linejoin="round"/>
<path d="M307.215 88.3103V23.6118L303.413 25.1735L299.611 26.7352L295.094 28.5907L289.222 31.0028L282.748 33.6623L275.327 36.7109L266.939 40.1565L258.056 43.8056L247.892 47.9804L237.127 52.4026L224.932 57.4124L212.209 62.6386L198.959 68.0814L184.245 74.1259L184.245 157.105L198.959 148.873L212.209 141.46L224.932 134.343L237.127 127.52L247.892 121.498L258.056 115.812L266.939 110.842L275.327 106.15L282.748 101.998L289.222 98.376L295.094 95.091L299.611 92.564L303.413 90.4372L307.215 88.3103Z" fill="#E0E4EC"/>
<path d="M198.959 68.0814L184.245 74.1259L184.245 157.105L198.959 148.873M198.959 68.0814V148.873M198.959 68.0814L212.209 62.6386M198.959 148.873L212.209 141.46M212.209 141.46V62.6386M212.209 141.46L224.932 134.343M212.209 62.6386L224.932 57.4124M224.932 57.4124V134.343M224.932 57.4124L237.127 52.4026M224.932 134.343L237.127 127.52M237.127 127.52V52.4026M237.127 127.52L247.892 121.498M237.127 52.4026L247.892 47.9804M247.892 47.9804V121.498M247.892 47.9804L258.056 43.8056M247.892 121.498L258.056 115.812M258.056 115.812V43.8056M258.056 115.812L266.939 110.842M258.056 43.8056L266.939 40.1565M266.939 110.842V40.1565M266.939 110.842L275.327 106.15M266.939 40.1565L275.327 36.7109M275.327 36.7109V106.15M275.327 36.7109L282.748 33.6623M275.327 106.15L282.748 101.998M282.748 101.998V33.6623M282.748 101.998L289.222 98.376M282.748 33.6623L289.222 31.0028M289.222 31.0028V98.376M289.222 31.0028L295.094 28.5907M289.222 98.376L295.094 95.091M295.094 95.091V28.5907M295.094 95.091L299.611 92.564M295.094 28.5907L299.611 26.7352M299.611 26.7352V92.564M299.611 26.7352L303.413 25.1735M299.611 92.564L303.413 90.4372M303.413 90.4372L307.215 88.3103V23.6118L303.413 25.1735M303.413 90.4372V25.1735" stroke="#6E7E92" stroke-linejoin="round"/>
<path d="M110.229 154.696L127.588 157.536L134.511 153.906L162.304 158.764V163.215L179.662 166.055V67.2416L110.229 59.6382V154.696Z" fill="#E0E4EC" stroke="#6E7E92" stroke-linejoin="round"/>
<path d="M110.052 66.564L179.462 74.7697" stroke="#6E7E92" stroke-linejoin="round"/>
<path d="M110.073 149.822L179.486 161.723" stroke="#6E7E92" stroke-linejoin="round"/>
<path d="M257.002 13.4902L310 18.3836L179.687 67.2415L110.254 59.638L257.002 13.4902Z" fill="#E0E4EC" stroke="#6E7E92" stroke-linejoin="round"/>
<path d="M110 154.536L127.592 157.576V152.843L110 149.892L110 154.536Z" fill="#E0E4EC" stroke="#6E7E92" stroke-linejoin="round"/>
<path d="M144.971 66.5537L144.971 155.987" stroke="#6E7E92"/>
<path d="M114.769 150.692L142.525 155.401V75.5211L114.769 72.1274L114.769 150.692Z" fill="#E0E4EC" stroke="#6E7E92" stroke-linejoin="round"/>
<path d="M147.349 156.292L175.298 161.065V79.5893L147.349 76.166L147.349 156.292Z" fill="#E0E4EC" stroke="#6E7E92" stroke-linejoin="round"/>
<path d="M136.551 72.1348L136.551 153.805" stroke="#6E7E92" stroke-width="2" stroke-linecap="round"/>
<path d="M125.258 70.7798L125.258 151.999" stroke="#6E7E92" stroke-width="2" stroke-linecap="round"/>
<path d="M153.112 73.9414L153.112 156.817" stroke="#6E7E92" stroke-width="2" stroke-linecap="round"/>
<path d="M163.652 74.9204L163.652 158.5" stroke="#6E7E92" stroke-width="2" stroke-linecap="round"/>
<path d="M174.342 93.0533L179.74 94.3331V89.4417L174.342 89.3071V93.0533Z" fill="#E0E4EC" stroke="#6E7E92" stroke-linejoin="round"/>
<path d="M115.75 85.4495L110.352 85.3563V79.6528L115.75 80.9326V85.4495Z" fill="#E0E4EC" stroke="#6E7E92" stroke-linejoin="round"/>
<path d="M115.75 105.701L110.352 105.607V99.9038L115.75 101.184V105.701Z" fill="#E0E4EC" stroke="#6E7E92" stroke-linejoin="round"/>
<path d="M115.75 125.424L110.352 125.331V119.627L115.75 120.907V125.424Z" fill="#E0E4EC" stroke="#6E7E92" stroke-linejoin="round"/>
<path d="M115.75 145.6L110.352 145.507V139.803L115.75 141.083V145.6Z" fill="#E0E4EC" stroke="#6E7E92" stroke-linejoin="round"/>
<path d="M174.342 113.888L179.74 115.168V110.277L174.342 110.142V113.888Z" fill="#E0E4EC" stroke="#6E7E92" stroke-linejoin="round"/>
<path d="M174.342 134.723L179.74 136.003V131.112L174.342 130.977V134.723Z" fill="#E0E4EC" stroke="#6E7E92" stroke-linejoin="round"/>
<path d="M174.342 155.559L179.74 156.706V151.947L174.342 151.812V155.559Z" fill="#E0E4EC" stroke="#6E7E92" stroke-linejoin="round"/>
</svg>
